<?xml version="1.0" encoding="utf-8"?>
<!-- Generator: Adobe Adobe Illustrator 24.2.0, SVG Export Plug-In . SVG Version: 6.00 Build 0)  -->
<svg version="1.1" xmlns="http://www.w3.org/2000/svg" xmlns:xlink="http://www.w3.org/1999/xlink" x="0px" y="0px" width="800px"
	 height="800px" viewBox="0 0 800 800" style="enable-background:new 0 0 800 800;" xml:space="preserve">
<style type="text/css">
	.st0{fill:none;stroke:#851F82;stroke-width:3;stroke-miterlimit:10;}
	.st1{fill:none;stroke:#851F82;stroke-width:3;stroke-miterlimit:10;}
	.st2{fill:#851F82;stroke:#851F82;stroke-width:3;stroke-miterlimit:10;}
	.st3{fill:none;stroke:#F29200;stroke-width:3;stroke-miterlimit:10;}
	.st4{fill:#F29200;stroke:#F29200;stroke-width:3;stroke-miterlimit:10;}
</style>
<g id="Layer_1">
</g>
<g id="Layer_2">
	<polygon class="st0" points="245.03,762.55 113.01,113.77 163.82,103.8 295.84,752.57 	"/>
	
		<ellipse transform="matrix(0.0734 -0.9973 0.9973 0.0734 67.8838 171.6346)" class="st1" cx="126.31" cy="49.28" rx="39.57" ry="40.1"/>
	<path class="st0" d="M206.81,108.21c10.25,39.38,63.44,242.75,80.69,290.14c1.91,5.26,8.13,7.51,12.94,4.65
		c48.22-28.77,95.01-59.85,140.14-93.1c21.16-15.59,45.96-32.6,71.7-26.62c3.8,0.88,7.81,2.54,9.58,5.96
		c3.11,6.01-2.37,12.71-7.4,17.3c-10.67,9.74-21.35,19.47-32.02,29.21c-6.48,5.91-1.41,16.6,7.27,15.4
		c77.77-10.78,151.58-43.09,219.68-82.37c3.96-2.29,5.5-7.22,3.61-11.38c-34.61-76.1-63.95-154.57-89.13-235.77
		c-1.83-5.9-8.93-8.21-13.84-4.47c-24.22,18.41-49.81,35.06-76.51,49.8c-10.78,5.95-24.45,1.29-29.09-10.12
		c-2.66-6.55-7.88-12.48-14.36-16.51c-17.04-10.61-39.09-7.4-58.87-3.49c-55.12,10.89-109.72,24.31-163.56,40.2
		c-19.63,5.79-39.81,12.27-56.42,21.09C207.58,100.05,205.77,104.23,206.81,108.21z"/>
</g>
<g id="Layer_3">
</g>
</svg>
