<?xml version="1.0" encoding="utf-8"?>
<!-- Generator: Adobe Adobe Illustrator 24.2.0, SVG Export Plug-In . SVG Version: 6.00 Build 0)  -->
<svg version="1.1" id="Layer_1" xmlns="http://www.w3.org/2000/svg" xmlns:xlink="http://www.w3.org/1999/xlink" x="0px" y="0px"
	 width="800px" height="800px" viewBox="0 0 800 800" style="enable-background:new 0 0 800 800;" xml:space="preserve">
<style type="text/css">
	.st0{fill:none;stroke:#F29200;stroke-width:3;stroke-miterlimit:10;}
	.st1{fill:#FFFFFF;}
	.st2{fill:none;stroke:#851F82;stroke-width:3;stroke-miterlimit:10;}
	.st3{fill:none;stroke:#F29200;stroke-miterlimit:10;}
	.st4{fill:none;stroke:#851F82;stroke-miterlimit:10;}
	.st5{fill:none;stroke:#F29200;stroke-width:10;stroke-miterlimit:10;}
	.st6{fill:none;stroke:#F29200;stroke-width:9;stroke-miterlimit:10;}
	.st7{fill:#F29200;stroke:#F29200;stroke-width:3;stroke-miterlimit:10;}
	.st8{fill:none;stroke:#851F82;stroke-width:10;stroke-miterlimit:10;}
	.st9{fill:none;stroke:#851F82;stroke-width:9;stroke-miterlimit:10;}
	.st10{fill:#851F82;stroke:#851F82;stroke-width:3;stroke-miterlimit:10;}
	.st11{fill:none;}
	.st12{fill:none;stroke:#F29200;stroke-width:2;stroke-miterlimit:10;}
	.st13{fill:none;stroke:#851F82;stroke-width:2;stroke-miterlimit:10;}
</style>
<g>
	<g>
		<path class="st2" d="M396.66,5.46c-214.24,0-387.92,179.09-387.92,400s173.68,400,387.92,400s387.92-179.09,387.92-400
			S610.9,5.46,396.66,5.46z M397.4,794.98c-208.22,0-377.01-174.05-377.01-388.75S189.18,17.48,397.4,17.48
			s377.01,174.05,377.01,388.75S605.62,794.98,397.4,794.98z"/>
	</g>
</g>
<path class="st2" d="M486.13,513.27c-1.22,2.04-1.92,4.43-1.92,6.98v-6.98H486.13z"/>
<path class="st2" d="M570.35,522.27v7.09H497.9v-6.71h69.11C568.16,522.66,569.28,522.52,570.35,522.27z"/>
<path class="st2" d="M497.9,506.56c-5.01,0-9.39,2.69-11.77,6.71c-1.22,2.04-1.92,4.43-1.92,6.98v-0.56c0-2.33,0.61-4.52,1.68-6.42
	c2.25-4,6.53-6.71,11.44-6.71H497.9z"/>
<path class="st2" d="M570.35,522.27v0.39h-3.33C568.16,522.66,569.28,522.52,570.35,522.27z"/>
<path class="st2" d="M497.9,568.46h-2.01c-1.01,0-1.95-0.31-2.73-0.85C494.63,568.16,496.24,568.46,497.9,568.46z"/>
<rect x="557.09" y="598.03" class="st2" width="72.44" height="6.7"/>
<path class="st4" d="M643.22,607.15v0.56c0,2.33-0.6,4.53-1.67,6.42c-2.25,4-6.54,6.7-11.45,6.7h-0.56c5.01,0,9.39-2.69,11.78-6.7
	C642.53,612.08,643.22,609.7,643.22,607.15z"/>
<path class="st2" d="M607.38,201.72v179.47c0,14.12-11.45,25.56-25.56,25.56h-280.5c-0.78,0-1.55-0.03-2.31-0.1v-17.48
	c4.58,4.35,10.79,7.03,17.61,7.03h250.13c14.12,0,25.56-11.45,25.56-25.56V212.28c0-14.13-11.45-25.57-25.56-25.57H316.62
	c-14.13,0-25.57,11.45-25.57,25.57v120.9c-3.72-3.03-8.48-4.86-13.66-4.86h-1.64v-126.6c0-14.13,11.45-25.57,25.57-25.57h280.5
	C595.94,176.14,607.38,187.59,607.38,201.72z"/>
<path class="st2" d="M592.31,212.28v158.35c0,14.12-11.45,25.56-25.56,25.56H316.62c-6.83,0-13.03-2.67-17.61-7.03v-39.22
	c0-0.72-0.03-1.43-0.1-2.13c-0.57-5.89-3.52-11.08-7.86-14.63v-120.9c0-14.13,11.45-25.57,25.57-25.57h250.13
	C580.87,186.7,592.31,198.15,592.31,212.28z"/>
<path class="st2" d="M592.31,212.28v158.35c0,14.12-11.45,25.56-25.56,25.56H316.62c-6.83,0-13.03-2.67-17.61-7.03v-39.22
	c0-0.72-0.03-1.43-0.1-2.13c-0.57-5.89-3.52-11.08-7.86-14.63v-120.9c0-14.13,11.45-25.57,25.57-25.57h250.13
	C580.87,186.7,592.31,198.15,592.31,212.28z"/>
<path class="st2" d="M195.36,336.94v8.23c0,7.45,6.05,13.5,13.51,13.5h48.97c7.73,0,13.99-6.26,13.99-13.98v-7.75H195.36z"/>
<path class="st2" d="M298.91,347.8c-0.57-5.89-3.52-11.08-7.86-14.63c-3.72-3.03-8.48-4.86-13.66-4.86h-87.96
	c-11.94,0-21.62,9.68-21.62,21.62v174.9c0,11.94,9.68,21.62,21.62,21.62h87.96c11.95,0,21.62-9.68,21.62-21.62v-174.9
	C299.01,349.22,298.98,348.5,298.91,347.8z M292.06,510.34c0,11.94-9.68,21.62-21.62,21.62h-74.05c-11.95,0-21.62-9.68-21.62-21.62
	V358.56c0-11.59,9.13-21.07,20.6-21.6v-0.02h76.47v0.05c1.34,0.08,2.66,0.29,3.92,0.61c5.88,1.48,10.81,5.38,13.66,10.58
	c0.67,1.22,1.22,2.5,1.64,3.86c0.65,2.05,1.01,4.25,1.01,6.52V510.34z"/>
<path class="st2" d="M271.83,336.98v7.7c0,7.72-6.26,13.98-13.99,13.98h-48.97c-7.46,0-13.51-6.05-13.51-13.5v-8.21
	c0.34-0.02,0.68-0.02,1.02-0.02h74.05C270.9,336.94,271.37,336.95,271.83,336.98z"/>
<rect x="396.58" y="406.75" class="st2" width="90.96" height="37.83"/>
<path class="st2" d="M357.97,470.15v-7.66c0-9.89,8.02-17.9,17.9-17.9h131.62c9.89,0,17.9,8.02,17.9,17.9v7.66
	c0,9.89-8.02,17.9-17.9,17.9H375.87C365.99,488.05,357.97,480.03,357.97,470.15z"/>
<path class="st2" d="M292.06,358.56v151.79c0,11.94-9.68,21.62-21.62,21.62h-74.05c-11.95,0-21.62-9.68-21.62-21.62V358.56
	c0-11.59,9.13-21.07,20.6-21.6v8.21c0,7.45,6.05,13.5,13.51,13.5h48.97c7.73,0,13.99-6.26,13.99-13.98v-7.7
	c1.34,0.08,2.66,0.29,3.92,0.61c5.88,1.48,10.81,5.38,13.66,10.58c0.67,1.22,1.22,2.5,1.64,3.86
	C291.7,354.09,292.06,356.29,292.06,358.56z"/>
<path class="st2" d="M592.31,348.01v22.61c0,14.12-11.45,25.56-25.56,25.56H316.62c-6.83,0-13.03-2.67-17.61-7.03v-39.22
	c0-0.72-0.03-1.43-0.1-2.13h290.97C590.7,347.8,591.52,347.88,592.31,348.01z"/>
<path class="st2" d="M271.83,336.94v7.75c0,7.72-6.26,13.98-13.99,13.98h-48.97c-7.46,0-13.51-6.05-13.51-13.5v-8.23H271.83z"/>
<path class="st2" d="M643.22,566.05v41.1c0,2.55-0.69,4.93-1.91,6.98c-2.38,4.02-6.77,6.7-11.78,6.7h-69.1
	c-0.49,0-0.97-0.1-1.38-0.3H246.09c-2.86,0-5.49-0.99-7.56-2.66c-2.77-2.21-4.54-5.62-4.54-9.44v-27.95c0-1.61,0.23-5.29,0.72-9.08
	h-18.6c-7.46,0-13.51-6.05-13.51-13.51v-11.45h62.78v10.96c0,7.73-6.26,13.99-13.99,13.99h-2.91v28.86c0,2.74,2.23,4.97,4.97,4.97
	l301.21-0.5h68.9c3.29,0,5.96-2.66,5.96-5.96v-25.35c0-2.78-2.25-5.03-5.03-5.03h-60.53c-0.46,0.04-0.93,0.06-1.39,0.06H497.9
	c-1.67,0-3.27-0.3-4.74-0.85c-1.88-0.69-3.55-1.78-4.93-3.16c-2.48-2.47-4.01-5.89-4.01-9.68v-34.53c0-2.55,0.7-4.93,1.92-6.98
	c2.38-4.02,6.76-6.71,11.77-6.71H567c0.01,0,0.01,0,0.02,0v-99.81h14.49v101.42c0,6.86-4.77,12.6-11.16,14.1
	c-1.07,0.25-2.19,0.39-3.33,0.39h-65.7c-1.88,0-3.41,1.53-3.41,3.41v26.29h64.56c0.46-0.04,0.93-0.06,1.39-0.06h66.69
	c0.67,0,1.3,0.14,1.88,0.38c2.62,0.56,4.96,1.88,6.78,3.69C641.69,558.85,643.22,562.27,643.22,566.05z"/>
</svg>
