<?xml version="1.0" encoding="utf-8"?>
<!-- Generator: Adobe Adobe Illustrator 24.2.0, SVG Export Plug-In . SVG Version: 6.00 Build 0)  -->
<svg version="1.1" xmlns="http://www.w3.org/2000/svg" xmlns:xlink="http://www.w3.org/1999/xlink" x="0px" y="0px" width="800px"
	 height="800px" viewBox="0 0 800 800" style="enable-background:new 0 0 800 800;" xml:space="preserve">
<style type="text/css">
	.st0{fill:none;stroke:#851F82;stroke-width:3;stroke-miterlimit:10;}
	.st1{fill:none;stroke:#000000;stroke-width:3;stroke-miterlimit:10;}
	.st2{fill:#851F82;stroke:#851F82;stroke-width:3;stroke-miterlimit:10;}
	.st3{fill:none;stroke:#F29200;stroke-width:3;stroke-miterlimit:10;}
	.st4{fill:#F29200;stroke:#F29200;stroke-width:3;stroke-miterlimit:10;}
</style>
<g id="Layer_1">
</g>
<g id="Layer_2">
	<path class="st0" d="M442.17,203.46c-42.04-15.88-90.91-5.83-129.89,16.06s-70.01,54.41-100.4,86.42
		c-5.44,5.73-10.96,11.57-14.47,18.54c-4.61,9.16-5.42,19.59-6.16,29.73c-2.03,27.83-4.05,55.66-6.08,83.49
		c-1.22,16.79-2.3,34.46,9.02,48.82c5.93,7.52,15.5,12.05,25.26,10.79c19.52-2.53,26.08-24.88,28.06-43.12
		c2.7-24.79,4.04-49.71,4.02-74.63c-0.01-11.51-0.25-23.38,4.21-34.07c10.19-24.41,39.61-33.68,63.12-48.09
		c2.31-1.42,5.2,0.64,4.44,3.16c-12.57,41.67-25.07,83.29-36.31,123.84c-3.49,12.59-1.11,26.11,6.86,36.67
		c3.61,4.79,7.69,9.33,11.71,13.76c87.44,96.38,174.87,192.77,262.31,289.15c5.25,5.79,11.03,11.9,18.83,13.66
		c4.9,1.11,10.11,0.33,14.81-1.4c22.33-8.23,30.57-36.12,24.08-58.15c-6.49-22.03-23.59-39.5-39.88-56.27
		C535.2,609.84,486.98,555.8,441.26,499.9c-10.14-12.39-20.39-25.33-24.51-40.57c-8.65-31.98,11.49-64.12,14.9-95.15
		c0.44-4.03,6.03-5.13,8.24-1.67c7.34,11.48,11.77,25.14,22.11,34.29c7.01,6.2,16.1,9.71,24.97,13.1
		c39.72,15.16,79.44,30.33,119.16,45.49c5.16,1.97,10.73,3.98,16.14,2.77c6.69-1.49,11.37-7.51,15.66-12.11
		c3.08-3.29,5.49-7.16,6.65-11.43c3.36-12.44-5.21-17.47-13.04-21.75c-32.43-17.72-64.86-35.43-97.29-53.15
		c-8.15-4.45-16.42-8.99-22.87-15.51c-8.62-8.7-13.31-20.21-17.8-31.41c-7.58-18.91-15.16-37.82-21.84-57.04
		C464.22,234.13,455.8,208.61,442.17,203.46z"/>
	<path class="st0" d="M284.95,492.23c-7.9,43.86-16.18,88.73-39.31,127.34c-7.91,13.2-17.43,25.44-26.93,37.65
		c-14.93,19.19-29.86,38.37-44.79,57.56c-7.91,10.16-16.06,20.88-18,33.41c-2.21,14.3,4.83,29.55,17.37,37.62
		c12.54,8.07,29.96,8.55,42.97,1.18c10.06-5.69,16.99-15.2,23.6-24.41c9.51-13.26,19.02-26.51,28.53-39.77
		c21.79-30.38,43.71-60.96,59.41-94.6c12.67-27.14,21.87-62.33,9.22-89.47c-9.56-20.52-20.77-32.5-37.49-51.34
		c-4.7-5.3-13.71-2.42-14.23,4.51C285.16,493.71,284.95,493.93,284.95,492.23z"/>
	<ellipse class="st0" cx="432.77" cy="86.94" rx="82.52" ry="78.94"/>
</g>
<g id="Layer_3">
</g>
</svg>
