<?xml version="1.0" encoding="utf-8"?>
<!-- Generator: Adobe Adobe Illustrator 24.2.0, SVG Export Plug-In . SVG Version: 6.00 Build 0)  -->
<svg version="1.1" xmlns="http://www.w3.org/2000/svg" xmlns:xlink="http://www.w3.org/1999/xlink" x="0px" y="0px" width="800px"
	 height="800px" viewBox="0 0 800 800" style="enable-background:new 0 0 800 800;" xml:space="preserve">
<style type="text/css">
	.st0{fill:none;stroke:#851F82;stroke-width:3;stroke-miterlimit:10;}
	.st1{fill:none;stroke:#000000;stroke-width:3;stroke-miterlimit:10;}
	.st2{fill:#851F82;stroke:#851F82;stroke-width:3;stroke-miterlimit:10;}
	.st3{fill:none;stroke:#F29200;stroke-width:3;stroke-miterlimit:10;}
	.st4{fill:#F29200;stroke:#F29200;stroke-width:3;stroke-miterlimit:10;}
</style>
<g id="Layer_1">
</g>
<g id="Layer_2">
</g>
<g id="Layer_3">
	<g>
		<g>
			<path class="st0" d="M310.49,238.45l127.19,396.26c-63.4-41.12-152.56-31.83-207.03,21.58c-28.23,27.69-48.99,62.14-79.2,87.43
				C92.79,602.03,48.56,459.44,8.24,312.27c83.87-49.76,182.56-77.75,279.49-71.36c7.57,0.5,15.44,1.16,22.51-1.73
				c7.63-3.11,13.26-9.89,18.72-16.29c83.01-97.13,147.94-135.54,284.34-148.14c59.32,132.94,116.5,267.8,178.45,406.65"/>
			<path class="st0" d="M791.76,479.88c-71.13-20.04-151.38-12.91-219.77,15.77c-60.97,25.57-117.6,74.57-134.4,140.93
				c-95.38,35.71-190.76,71.43-286.14,107.14"/>
		</g>
		<path class="st0" d="M437.88,635.81c65.15-31.07,130.3-62.14,195.45-93.21c52.09-24.84,99.52-49.85,155.41-62.73"/>
		<path class="st0" d="M437.57,442.42c60.46-31.04,120.93-62.07,181.39-93.11"/>
		<path class="st0" d="M446.85,471.93c61.24-31.08,122.21-62.71,182.89-94.87"/>
		<path class="st0" d="M457.92,497.3C521,467.95,582.88,436,643.33,401.56"/>
	</g>
	<path class="st2" d="M186.43,246.96c4.56-3.22,11.28-1.21,15.05,2.91c3.77,4.12,5.32,9.75,6.74,15.15
		c13.31,50.33,26.62,100.65,39.93,150.97c3.8-10.28,7.6-20.56,11.39-30.83c8.81,7.76,17.61,15.52,26.42,23.28
		c-2.23-33.94-11.47-66.98-20.65-99.73c-5.2-18.53-10.39-37.05-15.59-55.58c-2.08-7.43-4.73-15.6-11.46-19.37
		c-5.81-3.26-13.01-2.23-19.51-0.78C207.39,235.51,196.26,239.03,186.43,246.96z"/>
</g>
</svg>
