<?xml version="1.0" encoding="utf-8"?>
<!-- Generator: Adobe Adobe Illustrator 24.2.0, SVG Export Plug-In . SVG Version: 6.00 Build 0)  -->
<svg version="1.1" id="Layer_1" xmlns="http://www.w3.org/2000/svg" xmlns:xlink="http://www.w3.org/1999/xlink" x="0px" y="0px"
	 width="800px" height="800px" viewBox="0 0 800 800" style="enable-background:new 0 0 800 800;" xml:space="preserve">
<style type="text/css">
	.st0{fill:none;stroke:#F29200;stroke-width:3;stroke-miterlimit:10;}
	.st1{fill:#FFFFFF;}
	.st2{fill:none;stroke:#851F82;stroke-width:3;stroke-miterlimit:10;}
	.st3{fill:none;stroke:#F29200;stroke-miterlimit:10;}
	.st4{fill:none;stroke:#851F82;stroke-miterlimit:10;}
	.st5{fill:none;stroke:#F29200;stroke-width:10;stroke-miterlimit:10;}
	.st6{fill:none;stroke:#F29200;stroke-width:9;stroke-miterlimit:10;}
	.st7{fill:#F29200;stroke:#F29200;stroke-width:3;stroke-miterlimit:10;}
	.st8{fill:none;stroke:#851F82;stroke-width:10;stroke-miterlimit:10;}
	.st9{fill:none;stroke:#851F82;stroke-width:9;stroke-miterlimit:10;}
	.st10{fill:#851F82;stroke:#851F82;stroke-width:3;stroke-miterlimit:10;}
</style>
<g>
	<g>
		<path class="st2" d="M394.82-9.29C180.58-9.29,6.9,169.8,6.9,390.71s173.68,400,387.92,400s387.92-179.09,387.92-400
			S609.06-9.29,394.82-9.29z M395.56,780.23c-208.22,0-377.01-174.05-377.01-388.75S187.34,2.73,395.56,2.73
			s377.01,174.05,377.01,388.75S603.78,780.23,395.56,780.23z"/>
	</g>
</g>
<path class="st8" d="M404.36,390.72v-66.66c0-2.6-1.05-4.96-2.76-6.67c-1.7-1.71-4.06-2.76-6.67-2.76c-5.21,0-9.43,4.22-9.43,9.43
	v66.65L155.8,260.06l232.58-118.59l9.35-4.77l9.51,5.15L637.4,264.3L404.36,390.72z"/>
<path class="st2" d="M397.26,408.64c-0.44,0.28-0.93,0.51-1.43,0.71l-0.66,0.26l-0.01-0.69
	C395.89,408.92,396.59,408.82,397.26,408.64z"/>
<path class="st8" d="M637.4,267.33v253.43l-8.15,4.28L399.36,646.01l-4.15-233.77c0.5,0.39,1.05,0.73,1.64,1.02l41.09,20.25
	c1.33,0.66,2.75,0.97,4.15,0.97c5.89,0,11.44-5.54,8.88-14.13c-0.32-1.07-1.05-1.96-2.05-2.46l-43.73-21.56
	c-0.27-0.13-0.55-0.26-0.84-0.35c-1.09-0.42-2.21-0.62-3.33-0.62c-0.26,0-0.51,0.01-0.75,0.04c-1.95,0.15-3.81,0.9-5.32,2.17
	l-0.03-1.67l4-2.13l5.43-2.91L637.4,267.33z"/>
<polyline class="st9" points="396.21,651.39 160.02,520.59 155.8,518.38 155.8,502.01 152.24,260.22 "/>
<path class="st10" d="M407.24,141.85v68.66c0,5.2-4.23,9.43-9.43,9.43c-2.6,0-4.96-1.05-6.67-2.76c-1.71-1.71-2.76-4.07-2.76-6.67
	v-69.03l9.35-4.77L407.24,141.85z"/>
<path class="st10" d="M404.36,324.06v66.66l-5.54,2.95l-4.18,2.24l-6.62-3.77l-2.53-1.43v-66.65c0-5.21,4.22-9.43,9.43-9.43
	c2.61,0,4.97,1.05,6.67,2.76C403.31,319.1,404.36,321.46,404.36,324.06z"/>
<polygon class="st2" points="385.5,390.71 388.03,392.14 385.5,393.13 "/>
<path class="st2" d="M404.36,390.72v5.27c-1.09-0.42-2.21-0.62-3.33-0.62c-0.26,0-0.51,0.01-0.75,0.04
	c-1.95,0.15-3.81,0.9-5.32,2.17l-0.03-1.67l4-2.13c-0.03-0.04-0.07-0.08-0.11-0.11L404.36,390.72z"/>
<path class="st2" d="M395.83,409.36l-0.66,0.26l0.04,2.61c-0.71-0.55-1.32-1.19-1.83-1.9c-0.39-0.54-0.73-1.13-1-1.74
	c0.81,0.23,1.66,0.35,2.55,0.35c0.08,0,0.15,0,0.23-0.01c0.73,0,1.43-0.11,2.1-0.28C396.82,408.92,396.33,409.15,395.83,409.36z"/>
<path class="st10" d="M394.96,397.58l0.2,11.34c-0.08,0.01-0.15,0.01-0.23,0.01c-0.89,0-1.74-0.12-2.55-0.35
	c0.27,0.61,0.61,1.2,1,1.74l-40.19,15.76c-4.85,1.9-10.32-0.48-12.22-5.34c-0.44-1.13-0.66-2.3-0.66-3.45
	c0-3.76,2.28-7.32,5.98-8.78l39.21-15.39l2.53-1l6.62,3.77l4.18-2.24c0.04,0.03,0.08,0.07,0.11,0.11l-4,2.13L394.96,397.58z"/>
<path class="st10" d="M395.92,402.05l8.31-7.72c0.07,0.06,0.12,0.11,0.17,0.17c0.63,0.7,1.14,1.46,1.54,2.25
	c0.26-0.62,0.46-1.28,0.59-1.95l40.23,21.34c4.85,2.58,6.95,8.5,4.68,13.24c-0.53,1.11-1.25,2.06-2.1,2.82
	c-2.8,2.51-7.07,3.07-10.79,1.11l-39.25-20.81l-2.54-1.34l-1.87-7.76l-4.63-1.82c-0.01-0.05-0.01-0.11,0-0.16l4.42,1.75
	L395.92,402.05z"/>
<path class="st2" d="M397.26,408.64c-0.44,0.28-0.93,0.51-1.43,0.71l-0.66,0.26l-1.79,0.71c-0.39-0.54-0.73-1.13-1-1.74
	c0.81,0.23,1.66,0.35,2.55,0.35c0.08,0,0.15,0,0.23-0.01C395.89,408.92,396.59,408.82,397.26,408.64z"/>
<path class="st2" d="M400.28,395.41c-1.95,0.15-3.81,0.9-5.32,2.17l-0.03-1.67l4-2.13C399.44,394.27,399.9,394.8,400.28,395.41z"/>
<path class="st10" d="M238.07,483.55c0,3.77-2.26,7.33-5.98,8.78L160.6,520.4c-0.19,0.08-0.39,0.15-0.58,0.19l-4.22-2.21v-16.37
	l69.4-27.23c4.85-1.9,10.32,0.48,12.22,5.34C237.86,481.25,238.07,482.4,238.07,483.55z"/>
<path class="st10" d="M637.4,507.96v12.8l-8.15,4.28l-66.21-38.68c-4.5-2.63-6.02-8.41-3.4-12.91c1.75-3,4.9-4.68,8.15-4.68
	c1.62,0,3.26,0.42,4.76,1.29L637.4,507.96z"/>
</svg>
