<?xml version="1.0" encoding="utf-8"?>
<!-- Generator: Adobe Adobe Illustrator 24.2.0, SVG Export Plug-In . SVG Version: 6.00 Build 0)  -->
<svg version="1.1" id="Layer_1" xmlns="http://www.w3.org/2000/svg" xmlns:xlink="http://www.w3.org/1999/xlink" x="0px" y="0px"
	 width="800px" height="800px" viewBox="0 0 800 800" style="enable-background:new 0 0 800 800;" xml:space="preserve">
<style type="text/css">
	.st0{fill:none;stroke:#F29200;stroke-width:3;stroke-miterlimit:10;}
	.st1{fill:#FFFFFF;}
	.st2{fill:none;stroke:#851F82;stroke-width:3;stroke-miterlimit:10;}
	.st3{fill:none;stroke:#F29200;stroke-miterlimit:10;}
	.st4{fill:none;stroke:#851F82;stroke-miterlimit:10;}
	.st5{fill:none;stroke:#F29200;stroke-width:10;stroke-miterlimit:10;}
	.st6{fill:none;stroke:#F29200;stroke-width:9;stroke-miterlimit:10;}
	.st7{fill:#F29200;stroke:#F29200;stroke-width:3;stroke-miterlimit:10;}
	.st8{fill:none;stroke:#851F82;stroke-width:10;stroke-miterlimit:10;}
	.st9{fill:none;stroke:#851F82;stroke-width:9;stroke-miterlimit:10;}
	.st10{fill:#851F82;stroke:#851F82;stroke-width:3;stroke-miterlimit:10;}
</style>
<g>
	<g>
		<path class="st2" d="M395.16-0.01c-214.24,0-387.92,179.09-387.92,400s173.68,400,387.92,400s387.92-179.09,387.92-400
			S609.4-0.01,395.16-0.01z M395.9,789.51c-208.22,0-377.01-174.05-377.01-388.75S187.68,12.01,395.9,12.01
			s377.01,174.05,377.01,388.75S604.12,789.51,395.9,789.51z"/>
	</g>
</g>
<path class="st2" d="M91.42,398.33c0,0,281.06-401.26,577.36,0C668.78,398.33,414.15,807.07,91.42,398.33z"/>
<ellipse class="st2" cx="380.1" cy="399.99" rx="139.15" ry="143.38"/>
<path class="st2" d="M458.35,399.98c0,8.48-1.36,16.62-3.92,24.22c-10.25,30.98-39.7,52.76-73.74,50.36
	c-36.3-2.56-65.49-33.24-67.33-70.68c-1.98-40.22,26.92-73.96,64.44-78.19c2.64-0.32,5.3-0.47,8.02-0.47c4.35,0,8.61,0.4,12.75,1.15
	c6,1.1,10.74,6.27,10.78,12.55c0,0.04,0,0.08,0,0.12l0,0.12c-0.02,5.64-5.15,9.86-10.45,8.46c-4.18-1.11-8.56-1.69-13.08-1.69
	c-3.95,0-7.8,0.44-11.51,1.32c-25.3,5.82-43.72,30.48-40.62,58.97c2.71,24.87,22.26,44.87,46.42,47.51
	c24.29,2.65,45.69-11.82,54.24-33.12c2.55-6.37,3.95-13.33,3.95-20.64c0-1.85-0.09-3.68-0.27-5.48c-0.56-5.71,3.48-10.94,9.05-11.03
	c0.11,0,0.22,0,0.33,0l0.08,0c5.61,0.01,10.17,4.51,10.63,10.27C458.26,395.79,458.35,397.87,458.35,399.98z"/>
<path class="st2" d="M91.42,398.33c0,0,281.06-401.26,577.36,0C668.78,398.33,414.15,807.07,91.42,398.33z"/>
<path class="st2" d="M107.05,398.43c0,0,265.84-374.96,546.1,0C653.15,398.43,412.3,780.38,107.05,398.43z"/>
<ellipse class="st2" cx="380.1" cy="399.99" rx="139.15" ry="143.38"/>
<ellipse class="st2" cx="380.1" cy="399.98" rx="129.86" ry="133.81"/>
<path class="st2" d="M458.35,399.98c0,8.48-1.36,16.62-3.92,24.22c-10.25,30.98-39.7,52.76-73.74,50.36
	c-36.3-2.56-65.49-33.24-67.33-70.68c-1.98-40.22,26.92-73.96,64.44-78.19c2.64-0.32,5.3-0.47,8.02-0.47c4.35,0,8.61,0.4,12.75,1.15
	c6,1.1,10.74,6.27,10.78,12.55c0,0.04,0,0.08,0,0.12l0,0.12c-0.02,5.64-5.15,9.86-10.45,8.46c-4.18-1.11-8.56-1.69-13.08-1.69
	c-3.95,0-7.8,0.44-11.51,1.32c-25.3,5.82-43.72,30.48-40.62,58.97c2.71,24.87,22.26,44.87,46.42,47.51
	c24.29,2.65,45.69-11.82,54.24-33.12c2.55-6.37,3.95-13.33,3.95-20.64c0-1.85-0.09-3.68-0.27-5.48c-0.56-5.71,3.48-10.94,9.05-11.03
	c0.11,0,0.22,0,0.33,0l0.08,0c5.61,0.01,10.17,4.51,10.63,10.27C458.26,395.79,458.35,397.87,458.35,399.98z"/>
</svg>
