<?xml version="1.0" encoding="utf-8"?>
<!-- Generator: Adobe Adobe Illustrator 24.2.0, SVG Export Plug-In . SVG Version: 6.00 Build 0)  -->
<svg version="1.1" id="Layer_1" xmlns="http://www.w3.org/2000/svg" xmlns:xlink="http://www.w3.org/1999/xlink" x="0px" y="0px"
	 width="800px" height="800px" viewBox="0 0 800 800" style="enable-background:new 0 0 800 800;" xml:space="preserve">
<style type="text/css">
	.st0{fill:none;stroke:#F29200;stroke-width:3;stroke-miterlimit:10;}
	.st1{fill:#FFFFFF;}
	.st2{fill:none;stroke:#851F82;stroke-width:3;stroke-miterlimit:10;}
	.st3{fill:none;stroke:#F29200;stroke-miterlimit:10;}
	.st4{fill:none;stroke:#851F82;stroke-miterlimit:10;}
	.st5{fill:none;stroke:#F29200;stroke-width:10;stroke-miterlimit:10;}
	.st6{fill:none;stroke:#F29200;stroke-width:9;stroke-miterlimit:10;}
	.st7{fill:#F29200;stroke:#F29200;stroke-width:3;stroke-miterlimit:10;}
	.st8{fill:none;stroke:#851F82;stroke-width:10;stroke-miterlimit:10;}
	.st9{fill:none;stroke:#851F82;stroke-width:9;stroke-miterlimit:10;}
	.st10{fill:#851F82;stroke:#851F82;stroke-width:3;stroke-miterlimit:10;}
</style>
<path class="st2" d="M244.19,258.06c-0.03,0-0.03,0.03-0.03,0.03c-0.06-0.21-0.09-0.46-0.15-0.71
	C244.06,257.6,244.12,257.85,244.19,258.06z"/>
<path class="st2" d="M375.89,370.16l-6.85,0.09c1.23-0.18,2.49-0.28,3.78-0.28C373.86,369.97,374.87,370.04,375.89,370.16z"/>
<path class="st2" d="M362.87,209.19c6.35-1.57,11.79-5.93,15.52-11.31c3.72-5.38,5.84-11.73,7.07-18.16
	c0.88,13.66,12.16,25.94,25.7,27.98c-9.91,9.28-20.2,19.14-24.4,32.05C384.85,226.83,375.74,215.21,362.87,209.19z"/>
<path class="st2" d="M582.19,275.32c6.35-1.57,11.79-5.93,15.52-11.31c3.72-5.38,5.84-11.73,7.07-18.16
	c0.88,13.66,12.16,25.94,25.7,27.98c-9.91,9.28-20.2,19.14-24.4,32.05C604.17,292.96,595.06,281.34,582.19,275.32z"/>
<path class="st2" d="M244.37,258.89c-0.06-0.28-0.12-0.55-0.18-0.83c-0.06-0.22-0.12-0.46-0.18-0.68c0.06,0.25,0.09,0.49,0.15,0.71
	c0,0,0,0,0,0.03C244.22,258.37,244.28,258.62,244.37,258.89z"/>
<path class="st2" d="M244.16,258.09c-0.37-1.41-0.71-2.83-0.98-4.24c0.22,0.95,0.43,1.91,0.68,2.83c0.06,0.25,0.12,0.46,0.15,0.71
	C244.06,257.63,244.09,257.88,244.16,258.09z"/>
<path class="st2" d="M478.36,249.58c0,0.25,0,0.52-0.03,0.77c-0.31,57.95-36.07,107.58-86.78,128.11c-3.93-4.49-9.43-7.53-15.67-8.3
	l-6.85,0.09H369c-5.25,0.83-9.99,3.26-13.61,6.85c-1.91,9.13-2.89,18.56-2.89,28.24c0,1.38,0.03,2.8,0.06,4.18
	c0.95,32.2,12.84,61.67,32.14,84.78v113.66c0,6.82-5.53,12.32-12.32,12.32h-33V508.9c0-2.58-1.84-4.76-4.3-5.25
	c-0.34-0.09-0.71-0.12-1.08-0.12c-0.37,0-0.74,0.03-1.08,0.12c-2.46,0.49-4.3,2.67-4.3,5.25v111.39h-31.47
	c-6.79,0-12.32-5.5-12.32-12.32V480.53c0-6.82,5.53-12.35,12.32-12.35h-0.49c-7.81,0-14.13-6.33-14.13-14.14v-77.59
	c-45.48-20.43-77.99-64.56-81.77-116.67c-0.25-3.29-0.37-6.64-0.37-9.99v-0.22c0-7.99,0.68-15.83,1.97-23.45
	c0.58-0.65,1.17-1.26,1.78-1.84c4.7-4.46,10.94-7.19,17.76-7.19c6.76,0,12.88,2.64,17.52,6.98c0.61,0.55,1.17,1.14,1.72,1.75
	c0,0.18-0.03,0.37-0.03,0.58c-0.06,0.92-0.09,1.84-0.12,2.8c-0.03,1.11-0.06,2.24-0.06,3.38c0,5.04,0.37,9.99,1.08,14.81l0.52,3.26
	c0.18,1.08,0.4,2.12,0.65,3.2c0.28,1.41,0.61,2.83,0.98,4.24c0,0,0,0,0,0.03c0.03,0.15,0.09,0.34,0.15,0.52
	c0.03,0.09,0.03,0.15,0.06,0.25c0.06,0.28,0.12,0.55,0.22,0.83c0.4,1.35,0.8,2.7,1.2,4.03c0.4,1.32,0.86,2.64,1.35,3.96
	c0.06,0.15,0.12,0.31,0.18,0.49c0.8,2.18,1.69,4.3,2.64,6.39c0.31,0.77,0.68,1.51,1.04,2.24c0.55,1.17,1.11,2.3,1.75,3.44
	c0.65,1.29,1.38,2.58,2.12,3.84c0.71,1.17,1.41,2.34,2.12,3.5c0.4,0.58,0.77,1.17,1.17,1.75c0.34,0.52,0.71,1.01,1.04,1.51
	c0.15,0.28,0.37,0.55,0.55,0.8c0.8,1.11,1.6,2.21,2.46,3.29c0.86,1.14,1.78,2.27,2.73,3.38c0.4,0.49,0.83,0.98,1.23,1.44
	c0.55,0.65,1.14,1.29,1.72,1.94c0.95,1.04,1.94,2.06,2.92,3.04c1.04,1.04,2.09,2.06,3.17,3.01c0.95,0.89,1.94,1.75,2.92,2.58
	c0.37,0.34,0.77,0.68,1.17,0.98c0.61,0.55,1.26,1.08,1.91,1.54c2.15,1.72,4.39,3.32,6.7,4.86c0.77,0.52,1.57,1.01,2.34,1.51
	c5.1,3.2,10.51,5.93,16.16,8.17c0.61,0.28,1.26,0.52,1.91,0.74c1.04,0.4,2.12,0.8,3.2,1.14c0.43,0.15,0.86,0.31,1.32,0.46
	c0.09,0.03,0.22,0.06,0.34,0.09c0.65,0.22,1.26,0.4,1.91,0.58c1.72,0.52,3.5,1.01,5.29,1.41c0.4,0.09,0.77,0.18,1.2,0.28
	c1.51,0.37,3.04,0.68,4.61,0.95c1.17,0.22,2.37,0.4,3.53,0.55c1.14,0.18,2.27,0.31,3.41,0.43c0.61,0.09,1.23,0.15,1.84,0.18
	c0.95,0.09,1.94,0.18,2.89,0.22c0.77,0.06,1.57,0.09,2.37,0.12c1.32,0.06,2.67,0.09,4.03,0.09c1.32,0,2.67-0.03,3.99-0.09
	c1.81-0.06,3.6-0.18,5.38-0.34c1.51-0.12,3.04-0.31,4.55-0.52c1.38-0.18,2.77-0.4,4.15-0.65c1.66-0.31,3.32-0.65,4.98-1.01
	c1.29-0.31,2.58-0.61,3.87-0.98c0.34-0.09,0.68-0.18,1.01-0.28c1.11-0.31,2.21-0.65,3.32-1.01c1.29-0.4,2.58-0.83,3.84-1.32
	c0.55-0.18,1.11-0.4,1.66-0.61c1.01-0.37,2-0.77,2.95-1.17c0.77-0.34,1.54-0.68,2.3-1.04c1.51-0.65,3.01-1.38,4.46-2.15
	c0.74-0.37,1.44-0.74,2.18-1.14c0.77-0.43,1.57-0.86,2.34-1.29c0.55-0.34,1.08-0.65,1.63-0.98c0.95-0.58,1.91-1.17,2.86-1.78
	c0.98-0.65,1.94-1.29,2.89-1.97c2.27-1.57,4.46-3.23,6.55-4.98c0.65-0.52,1.26-1.04,1.87-1.57c0.61-0.55,1.23-1.08,1.84-1.63
	c0.58-0.55,1.2-1.11,1.78-1.66c0.58-0.58,1.17-1.14,1.75-1.72l1.11-1.11c1.47-1.54,2.92-3.1,4.3-4.73c0.4-0.46,0.8-0.92,1.17-1.41
	c0.52-0.61,1.04-1.26,1.54-1.91c0.46-0.55,0.89-1.14,1.32-1.69c0.8-1.08,1.57-2.15,2.3-3.23c0.77-1.08,1.47-2.15,2.18-3.26
	c0.68-1.04,1.35-2.12,2-3.23c1.38-2.4,2.7-4.85,3.9-7.37c0.37-0.74,0.74-1.51,1.04-2.24c0.43-0.92,0.83-1.84,1.23-2.8
	c0.52-1.23,1.01-2.49,1.47-3.75c0.12-0.34,0.25-0.68,0.37-1.01c0.95-2.61,1.75-5.25,2.46-7.93c0.4-1.44,0.77-2.92,1.08-4.39
	c0.31-1.32,0.58-2.7,0.83-4.06c0.03-0.12,0.06-0.25,0.06-0.4c0.22-1.23,0.43-2.49,0.58-3.75c0.06-0.4,0.12-0.8,0.15-1.23
	c0.18-1.23,0.31-2.49,0.4-3.75c0.12-1.44,0.25-2.89,0.31-4.36v-0.34c0.06-1.41,0.09-2.83,0.09-4.24c0-1.44-0.03-2.92-0.09-4.36
	c-0.06-1.17-0.12-2.34-0.22-3.47c0-0.28-0.03-0.55-0.06-0.8c0.37-0.4,0.74-0.77,1.14-1.14c3.9-3.69,9.25-5.96,15.15-5.96
	c5.68,0,10.85,2.09,14.72,5.59c0,0.06,0.03,0.12,0.03,0.18C477.44,231.36,478.36,240.36,478.36,249.58z"/>
<path class="st2" d="M244.16,258.09c-0.37-1.41-0.71-2.83-0.98-4.24c0.22,0.95,0.43,1.91,0.68,2.83c0.06,0.25,0.12,0.46,0.15,0.71
	C244.06,257.63,244.09,257.88,244.16,258.09z"/>
<circle class="st2" cx="339.38" cy="290.3" r="40.71"/>
<path class="st2" d="M244.16,258.12c0-0.03,0-0.03,0-0.03c-0.06-0.21-0.09-0.46-0.15-0.71c0.06,0.22,0.12,0.46,0.18,0.68
	c0.06,0.28,0.12,0.55,0.18,0.83C244.28,258.62,244.22,258.37,244.16,258.12z"/>
<circle class="st2" cx="491.49" cy="446.06" r="40.71"/>
<path class="st2" d="M372.81,369.97c-1.29,0-2.55,0.09-3.78,0.28l6.85-0.09C374.87,370.04,373.86,369.97,372.81,369.97z"/>
<path class="st2" d="M630.47,405.34c0,58.29-35.89,108.19-86.75,128.84v71.96c0,7.81-6.33,14.14-14.13,14.14h-76.21
	c-7.81,0-14.14-6.33-14.14-14.14v-71.96c-21.33-8.67-40.04-22.46-54.54-39.88c-19.3-23.11-31.19-52.58-32.14-84.78
	c-0.03-1.38-0.06-2.8-0.06-4.18c0-9.68,0.98-19.11,2.89-28.24c3.63-3.6,8.36-6.02,13.61-6.85h0.03l6.85-0.09
	c6.24,0.77,11.74,3.81,15.67,8.3c0.65,0.71,1.23,1.47,1.78,2.24c-0.22,2.52-0.31,5.07-0.31,7.65c0,6.36,0.58,12.57,1.69,18.59
	c8.73,47.51,50.36,83.49,100.36,83.49c51.29,0,93.72-37.8,100.97-87.05c0.74-4.89,1.11-9.93,1.11-15.03c0-5.1-0.37-10.11-1.11-15.03
	c2.64-2.77,6.02-4.85,9.83-5.99c2.15-0.65,4.42-0.98,6.79-0.98c2.12,0,2.18-0.49,4.12,0.06l-0.37,0.18c1.23,0,2.92,0.77,4.09,1.14
	c0.12,0.03,0.25,0.06,0.34,0.09c0.31,0.09,0.61,0.22,0.92,0.34c0.28,0.12,0.58,0.25,0.86,0.4c0.61,0.31,1.2,0.61,1.78,0.95
	c0.58,0.34,1.14,0.71,1.69,1.11c2.58,10.08,4.09,20.62,4.33,31.47C630.47,403.16,630.47,404.27,630.47,405.34z"/>
<circle class="st2" cx="491.49" cy="446.06" r="40.71"/>
<circle class="st2" cx="339.38" cy="290.3" r="40.71"/>
<circle class="st2" cx="491.49" cy="446.06" r="40.71"/>
<line class="st2" x1="445.82" y1="222.82" x2="444.59" y2="222.82"/>
<line class="st2" x1="241.3" y1="224.05" x2="239.42" y2="224.08"/>
<circle class="st2" cx="339.38" cy="290.3" r="40.71"/>
<circle class="st2" cx="491.49" cy="446.06" r="40.71"/>
<line class="st2" x1="445.82" y1="222.82" x2="444.59" y2="222.82"/>
<line class="st2" x1="241.3" y1="224.05" x2="239.42" y2="224.08"/>
<g>
	<g>
		<path class="st2" d="M404.36,0C190.12,0,16.44,179.09,16.44,400s173.68,400,387.92,400s387.92-179.09,387.92-400S618.6,0,404.36,0
			z M405.1,789.52c-208.22,0-377.01-174.05-377.01-388.75S196.88,12.02,405.1,12.02s377.01,174.05,377.01,388.75
			S613.32,789.52,405.1,789.52z"/>
	</g>
</g>
</svg>
