<?xml version="1.0" encoding="utf-8"?>
<!-- Generator: Adobe Illustrator 26.0.0, SVG Export Plug-In . SVG Version: 6.00 Build 0)  -->
<svg version="1.1" id="Layer_1" xmlns="http://www.w3.org/2000/svg" xmlns:xlink="http://www.w3.org/1999/xlink" x="0px" y="0px"
	 viewBox="0 0 800 800" style="enable-background:new 0 0 800 800;" xml:space="preserve">
<style type="text/css">
	.st0{fill:#851F82;stroke:#FFFFFF;stroke-miterlimit:10;}
	.st1{fill:#F29200;stroke:#FFFFFF;stroke-miterlimit:10;}
	.st2{fill:#C91456;stroke:#FFFFFF;stroke-miterlimit:10;}
	.st3{fill:none;}
	.st4{fill:#FFFFFF;}
	.st5{font-family:'OpenSans';}
	.st6{font-size:52.25px;}
	.st7{letter-spacing:4;}
</style>
<g>
	<polygon class="st0" points="400,29.1 340.8,135.8 459.5,136.2 	"/>
	<polygon class="st1" points="800,749.2 685.1,542.3 116,541.9 685.1,542.3 629,441.4 171.2,440.9 56,648.3 744,648.8 56,648.3 
		0,749.2 	"/>
	<path class="st2" d="M513.7,233.8l-226.9-0.5L513.7,233.8l-54.2-97.5l-118.7-0.5L171.2,440.9l457.8,0.5L513.7,233.8z M571.2,337.5
		L230,337L571.2,337.5z"/>
</g>
<rect x="380.2" y="85.7" class="st3" width="130" height="114"/>
<rect x="368.1" y="85.7" class="st3" width="116.4" height="96.9"/>
<text transform="matrix(1 0 0 1 368.1229 125.4092)" class="st4 st5 st6 st7">5%</text>
<rect x="354.1" y="163.7" class="st3" width="116.4" height="96.9"/>
<text transform="matrix(1 0 0 1 354.1229 203.4092)" class="st4 st5 st6 st7">10%</text>
<rect x="354.1" y="260.6" class="st3" width="116.4" height="96.9"/>
<text transform="matrix(1 0 0 1 354.1229 300.2838)" class="st4 st5 st6 st7">20%</text>
<rect x="354.1" y="366.6" class="st3" width="116.4" height="96.9"/>
<text transform="matrix(1 0 0 1 354.1229 406.2838)" class="st4 st5 st6 st7">30%</text>
<rect x="354.1" y="472.6" class="st3" width="116.4" height="96.9"/>
<text transform="matrix(1 0 0 1 354.1229 512.2838)" class="st4 st5 st6 st7">50%</text>
<rect x="354.1" y="569.5" class="st3" width="116.4" height="96.9"/>
<text transform="matrix(1 0 0 1 354.1229 609.1584)" class="st4 st5 st6 st7">75%</text>
<rect x="360.6" y="673.5" class="st3" width="116.4" height="96.9"/>
<text transform="matrix(1 0 0 1 360.6501 713.1584)" class="st4 st5 st6 st7">90%</text>
</svg>
