<?xml version="1.0" encoding="utf-8"?>
<!-- Generator: Adobe Adobe Illustrator 24.2.0, SVG Export Plug-In . SVG Version: 6.00 Build 0)  -->
<svg version="1.1" xmlns="http://www.w3.org/2000/svg" xmlns:xlink="http://www.w3.org/1999/xlink" x="0px" y="0px" width="800px"
	 height="800px" viewBox="0 0 800 800" style="enable-background:new 0 0 800 800;" xml:space="preserve">
<style type="text/css">
	.st0{fill:none;stroke:#851F82;stroke-width:3;stroke-miterlimit:10;}
	.st1{fill:none;stroke:#000000;stroke-width:3;stroke-miterlimit:10;}
	.st2{fill:#851F82;stroke:#851F82;stroke-width:3;stroke-miterlimit:10;}
	.st3{fill:none;stroke:#F29200;stroke-width:3;stroke-miterlimit:10;}
	.st4{fill:#F29200;stroke:#F29200;stroke-width:3;stroke-miterlimit:10;}
</style>
<g id="Layer_1">
</g>
<g id="Layer_2">
</g>
<g id="Layer_3">
	<path class="st0" d="M12.82,324.64c-1.77-1.24-3.77-3.18-2.98-5.2c0.6-1.52,2.62-2.05,4.17-1.53s2.72,1.78,3.79,3.01
		c8.15,9.35,15.03,20.09,18.21,32.08c3.19,11.99,2.39,25.35-3.89,36.04c-0.98,1.66-3.02,3.45-4.55,2.28
		c-1.35-1.03-0.64-3.15,0.11-4.68c8.64-17.59,5.4-40.31-7.81-54.78C16.6,328.28,12.79,325.18,12.82,324.64z"/>
	<path class="st0" d="M53.25,253.64c26.36,16.93,49.45,40.99,58.69,70.93c4.07,13.18,5.35,27.08,5.34,40.87
		c-0.01,24.4-4.68,50.28-21.08,68.35c-1.31,1.45-3.09,2.95-4.98,2.47c-1.85-0.47-2.74-2.73-2.41-4.6c0.34-1.88,1.55-3.46,2.66-5
		c12.67-17.52,17.31-39.78,17.29-61.4c-0.02-17.24-2.86-34.58-9.5-50.49c-6.64-15.91-17.2-30.33-31.11-40.51
		c-6.98-5.11-15-9.37-19.67-16.64c-0.45-0.69-0.87-1.45-0.87-2.28c0-1.88,1.28-3.07,3.12-2.68S56.57,255.61,53.25,253.64z"/>
	<path class="st0" d="M97.88,529.65c-0.74-0.03-0.91-0.93-0.23-1.2c7.46-2.97,13.39-8.72,18.14-14.82
		c5.41-6.95,9.73-14.62,15.8-21.11c2.19-2.34,4.71-4.58,7.9-5.63c11.63-3.83,22.87,9.69,35.08,7.92
		c9.47-1.38,16.84-11.76,26.72-6.63c2.08,1.08,3.77,2.67,5.14,4.45c10.27,13.3,21.11,28.42,37.05,35.39
		c1.37,0.6,0.95,2.45-0.58,2.48C192.25,531.22,141.87,531.19,97.88,529.65z"/>
	<path class="st0" d="M60.91,529.93c13.2-2.27,30.89-11.42,39.29-19.97c4.76-4.84,9.08-9.99,13.71-14.92
		c5.09-5.41,10.75-10.69,18.09-14c7.34-3.31,16.7-4.37,24.14-1.2c3.86,1.64,7.04,4.32,11.18,5.43c11.57,3.08,22.69-7.34,34.84-6.68
		c10.56,0.58,17.34,8.91,23.71,15.75c15.46,16.57,38.03,28.66,62.32,33.97c4.8,1.05,6.9,5.55,4.32,8.99
		c-15.2,20.26-37.65,37.01-64.34,46.72c-29.82,10.85-64.82,12.59-95.61,3.68c-12.38-3.58-23.97-8.79-34.95-14.64
		c-18.68-9.95-36.67-22.89-42.74-40.3C54.77,532.51,54.33,531.06,60.91,529.93z"/>
	<path class="st0" d="M72.85,536.88c-0.62-0.88,0.12-2.07,1.19-1.95c47.76,5.21,95.97,4.43,144,2.94c18.7-0.58,37.56-1.3,55.36-4.81
		c1.54-0.3,2.63,1.47,1.62,2.68c-8.54,10.26-17.52,20.29-28.55,27.76c-7.36,4.99-15.48,8.73-23.61,12.33
		c-7.93,3.51-15.98,6.93-24.5,8.54c-8.22,1.56-16.66,1.39-25.02,1.13c-15.02-0.47-30.32-1.29-44.36-6.64
		c-5.34-2.04-10.41-4.7-15.35-7.57C97.11,561.68,81.97,549.71,72.85,536.88z"/>
	<path class="st0" d="M249.98,227.11c-11.18,7.03-16.83,18.18-16.77,31.39s8.83,26.47,21.59,29.9c1.69,0.45,4.11,0.31,4.44-1.41
		c0.19-1.04-0.58-1.99-1.33-2.73c-5.06-5.06-11.4-9-15.11-15.12c-5.25-8.68-3.74-20.62,2.79-28.38c6.53-7.77,17.36-11.32,27.42-9.97
		c1.31,0.18,2.66,0.43,3.94,0.1c1.28-0.33,2.48-1.43,2.41-2.75c-0.08-1.36-1.28-2.5-2.58-2.91
		C262.17,220.63,253.02,225.2,249.98,227.11z"/>
	<path class="st0" d="M471.96,488.6l-132.92,0.83c-6.25,0.04-10.95-5.68-9.68-11.8c11.27-54.3,57.34-276.32,57.17-276.33
		c1.29-1.5,1.89-3.78,3.75-4.47c1.71-0.64,3.67,0.57,4.5,2.2c0.83,1.63,0.81,3.55,0.74,5.37c-0.33,9.36-1.31,18.7-2.94,27.93
		c0,0-42.97,205.75-49.39,237.98c-0.53,2.67,0.97,5.39,3.57,6.18c4.77,1.45,10.12,1.24,15.19,0.98c36.3-1.83,72.67-2.3,109-1.4
		c3.32,0.08,7.32,0.6,8.7,3.61c1.65,3.59-2.07,7.58-5.91,8.47C469.91,489.06,465.84,488.17,471.96,488.6z"/>
	<path class="st0" d="M462.42,320.92c-2.86-4.99-2.65-11.08,0.55-15.88c29.81-44.61,82.65-75.04,138.71-80.77
		c59.26-6.06,120.66,15.03,162.88,54.35c6.77,6.3,13.06,13.03,19.31,19.94c7.72,8.53,8.61,20.79,2.2,30.22
		c-33.91,49.87-96.4,82.11-159.9,82.11C559.09,410.88,493.77,375.61,462.42,320.92z"/>
	<path class="st0" d="M496.28,200.65c-10.84-11.38-21.7-22.76-32.61-34.23c-3.3-3.47-3.21-8.96,0.21-12.31l0,0
		c3.44-3.36,8.94-3.33,12.34,0.07l33.34,33.36c3.23,3.24,3.43,8.41,0.46,11.89l-0.75,0.87C505.89,204.24,499.86,204.4,496.28,200.65
		z"/>
	<path class="st0" d="M616.04,163.84c0.38-15.71,0.76-31.44,1.14-47.26c0.12-4.79,4.06-8.61,8.85-8.56l0,0
		c4.81,0.05,8.68,3.97,8.68,8.78l-0.02,47.16c0,4.57-3.52,8.38-8.08,8.73l-1.15,0.09C620.3,173.18,615.91,169.03,616.04,163.84z"/>
	<path class="st0" d="M738.15,187.52c11.38-10.84,22.76-21.7,34.23-32.61c3.47-3.3,8.96-3.21,12.31,0.21v0
		c3.36,3.44,3.33,8.94-0.07,12.34l-33.36,33.34c-3.24,3.23-8.41,3.43-11.89,0.46l-0.87-0.75
		C734.56,197.14,734.4,191.1,738.15,187.52z"/>
	<path class="st0" d="M523.11,266.03c4.74-3.68,11.67-0.62,12.14,5.36c1.57,20.02,9.5,39.54,22.55,54.82
		c16.12,18.88,39.86,31.05,64.6,33.11c6.92,0.58,13.93,0.39,20.74-0.98c22.15-4.45,40.14-21.01,52.7-39.79
		c9.85-14.72,17.09-31.17,21.32-48.36c1.25-5.06,7.04-7.55,11.41-4.7c18.2,11.88,34.1,27.29,46.54,45.12
		c1.8,2.58,1.76,6.06-0.08,8.61c-6.24,8.65-14.58,15.71-22.84,22.56c-11.43,9.48-23.01,18.86-35.67,26.62
		c-38.77,23.74-77.15,40.89-125.63,26.96c-41.68-11.98-86.85-38.95-115.42-71.6c-2.39-2.73-2.59-6.78-0.35-9.64
		C489.49,295.82,505.99,279.34,523.11,266.03z"/>
	<path class="st0" d="M245.46,392.81c-9.73,3.58-19.88,5.98-30.18,7.13c-6.34,0.7-12.86-0.26-18.45-3.34
		c-16.39-9.04-13.45-27.89-10.68-43.65c1.57-8.92,2.81-17.9,3.74-26.91c0.5-4.82,0.88-9.84-0.81-14.38
		c-2.41-6.47-8.48-10.69-13.9-14.96c-33.16-26.11-52.15-69.23-49.02-111.32c2.57-34.55,19.94-68.07,47.72-88.77
		s65.7-27.69,98.55-16.7c11.16,3.73,24.93,13.26,30.28,21.73c2.04,3.23-2.29,6.54-4.85,3.71c-0.49-0.54-0.87-1.18-1.37-1.62
		c-11.91-10.65-16.77-14.27-30.58-18.6c-22.73-7.13-45.35-1.67-65.85,6.22c-13.37,5.14-20.44,8.28-34.01,23.64
		c-15.01,17-30.09,37.8-32.85,63.27c-2.44,22.54-0.18,46.8,10.01,67.06c8.47,16.83,25.06,37.48,39.34,47.71
		c9.35,6.7,11.07,7.66,13.76,18.85c4.26,17.76-4.81,42.33-5.76,60.57c-0.27,5.05,0.27,10.56,3.69,14.29
		c3.81,4.15,10.08,4.88,15.69,4.45c11.49-0.89,22.8-5.48,34.25-5.45C248.26,385.74,249.28,391.41,245.46,392.81z"/>
	<circle class="st0" cx="385.19" cy="452.5" r="8.66"/>
	<circle class="st0" cx="430.36" cy="452.5" r="8.66"/>
	<path class="st0" d="M368.08,561.28c2.77,1.64,6.11,2.37,8.55,4.46c3.78,3.24,4.27,9.07,2.28,13.58s-5.96,7.88-10.1,10.66
		c-4.15,2.77-8.63,5.13-12.37,8.4c-7.02,6.13-10.99,15.44-10.51,24.61s5.41,18.04,13.04,23.44c2.62,1.86,5.72,3.38,9.09,2.62
		c1.69-0.38,3.2-1.48,3.87-3.04c1.67-3.89-2.22-7.34-5.4-9.92c-3.9-3.16-7.58-7.17-8.11-12.08c-0.5-4.61,1.95-9.1,5.19-12.49
		c3.25-3.39,7.28-5.94,10.94-8.9c5.55-4.48,10.31-10.02,13.2-16.45c2.89-6.44,3.81-13.82,1.89-20.59c-0.72-2.53-1.85-4.98-3.63-6.94
		c-3.23-3.53-8.2-5.07-12.56-6.86c-1.75-0.72-3.73-0.95-5.5-0.29C364.41,552.77,365.31,559.63,368.08,561.28z"/>
	<path class="st0" d="M430.18,561.87c2.9,1.74,6.39,2.51,8.94,4.72c3.95,3.43,4.46,9.61,2.38,14.37s-6.23,8.35-10.57,11.29
		c-4.34,2.94-9.02,5.43-12.94,8.89c-7.35,6.49-11.5,16.35-11,26.06c0.5,9.71,5.66,19.1,13.64,24.82c2.75,1.97,5.99,3.58,9.51,2.78
		c1.77-0.4,3.35-1.57,4.05-3.22c1.75-4.12-2.32-7.77-5.65-10.51c-4.08-3.34-7.93-7.59-8.49-12.79c-0.52-4.88,2.04-9.64,5.43-13.23
		c3.4-3.59,7.62-6.29,11.45-9.42c5.81-4.75,10.79-10.61,13.81-17.42c3.02-6.82,3.99-14.63,1.97-21.8c-0.75-2.67-1.93-5.28-3.8-7.35
		c-3.38-3.74-8.58-5.37-13.14-7.26c-1.83-0.76-3.9-1-5.75-0.31C426.34,552.87,427.28,560.13,430.18,561.87z"/>
	<path class="st0" d="M742.43,495.08c4.5-8.62,14.75-24.21,26.1-32.72c4.19-3.14,9.94,1.1,8.11,6.01c-0.91,2.45-2.43,4.79-4.2,6.6
		c-4.52,4.62-10.58,8.15-13.02,14.13c-2.4,5.88-0.58,12.74,2.79,18.12c3.37,5.38,8.14,9.7,12.32,14.48c2.14,2.44,4.2,5.18,4.6,8.4
		c1.44,11.66-17.79,15.66-20.24,27.15c-2.86,13.42,18.69,21.21,18.78,34.93c0.07,10.44-11.52,15.54-19.38,23
		c-2.47,2.34-2.38,6.32,0.07,8.68c6.76,6.53,12.68,13.93,17.55,21.96c2.83,4.65-2.71,9.79-7.12,6.6c-1.08-0.78-2.09-1.65-2.97-2.51
		c-8.6-8.45-16.55-17.55-23.77-27.2c-1.22-1.63-2.47-3.41-2.57-5.44c-0.17-3.31,2.65-5.91,5.12-8.13
		c5.47-4.91,10.4-10.42,14.65-16.41c1.08-1.52,2.16-3.22,2.07-5.08c-0.09-1.91-1.38-3.52-2.62-4.99l-14.16-16.81
		c-1.44-1.71-2.57-3.7-2.98-5.89c-2.24-11.72,15.05-14.01,19.01-23.95c2.32-5.84-0.79-12.46-4.86-17.24
		c-4.07-4.78-9.22-8.77-12.12-14.34S743.01,493.67,742.43,495.08z"/>
	<path class="st0" d="M560.12,745.17c0,0,4.78-220.28,5.99-219.24c6.42-29.73,28.39-38.11,51.97-41.07
		c10.31-1.29,19.89-2.04,29.53,1.49c27.88,10.2,45.89,37.42,46.1,67.11c0.41,56.73,1.51,200.95,2.02,200.87l-5.76,1.09
		c-1.82-4.24-2.89-8.79-3.15-13.39c0,0-1.14-162.37-1.33-195.5c-0.03-4.98-0.7-9.96-2.35-14.66c-5.04-14.33-15.71-26.69-29.33-33.48
		c-16.34-8.15-28.11-6.72-52.82,0.17c-5.4,1.51-9.62,5.77-14.09,9.15c-3.53,2.66-7.75,9.8-10.33,13.4
		c-4.76,6.65-4.42,32.63-4.42,40.81c0,70.56-4,109.9-1.06,175.75c0.11,2.5,0.2,5.1-0.79,7.39s-3.41,4.18-5.87,3.7
		c-2.33-0.45-3.87-2.91-3.99-5.28S560.12,730.01,560.12,745.17z"/>
	<path class="st0" d="M601.29,575.95c-0.95-2.76-2.8-6.11-5.68-5.67c-1.6,0.25-2.8,1.74-3.15,3.32c-0.36,1.58-0.03,3.24,0.39,4.8
		c1.99,7.28,6.25,13.77,11.24,19.43c3.23,3.67,6.85,7.1,11.13,9.46c4.29,2.36,9.31,3.6,14.13,2.75c1.68-0.3,3.6-1.16,3.83-2.84
		c0.31-2.25-2.45-3.51-4.64-4.15c-6.58-1.94-12.86-5.15-17.86-9.84C605.68,588.51,603.36,581.98,601.29,575.95z"/>
	<path class="st0" d="M620.3,559.8c0.31-2.62-0.07-5.27-0.01-7.9c0.06-2.64,0.68-5.44,2.58-7.26c0.79-0.76,1.83-1.32,2.92-1.29
		c1.41,0.04,2.64,1.06,3.32,2.3c0.67,1.24,0.89,2.66,1.06,4.06c1.04,8.34,1.1,16.79,0.17,25.14c-0.17,1.57-0.41,3.2-1.34,4.48
		c-0.55,0.76-1.41,1.37-2.35,1.33c-1.52-0.07-2.41-1.71-2.95-3.13C620.79,569.69,620.11,561.34,620.3,559.8z"/>
	<path class="st0" d="M642.15,522.1c-3.38-0.75-6.76-1.51-10.15-2.26c-1.24-0.28-2.57-0.6-3.41-1.55c-1.65-1.86-0.27-5.08,2-6.1
		c2.27-1.02,4.91-0.49,7.31,0.19c8.06,2.29,16.24,6.69,19.61,14.36c1.53,3.47,1.93,7.32,2.2,11.11c0.45,6.4,0.55,12.82,0.66,19.24
		c0.09,5.29,0.17,10.66-1.21,15.77c-0.33,1.23-0.77,2.49-1.68,3.39c-0.91,0.9-2.39,1.33-3.5,0.68c-1.35-0.79-1.5-2.65-1.5-4.21
		c0.03-9.06,0.05-18.12,0.08-27.18c0.01-5.14,0-10.43-1.94-15.19C648.68,525.58,645.89,523.87,642.15,522.1z"/>
</g>
</svg>
