<?xml version="1.0" encoding="utf-8"?>
<!-- Generator: Adobe Adobe Illustrator 24.2.0, SVG Export Plug-In . SVG Version: 6.00 Build 0)  -->
<svg version="1.1" id="Layer_1" xmlns="http://www.w3.org/2000/svg" xmlns:xlink="http://www.w3.org/1999/xlink" x="0px" y="0px"
	 width="800px" height="800px" viewBox="0 0 800 800" style="enable-background:new 0 0 800 800;" xml:space="preserve">
<style type="text/css">
	.st0{fill:none;stroke:#851F82;stroke-width:3;stroke-miterlimit:10;}
	.st1{fill:none;stroke:#851F82;stroke-miterlimit:10;}
	.st2{fill:none;stroke:#F29200;stroke-width:3;stroke-miterlimit:10;}
	.st3{fill:none;stroke:#F29200;stroke-miterlimit:10;}
	.st4{fill:url(#SVGID_1_);stroke:#FFFFFF;stroke-miterlimit:10;}
	.st5{fill:url(#SVGID_2_);stroke:#FFFFFF;stroke-miterlimit:10;}
	.st6{fill:url(#SVGID_3_);stroke:#FFFFFF;stroke-miterlimit:10;}
	.st7{fill:url(#SVGID_4_);stroke:#FFFFFF;stroke-miterlimit:10;}
	.st8{fill:url(#SVGID_5_);stroke:#FFFFFF;stroke-miterlimit:10;}
	.st9{fill:url(#SVGID_6_);stroke:#FFFFFF;stroke-miterlimit:10;}
	.st10{fill:url(#SVGID_7_);stroke:#FFFFFF;stroke-miterlimit:10;}
	.st11{fill:url(#SVGID_8_);stroke:#FFFFFF;stroke-miterlimit:10;}
	.st12{fill:url(#SVGID_9_);stroke:#FFFFFF;stroke-miterlimit:10;}
	.st13{fill:url(#SVGID_10_);stroke:#FFFFFF;stroke-miterlimit:10;}
	.st14{fill:url(#SVGID_11_);stroke:#FFFFFF;stroke-miterlimit:10;}
	.st15{fill:url(#SVGID_12_);stroke:#FFFFFF;stroke-miterlimit:10;}
	.st16{fill:url(#SVGID_13_);stroke:#FFFFFF;stroke-miterlimit:10;}
	.st17{fill:url(#SVGID_14_);stroke:#FFFFFF;stroke-miterlimit:10;}
	.st18{fill:url(#SVGID_15_);stroke:#FFFFFF;stroke-miterlimit:10;}
	.st19{fill:url(#SVGID_16_);stroke:#FFFFFF;stroke-miterlimit:10;}
	.st20{fill:url(#SVGID_17_);stroke:#FFFFFF;stroke-miterlimit:10;}
	.st21{fill:url(#SVGID_18_);stroke:#FFFFFF;stroke-miterlimit:10;}
	.st22{fill:#851F82;stroke:#FFFFFF;stroke-miterlimit:10;}
	.st23{fill:#F29200;stroke:#FFFFFF;stroke-miterlimit:10;}
	.st24{fill:#C91456;stroke:#FFFFFF;stroke-miterlimit:10;}
	.st25{fill:#EC6F05;stroke:#FFFFFF;stroke-miterlimit:10;}
	.st26{fill:#F7A600;stroke:#FFFFFF;stroke-miterlimit:10;}
	.st27{fill:#E6E6E6;}
	.st28{fill:#851F82;}
	.st29{fill:#F29200;}
	.st30{fill:#E2071E;}
	.st31{fill:#E6E6E6;stroke:#F29200;stroke-width:3;stroke-miterlimit:10;}
</style>
<path class="st0" d="M400,1.04c-214.24,0-387.92,179.09-387.92,400s173.68,400,387.92,400s387.92-179.09,387.92-400
	S614.24,1.04,400,1.04z M400.74,790.56c-208.22,0-377.01-174.05-377.01-388.75S192.52,13.06,400.74,13.06
	s377.01,174.05,377.01,388.75S608.96,790.56,400.74,790.56z"/>
<g>
	<g>
		<g>
			<path class="st0" d="M647.25,252.9V598c0,15.65-12.69,28.34-28.34,28.34H375.05c-15.65,0-28.34-12.69-28.34-28.34V252.9
				c0-15.65,12.69-28.34,28.34-28.34h64.71c2.52,7.17,9.35,12.3,17.39,12.3h79.66c8.03,0,14.86-5.13,17.38-12.3h64.71
				C634.56,224.55,647.25,237.24,647.25,252.9z"/>
			<path class="st0" d="M660.63,235.01v380.88c0,15.65-12.69,28.34-28.34,28.34H361.67c-15.65,0-28.34-12.69-28.34-28.34V235.01
				c0-15.65,12.69-28.34,28.34-28.34h78.36c-0.84,2.11-1.31,4.42-1.31,6.84v4.93c0,2.15,0.37,4.21,1.04,6.12
				c2.52,7.17,9.35,12.3,17.39,12.3h79.66c8.03,0,14.86-5.13,17.38-12.3c0.68-1.91,1.04-3.98,1.04-6.12v-4.93
				c0-2.42-0.47-4.73-1.31-6.84h78.36C647.94,206.67,660.63,219.36,660.63,235.01z"/>
		</g>
	</g>
</g>
<path class="st0" d="M555.24,213.5v4.93c0,2.15-0.37,4.21-1.04,6.12c-2.52,7.17-9.35,12.3-17.38,12.3h-79.66
	c-8.04,0-14.87-5.13-17.39-12.3c-0.68-1.91-1.04-3.98-1.04-6.12v-4.93c0-2.42,0.47-4.73,1.31-6.84c2.72-6.8,9.36-11.6,17.12-11.6
	h79.66c7.75,0,14.4,4.8,17.12,11.6C554.78,208.78,555.24,211.08,555.24,213.5z"/>
<path class="st0" d="M376.93,334.1v-28.19c0-9.28,7.52-16.8,16.8-16.8h28.19c9.28,0,16.8,7.52,16.8,16.8v28.19
	c0,9.28-7.52,16.8-16.8,16.8h-28.19C384.45,350.9,376.93,343.38,376.93,334.1z"/>
<path class="st0" d="M376.93,439.54v-28.19c0-9.28,7.52-16.8,16.8-16.8h28.19c9.28,0,16.8,7.52,16.8,16.8v28.19
	c0,9.28-7.52,16.8-16.8,16.8h-28.19C384.45,456.34,376.93,448.82,376.93,439.54z"/>
<path class="st0" d="M376.93,548.03v-28.19c0-9.28,7.52-16.8,16.8-16.8h28.19c9.28,0,16.8,7.52,16.8,16.8v28.19
	c0,9.28-7.52,16.8-16.8,16.8h-28.19C384.45,564.83,376.93,557.31,376.93,548.03z"/>
<path class="st0" d="M456.43,300.35v-0.79c0-1.34,1.08-2.42,2.42-2.42h139c1.34,0,2.42,1.08,2.42,2.42v0.79
	c0,1.34-1.08,2.42-2.42,2.42h-139C457.51,302.77,456.43,301.69,456.43,300.35z"/>
<path class="st0" d="M456.43,316.42v-0.79c0-1.34,1.08-2.42,2.42-2.42h139c1.34,0,2.42,1.08,2.42,2.42v0.79
	c0,1.34-1.08,2.42-2.42,2.42h-139C457.51,318.84,456.43,317.76,456.43,316.42z"/>
<path class="st0" d="M456.43,407.55v-0.79c0-1.34,1.08-2.42,2.42-2.42h139c1.34,0,2.42,1.08,2.42,2.42v0.79
	c0,1.34-1.08,2.42-2.42,2.42h-139C457.51,409.96,456.43,408.88,456.43,407.55z"/>
<path class="st0" d="M456.43,423.62v-0.79c0-1.34,1.08-2.42,2.42-2.42h139c1.34,0,2.42,1.08,2.42,2.42v0.79
	c0,1.34-1.08,2.42-2.42,2.42h-139C457.51,426.04,456.43,424.95,456.43,423.62z"/>
<path class="st0" d="M456.43,515.44v-0.79c0-1.34,1.08-2.42,2.42-2.42h139c1.34,0,2.42,1.08,2.42,2.42v0.79
	c0,1.34-1.08,2.42-2.42,2.42h-139C457.51,517.86,456.43,516.78,456.43,515.44z"/>
<path class="st0" d="M456.43,531.51v-0.79c0-1.34,1.08-2.42,2.42-2.42h139c1.34,0,2.42,1.08,2.42,2.42v0.79
	c0,1.34-1.08,2.42-2.42,2.42h-139C457.51,533.93,456.43,532.85,456.43,531.51z"/>
<g>
	<g>
		<path class="st0" d="M313.36,259.99c4.21,0,7.61-3.41,7.61-7.61v-2.48c0-4.21-3.41-7.61-7.61-7.61H149.91h-2.59h-0.33
			c-4.21,0-7.61,3.41-7.61,7.61v0.33v2.15v170.41v2.13v0.36c0,4.21,3.41,7.61,7.61,7.61h166.38c4.21,0,7.61-3.41,7.61-7.61v-2.48
			c0-4.21-3.41-7.61-7.61-7.61H157.85V259.99H313.36z"/>
	</g>
</g>
<path class="st0" d="M221.75,482.86v-16.28c0-9.71,7.87-17.58,17.58-17.58h64.48c9.71,0,17.58,7.87,17.58,17.58v16.28
	c0,9.71-7.87,17.58-17.58,17.58h-64.48C229.62,500.44,221.75,492.57,221.75,482.86z"/>
<path class="st0" d="M157.45,523.14v-1.68c0-2.85,2.31-5.16,5.16-5.16h153.6c2.85,0,5.16,2.31,5.16,5.16v1.68
	c0,2.85-2.31,5.16-5.16,5.16h-153.6C159.76,528.31,157.45,526,157.45,523.14z"/>
<path class="st0" d="M312.15,316.7v75.79c0,6.51-5.28,11.8-11.8,11.8H178.5c-6.51,0-11.8-5.28-11.8-11.8V324.8
	c0-2.79-0.18-7.64,0.46-9.31c7.8-20.34,18.3-26.39,35.23-26.39c16.92,0,31.1,11.78,34.77,27.6c0.35,1.52,0.61,3.08,0.76,4.66
	c0.11,1.13,0.17,2.28,0.17,3.44c0,4.47-0.82,8.75-2.32,12.7c-2.4,6.3-2.66,13.29-0.05,19.51c5.95,14.18,19.76,24.12,35.86,24.12
	c21.52,0,26.92-19.39,26.92-41.32c0-5.94-4.48-10.05-0.37-17.45C301.58,316.16,308,316.7,312.15,316.7L312.15,316.7z"/>
</svg>
