<?xml version="1.0" encoding="utf-8"?>
<!-- Generator: Adobe Adobe Illustrator 24.2.0, SVG Export Plug-In . SVG Version: 6.00 Build 0)  -->
<svg version="1.1" id="Layer_1" xmlns="http://www.w3.org/2000/svg" xmlns:xlink="http://www.w3.org/1999/xlink" x="0px" y="0px"
	 width="800px" height="800px" viewBox="0 0 800 800" style="enable-background:new 0 0 800 800;" xml:space="preserve">
<style type="text/css">
	.st0{fill:none;stroke:#851F82;stroke-width:3;stroke-miterlimit:10;}
	.st1{fill:none;stroke:#851F82;stroke-miterlimit:10;}
	.st2{fill:none;stroke:#F29200;stroke-width:3;stroke-miterlimit:10;}
	.st3{fill:none;stroke:#F29200;stroke-miterlimit:10;}
	.st4{fill:url(#SVGID_1_);stroke:#FFFFFF;stroke-miterlimit:10;}
	.st5{fill:url(#SVGID_2_);stroke:#FFFFFF;stroke-miterlimit:10;}
	.st6{fill:url(#SVGID_3_);stroke:#FFFFFF;stroke-miterlimit:10;}
	.st7{fill:url(#SVGID_4_);stroke:#FFFFFF;stroke-miterlimit:10;}
	.st8{fill:url(#SVGID_5_);stroke:#FFFFFF;stroke-miterlimit:10;}
	.st9{fill:url(#SVGID_6_);stroke:#FFFFFF;stroke-miterlimit:10;}
	.st10{fill:url(#SVGID_7_);stroke:#FFFFFF;stroke-miterlimit:10;}
	.st11{fill:url(#SVGID_8_);stroke:#FFFFFF;stroke-miterlimit:10;}
	.st12{fill:url(#SVGID_9_);stroke:#FFFFFF;stroke-miterlimit:10;}
	.st13{fill:url(#SVGID_10_);stroke:#FFFFFF;stroke-miterlimit:10;}
	.st14{fill:url(#SVGID_11_);stroke:#FFFFFF;stroke-miterlimit:10;}
	.st15{fill:url(#SVGID_12_);stroke:#FFFFFF;stroke-miterlimit:10;}
	.st16{fill:url(#SVGID_13_);stroke:#FFFFFF;stroke-miterlimit:10;}
	.st17{fill:url(#SVGID_14_);stroke:#FFFFFF;stroke-miterlimit:10;}
	.st18{fill:url(#SVGID_15_);stroke:#FFFFFF;stroke-miterlimit:10;}
	.st19{fill:url(#SVGID_16_);stroke:#FFFFFF;stroke-miterlimit:10;}
	.st20{fill:url(#SVGID_17_);stroke:#FFFFFF;stroke-miterlimit:10;}
	.st21{fill:url(#SVGID_18_);stroke:#FFFFFF;stroke-miterlimit:10;}
	.st22{fill:#851F82;stroke:#FFFFFF;stroke-miterlimit:10;}
	.st23{fill:#F29200;stroke:#FFFFFF;stroke-miterlimit:10;}
	.st24{fill:#C91456;stroke:#FFFFFF;stroke-miterlimit:10;}
	.st25{fill:#EC6F05;stroke:#FFFFFF;stroke-miterlimit:10;}
	.st26{fill:#F7A600;stroke:#FFFFFF;stroke-miterlimit:10;}
	.st27{fill:#E6E6E6;}
	.st28{fill:#851F82;}
	.st29{fill:#F29200;}
	.st30{fill:#E2071E;}
	.st31{fill:#E6E6E6;stroke:#F29200;stroke-width:3;stroke-miterlimit:10;}
</style>
<path class="st0" d="M400,0.76c-214.24,0-387.92,179.09-387.92,400s173.68,400,387.92,400s387.92-179.09,387.92-400
	S614.24,0.76,400,0.76z M400.74,790.28c-208.22,0-377.01-174.05-377.01-388.75S192.52,12.78,400.74,12.78
	s377.01,174.05,377.01,388.75S608.96,790.28,400.74,790.28z"/>
<path class="st0" d="M292.44,221.98c0-2.31,1.87-4.18,4.18-4.18h82.26c2.31,0,4.18,1.87,4.18,4.18c0,1.15-0.47,2.19-1.22,2.96
	c-0.75,0.75-1.8,1.22-2.96,1.22h-82.26C294.31,226.16,292.44,224.28,292.44,221.98z"/>
<path class="st0" d="M541.55,409.86h-248c-2.5,0-4.52-2.03-4.52-4.52c0-2.5,2.03-4.52,4.52-4.52h248c2.5,0,4.52,2.03,4.52,4.52
	c0,1.25-0.5,2.38-1.33,3.2C543.94,409.36,542.81,409.86,541.55,409.86z"/>
<path class="st0" d="M289.03,363.2c0-2.5,2.03-4.52,4.52-4.52h248c2.5,0,4.52,2.03,4.52,4.52c0,1.25-0.5,2.38-1.33,3.2
	c-0.82,0.83-1.94,1.33-3.2,1.33h-248C291.06,367.72,289.03,365.69,289.03,363.2z"/>
<path class="st0" d="M289.03,321.06c0-2.5,2.03-4.52,4.52-4.52h248c2.5,0,4.52,2.03,4.52,4.52c0,1.25-0.5,2.38-1.33,3.2
	c-0.82,0.83-1.94,1.33-3.2,1.33h-248C291.06,325.58,289.03,323.55,289.03,321.06z"/>
<path class="st0" d="M559.14,573.39c0,13.16-4.46,25.28-11.95,34.92c-9.49,12.19-23.82,20.44-40.11,21.82l13.77,31.91h-28.3
	l9.36-31.7c-31.33-0.16-56.67-25.59-56.67-56.95c0-31.45,25.5-56.95,56.95-56.95C533.64,516.44,559.14,541.94,559.14,573.39z"/>
<path class="st0" d="M276.75,183.47v0.11c-11.88,1.16-21.16,11.18-21.16,23.36v118.63h-42.33c-3.02,0-5.48-2.46-5.48-5.48V204.54
	c0-11.63,9.43-21.07,21.05-21.07H276.75z"/>
<path class="st0" d="M383.05,221.98c0,1.15-0.47,2.19-1.22,2.96c-0.75,0.75-1.8,1.22-2.96,1.22h-82.26c-2.31,0-4.18-1.88-4.18-4.18
	c0-2.31,1.87-4.18,4.18-4.18h82.26C381.18,217.8,383.05,219.67,383.05,221.98z"/>
<path class="st0" d="M546.08,321.06c0,1.25-0.5,2.38-1.33,3.2c-0.82,0.83-1.94,1.33-3.2,1.33h-248c-2.5,0-4.52-2.03-4.52-4.52
	s2.03-4.52,4.52-4.52h248C544.05,316.53,546.08,318.56,546.08,321.06z"/>
<path class="st0" d="M546.08,363.2c0,1.25-0.5,2.38-1.33,3.2c-0.82,0.83-1.94,1.33-3.2,1.33h-248c-2.5,0-4.52-2.03-4.52-4.52
	c0-2.5,2.03-4.52,4.52-4.52h248C544.05,358.67,546.08,360.7,546.08,363.2z"/>
<path class="st0" d="M546.08,405.34c0,1.25-0.5,2.38-1.33,3.2c-0.82,0.83-1.94,1.33-3.2,1.33h-248c-2.5,0-4.52-2.03-4.52-4.52
	c0-2.5,2.03-4.52,4.52-4.52h248C544.05,400.81,546.08,402.84,546.08,405.34z"/>
<path class="st0" d="M559.14,573.39c0,13.16-4.46,25.28-11.95,34.92c-9.49,12.19-23.82,20.44-40.11,21.82
	c-1.61,0.14-3.24,0.21-4.88,0.21h-0.28c-31.33-0.16-56.67-25.59-56.67-56.95c0-31.45,25.5-56.95,56.95-56.95
	C533.64,516.44,559.14,541.94,559.14,573.39z"/>
<line class="st0" x1="547.19" y1="608.31" x2="546.9" y2="607.73"/>
<path class="st0" d="M592.21,702.06l-41.88-34.9l-12.8,33.54l-16.69-38.66l-13.77-31.91c16.29-1.38,30.63-9.62,40.11-21.82
	l23.39,48.68L592.21,702.06z"/>
<line class="st1" x1="507.07" y1="630.13" x2="506.83" y2="629.56"/>
<path class="st0" d="M556.04,183.47H279.07c-0.78,0-1.56,0.04-2.32,0.11c-11.88,1.16-21.16,11.18-21.16,23.36v431.61
	c0,12.97,10.51,23.48,23.48,23.48h163.89l-16.82,49.55l37.38-39.68l16.75,31.75l12.28-41.63l9.36-31.7
	c-31.33-0.16-56.67-25.59-56.67-56.95c0-31.45,25.5-56.95,56.95-56.95c31.45,0,56.95,25.5,56.95,56.95
	c0,13.16-4.46,25.28-11.95,34.92l23.39,48.68c5.44-4.29,8.94-10.95,8.94-18.43V206.95C579.52,193.98,569,183.47,556.04,183.47z
	 M296.62,217.8h82.26c2.31,0,4.18,1.87,4.18,4.18c0,1.15-0.47,2.19-1.22,2.96c-0.75,0.75-1.8,1.22-2.96,1.22h-82.26
	c-2.31,0-4.18-1.88-4.18-4.18C292.44,219.67,294.31,217.8,296.62,217.8z M544.75,408.54c-0.82,0.83-1.94,1.33-3.2,1.33h-248
	c-2.5,0-4.52-2.03-4.52-4.52c0-2.5,2.03-4.52,4.52-4.52h248c2.5,0,4.52,2.03,4.52,4.52C546.08,406.59,545.58,407.72,544.75,408.54z
	 M544.75,366.39c-0.82,0.83-1.94,1.33-3.2,1.33h-248c-2.5,0-4.52-2.03-4.52-4.52c0-2.5,2.03-4.52,4.52-4.52h248
	c2.5,0,4.52,2.03,4.52,4.52C546.08,364.45,545.58,365.58,544.75,366.39z M544.75,324.25c-0.82,0.83-1.94,1.33-3.2,1.33h-248
	c-2.5,0-4.52-2.03-4.52-4.52s2.03-4.52,4.52-4.52h248c2.5,0,4.52,2.03,4.52,4.52C546.08,322.31,545.58,323.44,544.75,324.25z"/>
<line class="st0" x1="459.78" y1="612.49" x2="442.97" y2="662.04"/>
<line class="st1" x1="502.19" y1="629.37" x2="501.91" y2="630.34"/>
</svg>
