<?xml version="1.0" encoding="utf-8"?>
<!-- Generator: Adobe Adobe Illustrator 24.2.0, SVG Export Plug-In . SVG Version: 6.00 Build 0)  -->
<svg version="1.1" id="Layer_1" xmlns="http://www.w3.org/2000/svg" xmlns:xlink="http://www.w3.org/1999/xlink" x="0px" y="0px"
	 width="800px" height="800px" viewBox="0 0 800 800" style="enable-background:new 0 0 800 800;" xml:space="preserve">
<style type="text/css">
	.st0{fill:#851F82;}
	.st1{fill:none;stroke:#851F82;stroke-width:3;stroke-miterlimit:10;}
	.st2{fill:none;stroke:#F29200;stroke-width:3;stroke-miterlimit:10;}
	.st3{fill:#F29200;}
</style>
<path class="st1" d="M2.94,484.1v-8.82c0-1.1,0.9-2,2-2h280.03c1.1,0,2,0.9,2,2v8.82c0,1.1-0.9,2-2,2H4.94
	C3.83,486.1,2.94,485.2,2.94,484.1z"/>
<path class="st1" d="M36.59,553v-8.82c0-1.1,0.9-2,2-2h280.03c1.1,0,2,0.9,2,2V553c0,1.1-0.9,2-2,2H38.59
	C37.48,555,36.59,554.1,36.59,553z"/>
<path class="st1" d="M75.04,638.73v-8.82c0-1.1,0.9-2,2-2h280.03c1.1,0,2,0.9,2,2v8.82c0,1.1-0.9,2-2,2H77.04
	C75.94,640.73,75.04,639.83,75.04,638.73z"/>
<path class="st1" d="M482.87,280.17c-41.72,7.73-81.27,20.14-121.41,33.91c-2.15,0.74-4.41,1.56-5.83,3.34
	c-1.42,1.77-1.5,4.81,0.42,6.02c1.33,0.84,3.05,0.53,4.59,0.19c42.99-9.45,85.71-20.12,128.09-32.01
	C486.48,288.26,484.94,283.24,482.87,280.17z"/>
<path class="st1" d="M503.98,323.97c-41.72,7.73-81.27,20.14-121.41,33.91c-2.15,0.74-4.41,1.56-5.83,3.34
	c-1.42,1.77-1.5,4.81,0.42,6.02c1.33,0.84,3.05,0.53,4.59,0.19c42.99-9.45,85.71-20.12,128.09-32.01
	C507.59,332.06,506.05,327.05,503.98,323.97z"/>
<path class="st1" d="M531.23,367.77c-41.72,7.73-81.27,20.14-121.41,33.91c-2.15,0.74-4.41,1.56-5.83,3.34
	c-1.42,1.77-1.5,4.81,0.42,6.02c1.33,0.84,3.05,0.53,4.59,0.19c42.99-9.45,85.71-20.12,128.09-32.01
	C534.83,375.86,533.29,370.85,531.23,367.77z"/>
<path class="st1" d="M174.66,59.35c7.17,24.71,14.34,49.42,21.5,74.13c1.97,6.79,4,13.71,7.97,19.56
	c3.55,5.23,8.47,9.34,13.38,13.32c26.31,21.33,54.09,40.86,83.07,58.41c6.36,3.85,13.09,7.71,20.51,8.24
	c6.94,0.49,13.71-1.98,20.22-4.42c29.36-10.98,58.73-21.97,88.09-32.95"/>
<path class="st1" d="M183.77,59.8c21.85,4.5,32.08,28.91,41.1,49.3c11.08,25.03,25.96,49.16,47.73,65.76s51.36,24.65,77.27,15.79
	c15.28-5.23,29.25-16.05,45.4-15.78c21.47,0.37,37.15,19.8,48.72,37.89c46.9,73.32,80.46,155.21,132.08,221.32
	c20.23,26.69,57.72,32.89,91.19,31.78c33.47-1.11,67.86-7.31,99.84,2.61c13.98,4.34,28.19,13.16,31.94,27.3
	c5.41,20.4-12.87,38.83-29.77,51.46c-65.67,49.05-145.15,89.24-226.61,79.13c-37.81-20.63-69.45-50.72-100.6-80.47
	c-26.61-25.41-53.23-50.82-79.84-76.23c-22.8-21.77-45.73-43.64-71.72-61.48c-56.75-38.94-124.9-56.63-189.04-81.62
	c-25.12-9.79-50.96-21.7-66.87-43.47c-24.8-33.94-18.02-82.4,1.68-119.54c16.66-31.4,41.44-58.16,70.18-79.08
	C133.87,64.53,168.54,56.67,183.77,59.8z"/>
<path class="st1" d="M25.02,265.53c9.91,38.47,38.86,74.76,73.84,93.58c39.78,21.41,87.87,23.37,127.4,45.23
	c12.98,7.18,24.73,16.35,36.39,25.52c54.6,42.93,108.52,86.72,161.74,131.35c36.73,30.8,76.69,63.51,124.52,66.7"/>
</svg>
