<?xml version="1.0" encoding="utf-8"?>
<!-- Generator: Adobe Adobe Illustrator 24.2.0, SVG Export Plug-In . SVG Version: 6.00 Build 0)  -->
<svg version="1.1" id="Layer_1" xmlns="http://www.w3.org/2000/svg" xmlns:xlink="http://www.w3.org/1999/xlink" x="0px" y="0px"
	 width="800px" height="800px" viewBox="0 0 800 800" style="enable-background:new 0 0 800 800;" xml:space="preserve">
<style type="text/css">
	.st0{fill:none;stroke:#851F82;stroke-width:3;stroke-miterlimit:10;}
	.st1{fill:none;stroke:#851F82;stroke-miterlimit:10;}
	.st2{fill:none;stroke:#F29200;stroke-width:3;stroke-miterlimit:10;}
	.st3{fill:none;stroke:#F29200;stroke-miterlimit:10;}
	.st4{fill:url(#SVGID_1_);stroke:#FFFFFF;stroke-miterlimit:10;}
	.st5{fill:url(#SVGID_2_);stroke:#FFFFFF;stroke-miterlimit:10;}
	.st6{fill:url(#SVGID_3_);stroke:#FFFFFF;stroke-miterlimit:10;}
	.st7{fill:url(#SVGID_4_);stroke:#FFFFFF;stroke-miterlimit:10;}
	.st8{fill:url(#SVGID_5_);stroke:#FFFFFF;stroke-miterlimit:10;}
	.st9{fill:url(#SVGID_6_);stroke:#FFFFFF;stroke-miterlimit:10;}
	.st10{fill:url(#SVGID_7_);stroke:#FFFFFF;stroke-miterlimit:10;}
	.st11{fill:url(#SVGID_8_);stroke:#FFFFFF;stroke-miterlimit:10;}
	.st12{fill:url(#SVGID_9_);stroke:#FFFFFF;stroke-miterlimit:10;}
	.st13{fill:url(#SVGID_10_);stroke:#FFFFFF;stroke-miterlimit:10;}
	.st14{fill:url(#SVGID_11_);stroke:#FFFFFF;stroke-miterlimit:10;}
	.st15{fill:url(#SVGID_12_);stroke:#FFFFFF;stroke-miterlimit:10;}
	.st16{fill:url(#SVGID_13_);stroke:#FFFFFF;stroke-miterlimit:10;}
	.st17{fill:url(#SVGID_14_);stroke:#FFFFFF;stroke-miterlimit:10;}
	.st18{fill:url(#SVGID_15_);stroke:#FFFFFF;stroke-miterlimit:10;}
	.st19{fill:url(#SVGID_16_);stroke:#FFFFFF;stroke-miterlimit:10;}
	.st20{fill:url(#SVGID_17_);stroke:#FFFFFF;stroke-miterlimit:10;}
	.st21{fill:url(#SVGID_18_);stroke:#FFFFFF;stroke-miterlimit:10;}
	.st22{fill:#851F82;stroke:#FFFFFF;stroke-miterlimit:10;}
	.st23{fill:#F29200;stroke:#FFFFFF;stroke-miterlimit:10;}
	.st24{fill:#C91456;stroke:#FFFFFF;stroke-miterlimit:10;}
	.st25{fill:#EC6F05;stroke:#FFFFFF;stroke-miterlimit:10;}
	.st26{fill:#F7A600;stroke:#FFFFFF;stroke-miterlimit:10;}
	.st27{fill:#E6E6E6;}
	.st28{fill:#851F82;}
	.st29{fill:#F29200;}
	.st30{fill:#E2071E;}
	.st31{fill:#E6E6E6;stroke:#F29200;stroke-width:3;stroke-miterlimit:10;}
</style>
<path class="st0" d="M400,0C185.76,0,12.08,179.09,12.08,400S185.76,800,400,800s387.92-179.09,387.92-400S614.24,0,400,0z
	 M400.74,789.52c-208.22,0-377.01-174.05-377.01-388.75S192.52,12.02,400.74,12.02s377.01,174.05,377.01,388.75
	S608.96,789.52,400.74,789.52z"/>
<path class="st0" d="M481.2,233.34c0,12.78-10.36,23.15-23.15,23.15c-12.79,0-23.15-10.37-23.15-23.15
	c0-12.79,10.36-23.16,23.15-23.16C470.84,210.18,481.2,220.55,481.2,233.34z"/>
<path class="st0" d="M481.2,233.34c0,12.78-10.36,23.15-23.15,23.15c-12.79,0-23.15-10.37-23.15-23.15
	c0-12.79,10.36-23.16,23.15-23.16C470.84,210.18,481.2,220.55,481.2,233.34z"/>
<path class="st0" d="M571.1,158.6c0,7.04-5.7,12.74-12.73,12.74c-7.04,0-12.74-5.7-12.74-12.74s5.7-12.73,12.74-12.73
	C565.4,145.88,571.1,151.57,571.1,158.6z"/>
<path class="st0" d="M571.1,158.6c0,7.04-5.7,12.74-12.73,12.74c-7.04,0-12.74-5.7-12.74-12.74s5.7-12.73,12.74-12.73
	C565.4,145.88,571.1,151.57,571.1,158.6z"/>
<path class="st0" d="M426.13,320.62c0,7.04-5.7,12.74-12.73,12.74c-7.04,0-12.74-5.7-12.74-12.74c0-7.04,5.7-12.73,12.74-12.73
	C420.43,307.89,426.13,313.59,426.13,320.62z"/>
<path class="st0" d="M426.13,320.62c0,7.04-5.7,12.74-12.73,12.74c-7.04,0-12.74-5.7-12.74-12.74c0-7.04,5.7-12.73,12.74-12.73
	C420.43,307.89,426.13,313.59,426.13,320.62z"/>
<path class="st0" d="M531.08,267.81c-2.17,0-4.27,0.35-6.22,1.01l-11.21-8.58l-12.35,14.56l10.24,8.29l0.38,0.99
	c-0.76,2.1-0.64,1.16-0.64,3.52c0,10.94,8.87,19.8,19.8,19.8s19.79-8.87,19.79-19.8C550.88,276.67,542.02,267.81,531.08,267.81z
	 M531.08,296.84c-5.11,0-9.24-4.14-9.24-9.24c0-5.1,4.14-9.23,9.24-9.23c5.1,0,9.24,4.14,9.24,9.23
	C540.33,292.71,536.18,296.84,531.08,296.84z"/>
<path class="st0" d="M540.33,287.6c0,5.11-4.15,9.24-9.24,9.24c-5.11,0-9.24-4.14-9.24-9.24c0-5.1,4.14-9.23,9.24-9.23
	C536.18,278.37,540.33,282.5,540.33,287.6z"/>
<path class="st0" d="M540.33,287.6c0,5.11-4.15,9.24-9.24,9.24c-5.11,0-9.24-4.14-9.24-9.24c0-5.1,4.14-9.23,9.24-9.23
	C536.18,278.37,540.33,282.5,540.33,287.6z"/>
<path class="st0" d="M556.74,131.36c-13.09,0.76-23.98,11.01-25.47,24.04c-0.63,5.53,0.4,10.78,2.65,15.31l-48.86,33.14
	c-7.12-6.52-16.6-10.5-27.01-10.5c-4.82,0-8.38,0.85-12.65,2.42l-0.55-0.37l-9.26-10.81l-14.11,11.03l6.92,10.9
	c-5.64,6.23-9.34,14.24-10.16,23.08l-58.15,10.03h-0.01c-3.96-4.26-9.8-6.77-16.22-6.21c-9.29,0.8-16.91,8.22-17.92,17.49
	c-1.3,11.93,8.01,22.03,19.68,22.03c9.7,0,17.77-6.98,19.46-16.2l55.63-9.58l0.31,1.3c2.75,6.76,8.12,13.11,13.88,17.43v0.53
	l-17.98,27.15c-2.14-0.3-4.32-0.3-6.67-0.08c-9.91,0.94-18.65,7.29-22.16,16.6c-7.34,19.47,6.84,37.82,25.32,37.82
	c15.06,0,27.28-12.22,27.28-27.29c0-6.16-2.04-11.84-5.48-16.42l16.85-31.33c1.74,0.27,3.53,0.41,5.34,0.44
	c21.42,0.34,40.65-16.35,41.67-37.76c0.28-5.82-0.16-9.53-2.14-14.6l-0.03-0.2l52.07-36.54c2.93,1.08,6.11,1.66,9.41,1.66
	c15.06,0,27.28-12.22,27.28-27.29C585.65,142.99,572.54,130.44,556.74,131.36z M345.61,262.38c-4.93,0-8.95-3.85-9.23-8.71
	c-0.29-5.1,3.82-9.61,8.92-9.77c5.23-0.17,9.55,4.03,9.55,9.24C354.86,258.24,350.71,262.38,345.61,262.38z M413.41,333.36
	c-7.19,0-12.99-5.96-12.73-13.2c0.23-6.55,5.64-11.98,12.19-12.25c7.27-0.3,13.27,5.5,13.27,12.72
	C426.13,327.66,420.43,333.36,413.41,333.36z M458.05,256.5c-13.3,0-23.97-11.21-23.1-24.69c0.74-11.53,10.14-20.89,21.67-21.58
	c13.44-0.81,24.59,9.85,24.59,23.12C481.2,246.13,470.84,256.5,458.05,256.5z M558.37,171.34c-7.19,0-12.99-5.96-12.73-13.2
	c0.23-6.55,5.64-11.98,12.19-12.25c7.27-0.3,13.27,5.5,13.27,12.72C571.1,165.64,565.4,171.34,558.37,171.34z"/>
<path class="st0" d="M354.86,253.14c0,5.11-4.15,9.24-9.24,9.24c-5.11,0-9.24-4.14-9.24-9.24s4.14-9.24,9.24-9.24
	C350.71,243.9,354.86,248.03,354.86,253.14z"/>
<path class="st0" d="M354.86,253.14c0,5.11-4.15,9.24-9.24,9.24c-5.11,0-9.24-4.14-9.24-9.24s4.14-9.24,9.24-9.24
	C350.71,243.9,354.86,248.03,354.86,253.14z"/>
<circle class="st0" cx="380.89" cy="126.07" r="23.45"/>
<circle class="st0" cx="380.89" cy="126.07" r="9.24"/>
<path class="st0" d="M335.05,155.8c-1.3-2.24-9.05-3.16-11.51-2.34c-18.34,6.15-60.61,38.03-79.08,82.05
	c-22.19,52.89-38.37,87.33-38.37,87.33L153.75,431c-0.46,0.95-0.71,2-0.68,3.06c0.08,3.43,1.52,10.54,12,11.39
	c6.84,0.55,12.3,0.99,16.07,1.29c3.42,0.27,6.11,3.04,6.28,6.47l4.59,92.98c0.18,3.67,3.23,6.54,6.91,6.49l69.33-0.88
	c3.46-0.04,6.41,2.51,6.86,5.95l13.66,104.62c0.47,3.61,3.69,6.21,7.31,5.93h0c3.73-0.29,6.53-3.54,6.28-7.27l-8.46-125.72
	c-0.25-3.78-3.54-6.63-7.32-6.35l-71.49,5.28c-3.77,0.28-7.05-2.56-7.32-6.32l-5.86-81.72c-0.01-0.13-0.02-0.25-0.04-0.38
	l-1.34-10.43c-0.4-3.12-2.88-5.56-6.01-5.92l-10.41-1.18c-4.74-0.54-7.48-5.64-5.32-9.89l49.16-96.46
	c3.81-7.48,9.49-12.35,10.88-20.63c0.77-4.64,1.38-15.55,6.84-30.59c27.28-75.17,64.73-90.13,75.62-94.27
	C340.59,169.09,339.44,163.35,335.05,155.8z"/>
<polygon class="st0" points="409.99,179.3 423.89,169.16 413.74,153.94 398.52,164.3 "/>
<path class="st0" d="M449.78,137.35l52.91,17.54c4.81,1.59,6.97,7.17,4.49,11.59l0,0c-1.86,3.32-5.79,4.89-9.43,3.75l-52.83-16.46
	c-3.18-0.99-5.42-3.83-5.64-7.15l-0.07-1.08C438.82,139.83,444.34,135.55,449.78,137.35z"/>
<path class="st0" d="M509.46,529.68l80.01-173.47c2.55-5.53,3.73-11.58,3.44-17.66c-0.92-19.09-3.63-61.86-9.81-75.15
	c-5.68-12.22-16.03-28.93-21.61-37.69c-2.18-3.41-1.51-7.9,1.55-10.54l0.67-0.58c3.77-3.25,9.54-2.38,12.2,1.83
	c9.91,15.72,30.86,51.95,33.36,80.78c1.9,21.86,1.97,36.87,1.69,45.66c-0.19,5.89-1.55,11.68-3.98,17.05l-81.54,180.35
	c-0.55,1.22-0.79,2.56-0.7,3.89l7.34,110.74c0.29,4.39-2.95,8.21-7.33,8.64l0,0c-4.58,0.45-8.62-2.99-8.91-7.58l-7.71-119.22
	C507.97,534.3,508.43,531.88,509.46,529.68z"/>
</svg>
