<?xml version="1.0" encoding="utf-8"?>
<!-- Generator: Adobe Adobe Illustrator 24.2.0, SVG Export Plug-In . SVG Version: 6.00 Build 0)  -->
<svg version="1.1" id="Layer_1" xmlns="http://www.w3.org/2000/svg" xmlns:xlink="http://www.w3.org/1999/xlink" x="0px" y="0px"
	 width="800px" height="800px" viewBox="0 0 800 800" style="enable-background:new 0 0 800 800;" xml:space="preserve">
<style type="text/css">
	.st0{fill:none;stroke:#851F82;stroke-width:3;stroke-miterlimit:10;}
	.st1{fill:none;stroke:#851F82;stroke-miterlimit:10;}
	.st2{fill:none;stroke:#F29200;stroke-width:3;stroke-miterlimit:10;}
	.st3{fill:none;stroke:#F29200;stroke-miterlimit:10;}
	.st4{fill:url(#SVGID_1_);stroke:#FFFFFF;stroke-miterlimit:10;}
	.st5{fill:url(#SVGID_2_);stroke:#FFFFFF;stroke-miterlimit:10;}
	.st6{fill:url(#SVGID_3_);stroke:#FFFFFF;stroke-miterlimit:10;}
	.st7{fill:url(#SVGID_4_);stroke:#FFFFFF;stroke-miterlimit:10;}
	.st8{fill:url(#SVGID_5_);stroke:#FFFFFF;stroke-miterlimit:10;}
	.st9{fill:url(#SVGID_6_);stroke:#FFFFFF;stroke-miterlimit:10;}
	.st10{fill:url(#SVGID_7_);stroke:#FFFFFF;stroke-miterlimit:10;}
	.st11{fill:url(#SVGID_8_);stroke:#FFFFFF;stroke-miterlimit:10;}
	.st12{fill:url(#SVGID_9_);stroke:#FFFFFF;stroke-miterlimit:10;}
	.st13{fill:url(#SVGID_10_);stroke:#FFFFFF;stroke-miterlimit:10;}
	.st14{fill:url(#SVGID_11_);stroke:#FFFFFF;stroke-miterlimit:10;}
	.st15{fill:url(#SVGID_12_);stroke:#FFFFFF;stroke-miterlimit:10;}
	.st16{fill:url(#SVGID_13_);stroke:#FFFFFF;stroke-miterlimit:10;}
	.st17{fill:url(#SVGID_14_);stroke:#FFFFFF;stroke-miterlimit:10;}
	.st18{fill:url(#SVGID_15_);stroke:#FFFFFF;stroke-miterlimit:10;}
	.st19{fill:url(#SVGID_16_);stroke:#FFFFFF;stroke-miterlimit:10;}
	.st20{fill:url(#SVGID_17_);stroke:#FFFFFF;stroke-miterlimit:10;}
	.st21{fill:url(#SVGID_18_);stroke:#FFFFFF;stroke-miterlimit:10;}
	.st22{fill:#851F82;stroke:#FFFFFF;stroke-miterlimit:10;}
	.st23{fill:#F29200;stroke:#FFFFFF;stroke-miterlimit:10;}
	.st24{fill:#C91456;stroke:#FFFFFF;stroke-miterlimit:10;}
	.st25{fill:#EC6F05;stroke:#FFFFFF;stroke-miterlimit:10;}
	.st26{fill:#F7A600;stroke:#FFFFFF;stroke-miterlimit:10;}
	.st27{fill:#E6E6E6;}
	.st28{fill:#851F82;}
	.st29{fill:#F29200;}
	.st30{fill:#E2071E;}
	.st31{fill:#E6E6E6;stroke:#F29200;stroke-width:3;stroke-miterlimit:10;}
</style>
<path class="st0" d="M402.08,0C187.84,0,14.16,179.09,14.16,400s173.68,400,387.92,400S790,620.91,790,400S616.32,0,402.08,0z
	 M402.82,789.52c-208.22,0-377.01-174.05-377.01-388.75S194.6,12.02,402.82,12.02s377.01,174.05,377.01,388.75
	S611.04,789.52,402.82,789.52z"/>
<path class="st0" d="M313.64,261.56L313.64,261.56c0-30.3,24.56-54.86,54.86-54.86h67.15c30.3,0,54.86,24.56,54.86,54.86v0
	c0,30.3-24.56,54.86-54.86,54.86H368.5C338.2,316.43,313.64,291.86,313.64,261.56z"/>
<path class="st0" d="M136.75,518.43L136.75,518.43c0-30.3,24.56-54.86,54.86-54.86h67.15c30.3,0,54.86,24.56,54.86,54.86v0
	c0,30.3-24.56,54.86-54.86,54.86h-67.15C161.32,573.3,136.75,548.73,136.75,518.43z"/>
<path class="st0" d="M490.52,518.43L490.52,518.43c0-30.3,24.56-54.86,54.86-54.86h67.15c30.3,0,54.86,24.56,54.86,54.86v0
	c0,30.3-24.56,54.86-54.86,54.86h-67.15C515.09,573.3,490.52,548.73,490.52,518.43z"/>
<g>
	<g>
		<path class="st0" d="M578.96,394.53c0-3.26-2.65-5.91-5.91-5.91H408.83v-56.16c0-3.26-2.65-5.91-5.91-5.91s-5.91,2.65-5.91,5.91
			v56.16H231.11c-3.26,0-5.91,2.65-5.91,5.91c0,0.14,0.01,0.28,0.02,0.42c-0.01,0.14-0.02,0.28-0.02,0.42v45.58
			c0,3.73,3.02,6.75,6.75,6.75c3.73,0,6.75-3.02,6.75-6.75v-40.52h326.76v40.52c0,3.73,3.02,6.75,6.75,6.75s6.75-3.02,6.75-6.75
			v-45.58c0-0.14-0.01-0.28-0.02-0.42C578.95,394.81,578.96,394.67,578.96,394.53z"/>
	</g>
</g>
<path class="st0" d="M402.08,0C187.84,0,14.16,179.09,14.16,400s173.68,400,387.92,400S790,620.91,790,400S616.32,0,402.08,0z
	 M402.82,789.52c-208.22,0-377.01-174.05-377.01-388.75S194.6,12.02,402.82,12.02s377.01,174.05,377.01,388.75
	S611.04,789.52,402.82,789.52z"/>
<path class="st0" d="M313.64,261.56L313.64,261.56c0-30.3,24.56-54.86,54.86-54.86h67.15c30.3,0,54.86,24.56,54.86,54.86v0
	c0,30.3-24.56,54.86-54.86,54.86H368.5C338.2,316.43,313.64,291.86,313.64,261.56z"/>
<path class="st0" d="M136.75,518.43L136.75,518.43c0-30.3,24.56-54.86,54.86-54.86h67.15c30.3,0,54.86,24.56,54.86,54.86v0
	c0,30.3-24.56,54.86-54.86,54.86h-67.15C161.32,573.3,136.75,548.73,136.75,518.43z"/>
<path class="st0" d="M490.52,518.43L490.52,518.43c0-30.3,24.56-54.86,54.86-54.86h67.15c30.3,0,54.86,24.56,54.86,54.86v0
	c0,30.3-24.56,54.86-54.86,54.86h-67.15C515.09,573.3,490.52,548.73,490.52,518.43z"/>
<g>
	<g>
		<path class="st0" d="M578.96,394.53c0-3.26-2.65-5.91-5.91-5.91H408.83v-56.16c0-3.26-2.65-5.91-5.91-5.91s-5.91,2.65-5.91,5.91
			v56.16H231.11c-3.26,0-5.91,2.65-5.91,5.91c0,0.14,0.01,0.28,0.02,0.42c-0.01,0.14-0.02,0.28-0.02,0.42v45.58
			c0,3.73,3.02,6.75,6.75,6.75c3.73,0,6.75-3.02,6.75-6.75v-40.52h326.76v40.52c0,3.73,3.02,6.75,6.75,6.75s6.75-3.02,6.75-6.75
			v-45.58c0-0.14-0.01-0.28-0.02-0.42C578.95,394.81,578.96,394.67,578.96,394.53z"/>
	</g>
</g>
</svg>
