<svg height='100px' width='100px'  fill="#000000" xmlns:dc="http://purl.org/dc/elements/1.1/" xmlns:cc="http://creativecommons.org/ns#" xmlns:rdf="http://www.w3.org/1999/02/22-rdf-syntax-ns#" xmlns:svg="http://www.w3.org/2000/svg" xmlns="http://www.w3.org/2000/svg" xmlns:sodipodi="http://sodipodi.sourceforge.net/DTD/sodipodi-0.dtd" xmlns:inkscape="http://www.inkscape.org/namespaces/inkscape" version="1.1" x="0px" y="0px" viewBox="0 0 100 100"><g transform="translate(0,-952.36218)"><path style="text-indent:0;text-transform:none;direction:ltr;block-progression:tb;baseline-shift:baseline;color:#000000;enable-background:accumulate;" d="m 50,962.36219 c -22.0794,0 -40,17.92065 -40,40.00001 0,22.0793 17.9206,40 40,40 22.0794,0 40,-17.9207 40,-40 0,-22.07936 -17.9206,-40.00001 -40,-40.00001 z m 0,2 c 20.9984,0 38,17.00155 38,38.00001 0,20.9984 -17.0016,38 -38,38 -20.9984,0 -38,-17.0016 -38,-38 0,-20.99846 17.0016,-38.00001 38,-38.00001 z m -10.625,17.96875 c -0.9442,0.0206 -1.8691,0.28298 -2.6562,0.75 -1.5744,0.93404 -2.672,2.68273 -2.7188,4.78123 l 0,28.90623 c 0.047,2.0985 1.1454,3.8416 2.7188,4.7813 1.5733,0.9397 3.6502,1.0653 5.5,0.062 l 25,-14.5 c 1.6494,-0.9575 2.7812,-2.7525 2.7812,-4.812 0,-2.0595 -1.1318,-3.82333 -2.7812,-4.78123 -8.2274,-4.9894 -16.8037,-9.5802 -25,-14.50003 -0.9198,-0.51039 -1.9578,-0.69866 -2.8438,-0.6875 z m 0.125,1.96875 c 0.5476,0.01 1.1028,0.1859 1.75,0.49998 l 24.9688,14.4375 c 1.0718,0.6225 1.7812,1.72863 1.7812,3.06253 0,1.3339 -0.7092,2.4712 -1.7812,3.0938 -8.3101,4.6673 -16.0152,9.3332 -25,14.4687 -1.2473,0.6637 -2.4805,0.5589 -3.4688,-0.031 -0.9884,-0.5904 -1.7075,-1.6707 -1.75,-3.0938 l 0,-28.84373 c 0.032,-1.4397 0.7549,-2.5033 1.75,-3.0937 0.6625,-0.35281 1.2024,-0.50968 1.75,-0.50003 z" fill="#000000" fill-opacity="1" stroke="none" marker="none" visibility="visible" display="inline" overflow="visible"></path></g></svg>