<?xml version="1.0" encoding="utf-8"?>
<!-- Generator: Adobe Adobe Illustrator 24.2.0, SVG Export Plug-In . SVG Version: 6.00 Build 0)  -->
<svg version="1.1" id="Layer_1" xmlns="http://www.w3.org/2000/svg" xmlns:xlink="http://www.w3.org/1999/xlink" x="0px" y="0px"
	 width="1920px" height="1080px" viewBox="0 0 1920 1080" style="enable-background:new 0 0 1920 1080;" xml:space="preserve">
<style type="text/css">
	.st0{fill:#F29200;}
	.st1{fill:none;stroke:#000000;stroke-width:3;stroke-miterlimit:10;}
	.st2{fill:#F0F0F0;stroke:#000000;stroke-width:3;stroke-miterlimit:10;}
	.st3{fill:#FFFFFF;}
	.st4{fill:#F0F0F0;stroke:#F0F0F0;stroke-miterlimit:10;}
	.st5{fill:none;stroke:#000000;stroke-width:4;stroke-miterlimit:10;}
	.st6{fill:#F0F0F0;}
	.st7{fill:none;stroke:#F29200;stroke-width:3;stroke-miterlimit:10;}
	.st8{fill:#F27500;}
	.st9{fill:#FFFFFF;stroke:#000000;stroke-width:3;stroke-miterlimit:10;}
	.st10{fill:none;stroke:#F29200;stroke-width:2;stroke-miterlimit:10;}
	.st11{fill:#F29200;stroke:#F29200;stroke-miterlimit:10;}
	.st12{fill:#851F82;}
	.st13{fill:#5C5C5C;}
	.st14{fill:#F0F0F0;stroke:#F0F0F0;stroke-width:3;stroke-miterlimit:10;}
	.st15{fill:#242424;}
	.st16{fill:#CCCCCC;}
</style>
<path class="st6" d="M857.97,974.35c36.49,4.22,74.04,3.13,111.19,2.18c169.09-4.32,338.38-5.28,507.52-2.88
	c-29.76,24.25-30.06,60.26-0.71,84.52c-182,2.43-364,4.87-546.01,7.3c-25.27,0.34-55.28-0.81-68.37-13.9
	c-8.35-8.36-6.67-18.89-5.76-28.68C857.28,1007.13,843.93,991.35,857.97,974.35z"/>
<path d="M1319.5,125.4c0,0-11.58,59.81-11.56,60.46c45.09,33.11,102.23,48.72,158.08,45.54c11.27-0.64,22.49-2.02,33.7-3.39
	l6.56-62.69L1319.5,125.4z"/>
<path class="st0" d="M1440.82,440.07l150.46,46.81c3.85,1.2,5.72,5.56,3.94,9.17l-38.14,77.32c-1.42,2.87-4.7,4.3-7.76,3.39
	l-127.74-38.1c-3.2-0.95-5.18-4.16-4.59-7.45l15.42-86.03C1433.1,441.29,1437.05,438.9,1440.82,440.07z"/>
<path class="st8" d="M1438.77,434.55l0.01-0.03c0.75-3.32,4.02-5.42,7.35-4.72l6.83,1.43c2.47,0.52,5.01-0.51,6.43-2.6l1.59-2.35
	c1.52-2.25,4.33-3.25,6.93-2.47l38.81,11.6c2.29,0.68,3.99,2.62,4.36,4.98l0.58,3.64c0.36,2.28,1.96,4.17,4.14,4.91l71.89,24.42
	c3.25,1.11,5,4.64,3.89,7.9v0c-1.08,3.19-4.51,4.94-7.72,3.95l-140.85-43.34C1439.9,440.91,1438.05,437.72,1438.77,434.55z"/>
<path class="st0" d="M518.03,967.69c169.21-1.42,873.89-7.39,966.22-8.7c7.69-0.11,13.9,6.76,12.48,14.33
	c-0.01,0.05-0.02,0.1-0.03,0.15c-0.98,4.93-5.79,9.47-10.66,8.22l-529.11-2.81l-18.44,0.65c-7.13,0.25-12.58,6.43-11.96,13.53
	l4.72,53.33c0.57,6.4,5.9,11.32,12.33,11.34c77.94,0.32,531.66,2.14,530.87,1.43c3.68-0.27,7.4,2.09,8.71,5.54s0.09,7.69-2.84,9.92
	c-2.78,2.11-6.52,2.35-10,2.26c0,0-920.65,4.28-968.98,4.09c-1.26,0-2.51-0.18-3.71-0.58c-19.77-6.61-34.93-25.49-36.92-46.27
	c-0.69-7.17,0.06-14.42,1.58-21.45c0.03-0.16,0.07-0.32,0.1-0.47C468.12,986.22,491.44,967.92,518.03,967.69z"/>
<path class="st6" d="M708.09,798.38c36.5,7.06,74.05,5.37,111.19,3.92c169.08-6.6,338.37-7.67,507.52-3.21
	c-29.68,39.85-29.88,99.14-0.45,139.19c-182,3.46-363.99,6.91-545.99,10.37c-25.27,0.48-55.29-1.5-68.41-23.1
	c-8.38-13.79-6.72-31.14-5.85-47.25C707.5,852.36,694.1,826.35,708.09,798.38z"/>
<path class="st12" d="M685.53,762.72c211.33,7.76,402.62-0.48,634.75,8.04c6.7,0.25,11.88-1.46,18.32,3.32
	c3.22,2.39,4.15,6.98,2.82,10.76c-1.59,4.5-4.05,11.7-7.99,12.48c-24.29,4.85-49.35,2.8-74.08,1.36
	c-66.02-3.86-132.21-3.26-198.34-2.65c-106.66,0.97-213.41,1.95-319.79,9.77c-13.8,1.01-30.42,4.18-35.16,17.18
	c-2.44,6.7-0.78,14.12,0.94,21.04c5.94,23.94,12.3,47.78,19.09,71.49c2.16,7.54,4.76,15.65,11.19,20.15
	c5.86,4.11,13.54,4.22,20.7,4.18c177.11-0.95,354.22-1.9,531.32-2.85c19.45-0.1,38.56-5.86,53.89,6.88
	c3.19,2.65,5.22,6.6,4.87,10.73c-0.87,10.27-4.8,16.7-22.69,16.78c-187.48,0.88-374.51,5.2-561.99,3.61
	c-15.5-0.13-31.65-0.6-45.37-7.82c-15.77-8.3-25.85-24.16-35.21-39.33c-14.67-23.79-29.66-48.43-33.73-76.08
	C645,824.14,652.97,786.39,685.53,762.72z"/>
<path class="st0" d="M689.96,1080.56c8.89,27.16,17.78,54.31,26.67,81.47c0.52,1.6,1.11,3.3,2.41,4.37c1.6,1.31,3.86,1.36,5.93,1.31
	c18.45-0.49,36.81-4.17,54.02-10.83c2.23-0.86,4.6-1.91,5.76-4c1.36-2.43,0.64-5.44-0.12-8.11c-7.89-27.55-17.8-54.52-29.64-80.62
	c-1.11-2.44-2.31-4.97-4.45-6.57c-1.78-1.33-4.02-1.87-6.23-2.16C728.24,1053.26,713.09,1062.47,689.96,1080.56z"/>
<path class="st12" d="M766.79,418.09c15.91-32.4,32.51-64.45,49.79-96.14c11.48-21.05,24.01-42.75,44.09-55.85
	c9.6-6.27,20.49-10.24,31.26-14.16c8.88-3.23,17.76-6.46,26.64-9.69c3.74-1.36,7.62-2.74,11.6-2.52c6.78,0.38,12.35,5.23,18.57,7.96
	c17.83,7.82,38.12-2.49,54.09-13.62c3.6-2.51,7.29-5.13,11.59-5.99c3.08-0.62,6.27-0.27,9.38,0.2
	c32.15,4.92,60.37,23.38,87.45,41.38c15.65,10.4,31.62,21.1,42.86,36.16c7.32,9.8,12.36,21.1,16.76,32.51
	c11.25,29.16,18.71,59.77,22.14,90.83c0.25,2.26,0.44,4.71-0.74,6.65c-1.44,2.38-4.42,3.23-7.12,3.86
	c-26.16,6.13-52.78,10.34-79.56,12.57c-2.82,0.24-5.86,0.54-7.98,2.41c-3.25,2.86-2.92,7.92-2.31,12.2
	c5.69,39.89,15.19,93.47,23.17,132.97c4.58,22.66,8.36,49.6-8.03,65.91c-29.54-7.5-61.74-28.85-91.27-36.36
	c-42.17-10.71-85.21-21.51-128.62-18.62c2.03-11.39-5.26-22.03-10.4-32.39c-14.37-28.96-13.23-63.71-27.53-92.7
	c-8.11-16.44-20.92-30.29-35.69-41.16C802.25,433.71,785.52,425.69,766.79,418.09z"/>
<path d="M1073.25,368.16c1.14,8.65,4.79,16.73,7.73,24.95c4.4,12.27,7.27,25.09,8.53,38.06c0.21,2.15,0.33,4.48-0.84,6.29
	C1081.1,420.87,1076.03,403.14,1073.25,368.16z"/>
<path class="st0" d="M235.62,176.76l0.37-8.93c0.06-1.38,1.22-2.45,2.6-2.4l39.58,1.63c1.38,0.06,2.45,1.22,2.4,2.6l-0.37,8.93
	c-0.06,1.38-1.22,2.45-2.6,2.4l-39.58-1.63C236.63,179.3,235.56,178.14,235.62,176.76z"/>
<path class="st0" d="M317.57,41l7.48-4.89c1.16-0.76,2.7-0.43,3.46,0.72l21.69,33.15c0.76,1.16,0.43,2.7-0.72,3.46l-7.48,4.89
	c-1.16,0.76-2.7,0.43-3.46-0.72l-21.69-33.15C316.09,43.31,316.41,41.76,317.57,41z"/>
<path class="st0" d="M264.06,302.44l-4.89-7.48c-0.76-1.16-0.43-2.7,0.72-3.46l33.15-21.69c1.16-0.76,2.7-0.43,3.46,0.72l4.89,7.48
	c0.76,1.16,0.43,2.7-0.72,3.46l-33.15,21.69C266.36,303.92,264.81,303.6,264.06,302.44z"/>
<path class="st0" d="M483.38,29.65l-8.33-3.24c-1.29-0.5-2.74,0.14-3.24,1.42l-14.36,36.92c-0.5,1.29,0.14,2.74,1.42,3.24l8.33,3.24
	c1.29,0.5,2.74-0.14,3.24-1.42l14.36-36.92C485.31,31.6,484.67,30.15,483.38,29.65z"/>
<path class="st0" d="M587.15,106.05l-4.89-7.48c-0.76-1.16-2.31-1.48-3.46-0.72l-33.15,21.69c-1.16,0.76-1.48,2.31-0.72,3.46
	l4.89,7.48c0.76,1.16,2.31,1.48,3.46,0.72l33.15-21.69C587.59,108.76,587.91,107.21,587.15,106.05z"/>
<g>
	<g>
		<path class="st0" d="M556.63,321.85L529.25,280c26.1-39.12,27.98-91.63,0.61-133.48c-36.59-55.93-111.59-71.6-167.52-35.01
			c-55.93,36.59-71.6,111.59-35.01,167.52c26.8,40.96,74.19,60.32,119.61,53.39l28.04,42.85c3.13,4.79,9.56,6.13,14.35,3
			l64.31-42.08C558.42,333.06,559.76,326.64,556.63,321.85z"/>
	</g>
</g>
<path class="st13" d="M1267.92,96.83l-0.2,0.29c-2.07,2.97-1.03,7.09,2.2,8.72l123.14,62.22c0.82,0.41,1.72,0.63,2.64,0.64
	l163.59,1.27c4.64,0.04,7.54-5.01,5.16-9l0,0c-1.04-1.74-2.89-2.84-4.92-2.91l-148.51-4.91c-0.75-0.02-1.48-0.19-2.17-0.49
	l-133.68-57.89C1272.57,93.65,1269.54,94.51,1267.92,96.83z"/>
<path class="st0" d="M1095.31,457.33c-1.31,9.88-0.99,19.99,0.96,29.76c-60.3,14.53-121.17,26.67-182.42,36.41
	c-0.96,15.76,0.12,31.64,3.19,47.12c0.38,1.92,0.89,3.99,2.41,5.21c1.62,1.3,3.9,1.25,5.97,1.14
	c64.38-3.5,128.25-15.36,192.73-15.53c15.09-0.04,30.31,0.55,45.15-2.2c14.84-2.75,29.57-9.26,39.01-21.03
	c2.13-2.65,3.99-5.61,4.75-8.92c1.26-5.52-0.66-11.22-2.57-16.56c-7.71-21.64-11.95-40.7-19.66-62.34
	c-1.6-4.48-2.78-10.53-7.5-11.12c-1.38-0.17-5.97,0.93-11.17,1.97c-17.22,3.46-40.2,2.47-59.83,5.18
	C1100.64,447.21,1096.07,451.64,1095.31,457.33z"/>
<path class="st0" d="M989.51,171.14c0.81,0.08,1.6-0.67,1.56-1.48c-17.14,19.02-40.16,31.4-62.78,43.48c-4.61,2.46-9.5,5-14.73,4.85
	c-6.52-0.19-12.19-4.51-16.61-9.31c-5.79-6.28-10.33-13.72-13.26-21.75c-2.76-7.55-4.46-16.16-10.73-21.2
	c-1.94-1.56-4.27-2.72-5.78-4.7c-3.91-5.14-0.5-12.32,1.67-18.41c4.14-11.63,3.11-24.36,4.02-36.67
	c0.91-12.31,4.63-25.67,15.31-30.2c1.93-6.17,8.19-10.7,14.65-10.6c2.34,11.79,9.86,22.04,18.99,29.85
	c9.13,7.81,19.86,13.48,30.49,19.09c9.66,5.09,21.69,10.15,30.88,4.24c2.98-1.92,5.24-4.81,8.27-6.66
	c8.53-5.2,20.71,0.42,24.57,9.63s0.89,20.15-5,28.21c-1.52,2.08-3.26,4.11-3.9,6.6c-0.56,2.19-0.19,4.5,0.18,6.73
	c2.97,17.92,5.94,35.84,8.91,53.76c0.52,3.15,1.04,6.41,0.22,9.49c-1.1,4.13-4.39,7.25-7.54,10.14c-7.8,7.15-15.7,14.38-24.98,19.46
	c-9.28,5.09-20.22,7.9-30.55,5.59c-10.33-2.31-19.66-10.55-21.21-21.02c-0.56-3.77-0.13-7.61,0.3-11.4
	c0.81-7.16,1.62-14.33,2.43-21.49"/>
<path d="M899.85,65.44c0.09,18.49,11.37,26.62,24.27,36.48c12.9,9.86,28.21,15.96,43.33,21.88c6.01,2.35,13.44,4.5,18.39,0.36
	c2.91-2.43,4.12-6.5,7.18-8.73c4.99-3.62,12.26-0.52,16.28,4.15c6.11,7.13,7.82,17.75,4.24,26.43c-1.97,4.78-8.86,6.19-10.13,11.2
	c-1.7,6.75,5.14,16.32,6.24,23.19c3.52,22.05,5.91,33.6,6.11,47.57c9.22,13.45,28.93,14.69,44.59,19.27
	c35.57,10.41,64.71,35.43,92.65,59.78c14.36-22.7,14.17-51.72,9.33-78.15c-4.56-24.93-13.32-50.02-30.93-68.25
	c-7.5-7.76-16.37-14.04-25.34-20.03c-16.21-10.81-32.94-20.84-50.12-30.02c-6.33-3.39-12.82-6.73-18.04-11.66
	c-8.58-8.12-12.83-19.64-18.31-30.1c-11.52-21.97-29.56-40.47-50.46-52.59c-9.1-6.11-20.74-6.52-31.7-6.58
	c-12.8-0.07-25.89,0.12-37.9,4.54c-9.14,3.37-17.23,9.04-24.9,15.04c-10.72,8.38-21.17,17.93-26.5,30.45
	c-3.78,8.87-4.74,18.72-4.24,28.35c1.12,21.62,9.6,42.8,23.18,59.43c5.09-8.88,6.91-19.18,9.41-29.1
	c4.14-16.42,10.37-32.31,18.5-47.17C896.91,67.71,899.68,67.93,899.85,65.44z"/>
<path class="st15" d="M867.52,604.64c-98.91-1.26-198.34-2.5-296.19,11.02c-15.51,2.14-32.12,5.21-42.83,15.81
	c-6.94,6.88-10.44,16.05-13.66,24.97c-6.46,17.86-12.57,37.25-6.38,55.19c5.42,15.71,19.39,27.49,28.05,41.91
	c9.84,16.38,12.47,35.47,16.28,53.87c15.91,76.81,54.73,147.58,87.38,219.72c3.92,8.66,7.81,17.54,8.46,26.91
	c1.01,14.42-4.9,31.4,5.99,41.76c32.64,4.68,66.24,3.59,98.45-3.19c3.2-0.67,6.63-1.55,8.62-3.96c2.38-2.9,1.85-6.95,1.19-10.54
	c-9.29-50.6-20.42-100.9-33.36-150.81c-11.55-44.54-24.54-88.78-34.15-133.71c-0.68-3.19-1.34-6.52-0.34-9.64
	c2.98-9.29,16.78-9.82,27.19-8.76c40.35,4.12,81.26,3.62,121.48-1.48"/>
<path d="M986.63,605.32c-31.73-2.91-63.73-2.9-95.46,0.03c-19.09,1.76-39.41,5.18-53.35,18.34c-18.74,17.69-19.88,46.62-19.74,72.4
	c0.15,26.82,0.31,53.85,5.7,80.13c3.36,16.39,8.73,32.34,11.63,48.82c3.01,17.09,3.34,34.54,5.11,51.8
	c1.79,17.52,5.07,34.94,5.17,52.55c0.09,16.83-2.72,33.52-4.56,50.25c-4.89,44.46-2.95,89.41,1.39,133.92
	c0.38,3.92,0.9,8.12,3.52,11.07c3.35,3.76,8.95,4.25,13.98,4.48c22.52,1.01,45.04,2.03,67.56,3.04c5.2,0.23,10.58,0.44,15.4-1.53
	c14.72-6.01,15.01-26.4,13.23-42.21c-10.74-95.34-5.46-192.46,15.56-286.07c1.54-6.87,3.32-14.03,7.98-19.31
	c5.59-6.35,14.25-8.83,22.34-11.32c28.48-8.75,56.21-21.46,78.62-41.09c22.41-19.63,39.16-46.76,42.27-76.39
	c0.39-3.73-0.23-7.42-0.74-11.14c-3.26-23.84-16.41-21.04-24.82-21.81C1059.35,617.8,1027.63,609.08,986.63,605.32z"/>
<path class="st6" d="M621.14,430.32l25.78,186.2c0.23,1.67,1.66,2.91,3.34,2.92l263.68,0.63c2,0,3.57-1.72,3.37-3.72L897.63,418.6
	l-273.24,7.88C622.38,426.53,620.86,428.32,621.14,430.32z"/>
<path class="st16" d="M1051.37,610.14L1051.37,610.14c0.02,5.1-4.07,9.26-9.17,9.32l-122.63,1.43c-4.78,0.06-8.83-3.54-9.33-8.3
	L889.66,419.2l0,0l5.1-1.3c5.52-1.41,11,2.45,11.53,8.13L921.98,594c0.45,4.82,4.53,8.48,9.36,8.41l110.62-1.51
	C1047.13,600.83,1051.35,604.98,1051.37,610.14z"/>
<path d="M1269.87,94.47l133.46,66.58c0.41,0.21,0.87,0.31,1.33,0.31l155.23-0.46c3.14-0.01,4.11-4.25,1.28-5.62l-132.91-64.39
	c-0.39-0.19-0.82-0.29-1.26-0.3l-155.78-1.73C1268.09,88.83,1267.06,93.06,1269.87,94.47z"/>
<path class="st0" d="M1426.24,115.15c-1.16,2.98-4.55,4.91-7.7,4.39c-1.2-0.2-2.41-0.78-2.98-1.86c-0.62-1.18-0.53-2.96-1.77-3.45
	c-1.03-0.41-2.17,0.58-2.36,1.67c-0.18,1.09,0.29,2.17,0.76,3.17c0.74,1.58,1.53,3.2,2.87,4.31c1.58,1.32,3.79,1.75,5.82,1.43
	C1422.92,124.49,1424.8,123.47,1426.24,115.15z"/>
<path class="st0" d="M1425.84,116.74c0.83-0.59,1.67-1.19,2.5-1.78c14.66,14.41,33.23,24.44,47.4,39.33
	c7.67,8.07,13.94,17.47,18.42,27.66c2.54,5.77,4.53,11.88,4.77,18.18c0.19,5.05-0.73,10.06-1.12,15.09
	c-1.03,13.4,1.79,26.75,4.08,39.99c0.3,1.74,0.57,3.63-0.24,5.2s-3.19,2.4-4.39,1.1c-3.22-7.85-3.06-16.61-3.62-25.07
	c-0.72-10.77-2.68-21.42-4.64-32.04c-1.27-6.86-2.54-13.76-4.88-20.34c-4.19-11.79-11.68-22.2-20.37-31.2
	c-8.7-9-18.62-16.71-28.51-24.39c-3.65-2.84-7.3-5.67-10.95-8.51c-0.21-1.79,0.68-3.5,1.95-4.78
	C1427.99,113.43,1430.5,116.05,1425.84,116.74z"/>
<path class="st13" d="M1414.11,114.58c0.15-0.5,0.2-0.61,0.8-0.54c1.12,1.23,0.92,2.28,2.28,3.23c0.62,0.43,1.4,0.57,2.15,0.64
	c0.6,0.06,1.2,0.09,1.79-0.01c2.2-0.39,3.36-2.29,5.48-3c0.38,0.18-1.26,2.99-2.74,3.97c-1.48,0.98-3.32,1.39-5.07,1.15
	c-0.41-0.06-0.82-0.15-1.2-0.32c-0.83-0.37-1.46-0.97-2.04-1.67C1414.52,116.76,1414.46,116.49,1414.11,114.58z"/>
</svg>
