<?xml version="1.0" encoding="utf-8"?>
<!-- Generator: Adobe Adobe Illustrator 24.2.0, SVG Export Plug-In . SVG Version: 6.00 Build 0)  -->
<svg version="1.1" xmlns="http://www.w3.org/2000/svg" xmlns:xlink="http://www.w3.org/1999/xlink" x="0px" y="0px" width="800px"
	 height="800px" viewBox="0 0 800 800" style="enable-background:new 0 0 800 800;" xml:space="preserve">
<style type="text/css">
	.st0{fill:none;stroke:#851F82;stroke-width:3;stroke-miterlimit:10;}
	.st1{fill:none;stroke:#000000;stroke-width:3;stroke-miterlimit:10;}
	.st2{fill:#851F82;stroke:#851F82;stroke-width:3;stroke-miterlimit:10;}
	.st3{fill:none;stroke:#F29200;stroke-width:3;stroke-miterlimit:10;}
	.st4{fill:#F29200;stroke:#F29200;stroke-width:3;stroke-miterlimit:10;}
</style>
<g id="Layer_1">
</g>
<g id="Layer_2">
	<ellipse class="st0" cx="400" cy="400" rx="390.84" ry="400"/>
	<ellipse class="st0" cx="400.75" cy="400.77" rx="379.85" ry="388.75"/>
	<polygon class="st0" points="324.19,697.24 232.02,247.7 267.49,240.78 359.66,690.33 	"/>
	
		<ellipse transform="matrix(0.047 -0.9989 0.9989 0.047 35.9073 443.6599)" class="st0" cx="250.47" cy="203.01" rx="27.42" ry="28"/>
	<path class="st0" d="M297.5,243.84c7.16,27.29,44.29,168.2,56.33,201.04c1.34,3.64,5.68,5.21,9.03,3.22
		c33.67-19.93,66.33-41.47,97.84-64.51c14.77-10.8,32.09-22.59,50.06-18.44c2.65,0.61,5.46,1.76,6.69,4.13
		c2.17,4.16-1.66,8.81-5.17,11.98c-7.45,6.75-14.9,13.49-22.36,20.24c-4.52,4.09-0.99,11.5,5.07,10.67
		c54.29-7.47,105.82-29.86,153.36-57.07c2.77-1.58,3.84-5,2.52-7.89c-24.16-52.73-44.64-107.1-62.22-163.37
		c-1.28-4.09-6.23-5.69-9.66-3.1c-16.91,12.75-34.78,24.3-53.41,34.51c-7.53,4.13-17.07,0.9-20.31-7.01
		c-1.86-4.54-5.5-8.65-10.02-11.44c-11.9-7.35-27.29-5.12-41.1-2.42c-38.48,7.55-76.6,16.85-114.19,27.85
		c-13.71,4.01-27.79,8.5-39.39,14.61C298.04,238.19,296.78,241.08,297.5,243.84z"/>
</g>
<g id="Layer_3">
</g>
</svg>
