<?xml version="1.0" encoding="utf-8"?>
<!-- Generator: Adobe Adobe Illustrator 24.2.0, SVG Export Plug-In . SVG Version: 6.00 Build 0)  -->
<svg version="1.1" xmlns="http://www.w3.org/2000/svg" xmlns:xlink="http://www.w3.org/1999/xlink" x="0px" y="0px" width="800px"
	 height="800px" viewBox="0 0 800 800" style="enable-background:new 0 0 800 800;" xml:space="preserve">
<style type="text/css">
	.st0{fill:none;stroke:#851F82;stroke-width:3;stroke-miterlimit:10;}
	.st1{fill:none;stroke:#000000;stroke-width:3;stroke-miterlimit:10;}
	.st2{fill:#851F82;stroke:#851F82;stroke-width:3;stroke-miterlimit:10;}
	.st3{fill:none;stroke:#F29200;stroke-width:3;stroke-miterlimit:10;}
	.st4{fill:#F29200;stroke:#F29200;stroke-width:3;stroke-miterlimit:10;}
</style>
<g id="Layer_1">
</g>
<g id="Layer_2">
	<path class="st0" d="M433.47,244.01c-33.02-12.47-71.4-4.58-102.01,12.62s-54.98,42.73-78.85,67.87
		c-4.27,4.5-8.61,9.09-11.36,14.56c-3.62,7.19-4.26,15.38-4.84,23.35c-1.59,21.86-3.18,43.72-4.77,65.57
		c-0.96,13.18-1.81,27.06,7.09,38.35c4.66,5.91,12.17,9.47,19.84,8.47c15.33-1.99,20.48-19.54,22.04-33.87
		c2.12-19.47,3.17-39.04,3.15-58.61c-0.01-9.04-0.2-18.36,3.31-26.76c8-19.17,31.11-26.45,49.58-37.77c1.81-1.11,4.09,0.5,3.49,2.48
		c-9.87,32.73-19.69,65.41-28.51,97.26c-2.74,9.89-0.87,20.51,5.39,28.8c2.84,3.76,6.04,7.33,9.2,10.81
		c68.67,75.7,137.34,151.39,206.01,227.09c4.13,4.55,8.66,9.34,14.79,10.73c3.85,0.87,7.94,0.26,11.63-1.1
		c17.53-6.47,24.01-28.37,18.91-45.67s-18.53-31.02-31.32-44.19c-39.68-40.83-77.55-83.27-113.46-127.17
		c-7.96-9.73-16.01-19.9-19.25-31.86c-6.79-25.11,9.02-50.36,11.7-74.73c0.35-3.17,4.73-4.03,6.47-1.32
		c5.77,9.02,9.24,19.75,17.37,26.93c5.51,4.87,12.65,7.63,19.61,10.29c31.19,11.91,62.39,23.82,93.58,35.73
		c4.05,1.55,8.43,3.12,12.68,2.18c5.25-1.17,8.93-5.9,12.3-9.51c2.42-2.59,4.31-5.62,5.22-8.98c2.64-9.77-4.09-13.72-10.24-17.08
		c-25.47-13.91-50.94-27.83-76.41-41.74c-6.4-3.5-12.9-7.06-17.96-12.18c-6.77-6.84-10.45-15.87-13.98-24.67
		c-5.95-14.85-11.91-29.7-17.15-44.79C450.79,268.09,444.17,248.05,433.47,244.01z"/>
	<path class="st0" d="M309.99,470.8c-6.21,34.44-12.71,69.69-30.87,100.01c-6.21,10.37-13.69,19.98-21.15,29.57
		c-11.73,15.07-23.45,30.14-35.18,45.2c-6.21,7.98-12.62,16.4-14.14,26.24c-1.74,11.23,3.79,23.21,13.65,29.54
		c9.85,6.33,23.53,6.71,33.75,0.93c7.9-4.47,13.34-11.94,18.53-19.17c7.47-10.41,14.94-20.82,22.4-31.23
		c17.11-23.86,34.33-47.88,46.66-74.3c9.95-21.31,17.18-48.95,7.24-70.27c-7.51-16.11-16.31-25.53-29.44-40.32
		c-3.69-4.16-10.76-1.9-11.18,3.54C310.15,471.96,309.99,472.14,309.99,470.8z"/>
	<ellipse class="st0" cx="426.09" cy="152.5" rx="64.81" ry="62"/>
	<ellipse class="st0" cx="400" cy="400" rx="386.43" ry="398.47"/>
	<ellipse class="st0" cx="400.74" cy="400.76" rx="375.57" ry="387.27"/>
</g>
<g id="Layer_3">
</g>
</svg>
