<?xml version="1.0" encoding="utf-8"?>
<!-- Generator: Adobe Adobe Illustrator 24.2.0, SVG Export Plug-In . SVG Version: 6.00 Build 0)  -->
<svg version="1.1" id="Layer_1" xmlns="http://www.w3.org/2000/svg" xmlns:xlink="http://www.w3.org/1999/xlink" x="0px" y="0px"
	 width="1650px" height="1161.99px" viewBox="0 0 1650 1161.99" style="enable-background:new 0 0 1650 1161.99;"
	 xml:space="preserve">
<style type="text/css">
	.st0{fill:#F29200;}
	.st1{fill:none;stroke:#000000;stroke-width:3;stroke-miterlimit:10;}
	.st2{fill:#F0F0F0;stroke:#000000;stroke-width:3;stroke-miterlimit:10;}
	.st3{fill:#FFFFFF;}
	.st4{fill:#F0F0F0;stroke:#F0F0F0;stroke-miterlimit:10;}
	.st5{fill:none;stroke:#000000;stroke-width:4;stroke-miterlimit:10;}
	.st6{fill:#F0F0F0;}
	.st7{fill:none;stroke:#F29200;stroke-width:3;stroke-miterlimit:10;}
	.st8{fill:#F27500;}
	.st9{fill:#FFFFFF;stroke:#000000;stroke-width:3;stroke-miterlimit:10;}
	.st10{fill:none;stroke:#F29200;stroke-width:2;stroke-miterlimit:10;}
	.st11{fill:#F29200;stroke:#F29200;stroke-miterlimit:10;}
	.st12{fill:#851F82;}
	.st13{fill:#851F82;stroke:#F29200;stroke-miterlimit:10;}
	.st14{fill:#5C5C5C;}
	.st15{fill:#F0F0F0;stroke:#F0F0F0;stroke-width:3;stroke-miterlimit:10;}
	.st16{fill:#242424;}
	.st17{fill:#CCCCCC;}
	.st18{fill:#CFCFCF;}
	.st19{fill:none;stroke:#F29200;stroke-width:5;stroke-miterlimit:10;}
	.st20{fill:none;stroke:#000000;stroke-width:5;stroke-miterlimit:10;}
	.st21{fill:none;stroke:#851F82;stroke-width:5;stroke-miterlimit:10;}
	.st22{fill:#DE8110;}
	.st23{fill:none;stroke:#000000;stroke-miterlimit:10;stroke-dasharray:12,12,12,12,12,12;}
	.st24{fill:#9C4399;}
	.st25{fill:#FA9D2A;}
	.st26{fill:none;stroke:#851F82;stroke-width:24;stroke-miterlimit:10;}
	.st27{fill:none;}
	.st28{fill:none;stroke:#851F82;stroke-width:31;stroke-miterlimit:10;}
	.st29{fill:#00984A;}
</style>
<path d="M1180.4,720.42c-22.35-37.7-23.62-87.02-3.23-125.82c17.32-32.97,48.44-57.67,62.73-92.05
	c19.57-47.07,3.63-101.4,13.32-151.44c6.91-35.69,27.39-68.59,56.37-90.54c29.22-22.14,71.15-32.42,102.73-13.79
	c11.07,6.53,20.15,16.14,31.45,22.26c26.15,14.16,58.72,7.3,87.25,15.69c34.87,10.26,59.85,43.04,68.86,78.26
	c9.02,35.22,4.3,72.55-4.37,107.85c-3.27,13.32-7.12,26.79-6.27,40.47c2.35,37.88,38.76,64.83,49.73,101.16
	c8.24,27.29,1.25,56.57-5.76,84.2c-1.08,4.27-2.35,8.83-5.74,11.64c-4.45,3.67-10.91,3.07-16.62,2.28
	c-28.27-3.94-56.54-7.87-85-10.78c-0.62-0.31-1.24-0.62-1.86-0.93"/>
<path class="st6" d="M1331.9,577.68c-45.41-9.92-95.49,5.3-127.69,38.82c-23.17,24.12-36.63,55.73-49.02,86.79
	c-18.39,46.11-35.52,92.73-51.35,139.79c-18.06,53.68-34.64,109.93-27.67,166.13c0.64,5.2,1.56,10.56,4.45,14.93
	c3.77,5.69,10.29,8.83,16.6,11.42c36.56,15.02,77.03,20.43,116.25,15.54c3.05-0.38,6.51-0.71,8.84,1.29
	c2.13,1.83,2.51,4.92,2.72,7.72c1.19,15.88,1.63,31.81,1.33,47.73c-0.08,3.98-0.1,8.29,2.26,11.5c3.06,4.17,8.89,4.91,14.05,5.28
	c90.43,6.58,181.1,9.96,271.77,10.14c16.98,0.03,34.26-0.09,50.48-5.13c2.42-0.75,4.98-1.74,6.39-3.85
	c2.05-3.08,0.89-7.17-0.17-10.72c-17.49-58.88,16.43-123.22,1.79-182.88c21.67-9.75,48.26-6.05,68.33-18.76
	c14.59-9.24,23.19-25.96,26.26-42.96c3.07-17,1.27-34.47-0.95-51.6c-7.64-58.94-20.11-117.25-37.25-174.15
	c-3.81-12.63-8.93-26.52-20.81-32.28c-5.62-2.73-12.03-3.2-18.23-3.93c-19.8-2.33-39.24-7.73-57.41-15.95
	c-15.3-6.92-30.49-16.03-47.28-16.03c-14.68-0.01-28.3,6.99-42.16,11.84C1407.28,601,1371.41,586.32,1331.9,577.68z"/>
<path class="st0" d="M1298.91,380.13c-2.49,39.06-2.2,78.29,0.85,117.31c1.02,13.1,2.49,26.6,8.86,38.1
	c7.09,12.79,19.39,21.63,30.05,31.64c10.65,10.01,20.43,23.01,19.68,37.61c-0.79,15.41-12.85,27.56-24.14,38.09
	c18.37,11.9,41,17.08,64.16,14.17c63.26,84.71,85.49,193.78,144.01,281.83c4.71,7.08,9.85,14.22,17.14,18.6
	c14.44,8.68,33.09,4.33,48.52-2.45c10.47-4.6,21.08-10.78,26.29-20.96c5.62-11,3.72-24.27,0.54-36.21
	c-12.41-46.46-41.56-86.28-67.88-126.53c-34.8-53.23-65.54-109.11-91.85-167c-3.42-7.53-6.78-15.13-8.91-23.12
	c-5.66-21.24-2.31-43.71,1.08-65.43c22.12-9.1,37.35-32.8,36.43-56.71c-0.17-4.49-1.04-9.32-4.3-12.42
	c-9.01-8.54-23.14,3.81-35.52,2.93c-5.28-13.12-1.23-29.14-8.62-41.2c-9.54-15.57-32.36-16.12-46.09-28.16
	c-12.02-10.55-15.32-28.35-26.77-39.52c-13.94-13.6-37.52-13.6-54.14-3.45C1311.67,347.4,1299.84,365.44,1298.91,380.13z"/>
<path class="st0" d="M1111.89,1110.28c14.92,37.28,30.1,74.45,45.56,111.5c21.24,0.16,43.73-0.01,61.9-11
	c2.57-1.56,5.1-3.4,6.6-6.01c1.73-3.03,1.85-6.69,1.85-10.18c0.05-34.67-6.72-69.33-19.8-101.44
	c-15.2,10.74-34.64,14.12-53.21,12.89c-18.57-1.23-36.56-6.71-54.3-12.35C1107.79,1105.34,1114.51,1117.35,1111.89,1110.28z"/>
<path d="M1215.99,1086.62c-19.96-21.76-20.84-54.38-20.55-83.91c0.44-43.86,1.12-88.53,14.86-130.18
	C1203.73,942.71,1197.3,1014.68,1215.99,1086.62z"/>
<path class="st22" d="M1408.74,516.57c-4.12,2.3-6.05,7.38-5.9,12.1c0.14,4.72,1.98,9.2,3.8,13.55
	c4.91,11.81,9.83,23.63,14.74,35.44c-9.26-1.47-18.52,1.98-27.26,5.37c-7.66,2.97-15.88,6.41-20.02,13.51
	c-4.71,8.09-2.62,18.27-0.39,27.37c0.58,2.36,1.17,4.76,2.37,6.88c0.95,1.67,2.26,3.14,3.06,4.89c1.62,3.55,0.89,7.74,1.94,11.5
	c1.04,3.76,5.74,7.14,8.67,4.55c-6.6-12.9-11.63-26.6-14.94-40.7c-0.43-1.85-0.83-3.8-0.28-5.62c0.45-1.48,1.48-2.7,2.53-3.83
	c13.26-14.37,33.18-22.34,52.7-21.07c-6.29-12.44-12.57-24.88-18.86-37.32c-2.61-5.16-5.27-11.04-3.39-16.5
	c1.88-5.46,10.9-7.81,13.21-2.51c0.28-3.63-2.04-7.32-5.44-8.63C1411.88,514.22,1407.68,515.38,1408.74,516.57z"/>
<path class="st0" d="M239.71,836.66c4.44,17.58,5.18,36.09,2.14,53.97c-0.81,4.79-1.89,9.64-1.24,14.45
	c1.89,13.88,16.73,21.64,29.93,26.32c16.58,5.89,33.57,10.59,50.82,14.06c8.93,1.8,18.66,3.16,26.77-0.98
	c9.59-4.9,14.1-16.07,16.35-26.6c5.2-24.32,2.56-49.54-0.1-74.26c-0.4-3.7-0.81-7.46-2.16-10.92c-3.32-8.5-11.69-13.9-19.99-17.7
	c-17.12-7.84-36.47-11.37-55.05-8.31C268.59,809.74,250.92,819.71,239.71,836.66z"/>
<path class="st0" d="M220.47,1237.02c0.71,47.47,0.22,94.96-1.47,142.41c15.47,2.87,31.19,4.4,46.92,4.54
	c2.68,0.02,5.64-0.09,7.62-1.91c2.18-2.01,2.37-5.33,2.4-8.29c0.49-41.19,0.98-82.38,1.46-123.57c0.23-19.01,0.57-38.6,8.07-56.07
	c7.5-17.47,24.05-32.49,43.06-32.19c10.65,0.17,21.63,5.87,25.86,15.64c2.41,5.56,2.49,11.81,2.53,17.87
	c0.45,63.31,0.9,126.62,1.34,189.93c14.42,2.86,29.14,4.23,43.85,4.09c3.08-0.03,6.52-0.27,8.63-2.52c2.09-2.22,2.16-5.61,2.1-8.66
	c-1.11-55.32-3.67-110.61-7.66-165.8c-0.48-6.58-1.05-13.41-4.35-19.12c-3.39-5.87-9.23-9.83-14.87-13.58
	c-14.89-9.9-30.46-20.06-48.19-22.46c-11.42-1.55-23.01,0.26-34.4,2.06c-18.98,3-38.66,6.27-54.55,17.07
	C232.93,1187.28,220.04,1207.89,220.47,1237.02z"/>
<path class="st12" d="M221.38,1101.04c-16.75,36.11-33.51,72.22-50.26,108.33c93.58,31.33,198.41,27.72,289.61-9.98
	c-13.19-36.61-29.84-71.97-49.66-105.46c-2.07-3.49-4.38-7.16-8.08-8.82c-3.48-1.56-7.49-1.04-11.27-0.54
	c-35.1,4.62-70.87,4.09-105.82-1.57"/>
<path d="M326.09,520.49c-46.82-11.09-99.51-1.58-137.31,24.79s-59.74,68.91-57.17,110.87c1.02,16.71,5.55,34.15-1.56,49.71
	c-6.68,14.61-22.32,24.53-32.74,37.39c-22.51,27.79-18.17,65.06-12.89,98.7c4.38,27.92,8.76,55.84,13.15,83.76
	c1.85,11.79,4.46,24.79,15.25,32.16c14.59,9.97,35.79,4.58,53.13-1.22c19.19-6.43,38.38-12.86,57.57-19.29
	c10.73-3.6,21.93-7.47,29.41-15.04c13.86-14.05,9.95-35.98-0.89-51.89s-27.32-28.41-39.07-43.84c-32.8-43.06-23.36-100.5-3.39-149.1
	c4.61-11.22,9.86-22.51,18.72-31.63c9.74-10.03,23.34-16.82,37.61-21.18c45.88-14.04,100.77-2.47,134.06,28.26
	c33.28,30.73,43.09,78.89,23.95,117.61c-10.83,21.91-29.51,40.04-45.71,59.31c-16.2,19.27-30.55,41.31-30.39,65.14
	s19.67,48.9,47.13,50.58c42.88,2.62,75.05-48.63,116.66-39.27c-11.53-38.59,8.24-78.22,20.97-116.52
	c12.73-38.3,15.49-85.9-19.74-111.56c-10.02-7.3-22.45-12.16-31.03-20.73c-12.22-12.19-14.39-29.35-19.7-44.81
	C444.98,562.94,385.27,534.51,326.09,520.49z"/>
<path class="st0" d="M438.69,861.16c20.12-14.52,40.24-29.05,60.36-43.57c-1.32-6.28-2.64-12.76-1.44-19.07
	c1.2-6.31,5.56-12.46,11.85-13.74c3.82-0.78,7.95,0.29,11.6-1.08c2.57-0.96,4.55-3,6.45-4.97c11.27-11.73,22.53-23.47,33.8-35.2
	c5.88-0.19,9.68,7.05,8.33,12.78c-1.35,5.72-5.97,10.01-10.35,13.93c-4.38,3.92-8.99,8.23-10.29,13.96c1.7-4.43,8.62,0.17,8.94,4.9
	s-0.84,10.76,3.26,13.15c1.84,1.08,4.32,0.98,5.83,2.48c2.92,2.92-0.67,8.05,0.64,11.97c0.97,2.88,4.28,4.24,5.97,6.77
	c3.64,5.45-1.65,12.32-6.53,16.69c-11.36,10.16-25.33,21.05-40.19,17.66c-2.54-0.58-5.1-1.58-7.67-1.15
	c-2.01,0.34-3.77,1.53-5.45,2.69c-20.21,13.94-40.41,27.88-60.62,41.83c-5.93,4.09-13.17,8.37-19.9,5.8
	c-5.21-1.99-8.2-7.6-9.18-13.09C421.88,881.28,429.11,868.08,438.69,861.16z"/>
<path class="st0" d="M177.45,960.61c-22.38,10.55-48.27,12.21-72.63,7.85s-47.36-14.47-68.94-26.56c-2.18-1.22-4.77-2.5-7.07-1.51
	c-4.76,2.05-1.75,9.27,1.85,13c6.01,6.23,12.14,12.33,18.4,18.31c-19.37,4.28-38.75,8.56-58.12,12.84c-3.4,0.75-7.54,2.29-7.84,5.76
	c-0.42,4.79,6.65,6.21,11.15,4.52c4.5-1.69,9.63-4.58,13.68-1.99c-9.67,2.75-18.44,8.59-24.7,16.47c9.3,7.53,22.4,8.47,34.22,6.58
	c11.82-1.89,23.14-6.23,34.97-8.07c28.47-4.44,56.88,5.79,84.53,13.92c8.54,2.51,17.4,4.86,26.24,3.84
	c17.88-2.06,31.14-16.97,42.59-30.86c3.88-4.7,7.91-9.76,8.62-15.81C216.02,965.09,198.82,950.54,177.45,960.61z"/>
<path class="st0" d="M209.85,641.82c-20.39,36.67-27.59,80.5-19.99,121.77c-1.4-14.41-23.35-19.22-33.58-8.96
	c-10.23,10.25-8.97,27.98-1.13,40.16c7.84,12.18,20.64,20.11,33.02,27.63c14.6,8.88,29.19,17.75,43.79,26.63
	c30.22,18.38,63.68,37.48,98.69,32.44c24.55-3.53,45.7-18.52,65.79-33.05c27.76-20.09,56.73-41.62,70.68-72.92
	c4.77-10.7,7.5-23.42,2.32-33.94s-20.92-15.8-29.09-7.41c14.88-36.93-1.54-81.71-32.64-106.57
	c-31.11-24.86-73.67-31.87-113.14-26.57C267.57,604.65,230,605.59,209.85,641.82z"/>
<path class="st6" d="M264.76,882.44c-36.67,13.5-70.95,33.49-100.76,58.75c-4.89,4.14-10.13,9.74-8.77,16
	c0.62,2.88,2.58,5.27,4.48,7.53c8.43,10.06,16.86,20.12,25.29,30.17c4.55,5.44,9.49,11.13,16.26,13.24
	c6.77,2.11,15.72-1.22,16.85-8.22c-4.03,29.29-8.06,58.57-12.08,87.86c-0.73,5.28-1.43,10.78,0.25,15.84
	c3.67,11,16.63,15.4,27.98,17.75c60.55,12.59,124.21,9.87,183.46-7.83c3.02-0.9,6.2-1.95,8.24-4.35c2.75-3.22,2.69-7.91,2.44-12.13
	c-2.8-48.22-10.78-96.13-23.75-142.65c20.14-9.14,40.28-18.27,60.41-27.41c-5.52-25.77-15.6-50.56-29.63-72.87
	C384.56,886.99,320.04,897.99,264.76,882.44z"/>
<path class="st26" d="M586.95,288.62L462.77,532.5c-4.63,9.1-1.1,20.23,7.93,24.99l145.64,76.82c4.83,2.55,10.75-0.28,11.8-5.65
	l46.3-236.92l-71.68-104.17C598.79,281.82,590.12,282.39,586.95,288.62z"/>
<path class="st26" d="M676.24,386.99l121.12-82.77c3.13-2.14,7.37,0.11,7.36,3.9l-0.86,223.07c-0.06,14.6-8.69,27.81-22.04,33.72
	l-157.24,69.6c-1,0.44-2.09-0.44-1.85-1.51L676.24,386.99z"/>
<path class="st26" d="M984.36,631.14l-35.41-226.41c-0.83-5.29-3.87-9.98-8.36-12.89l-131.28-85.03c-0.47-0.3-1.09,0.03-1.09,0.59
	l-0.99,235.39l172.39,91.72C981.99,635.77,984.78,633.79,984.36,631.14z"/>
<path class="st26" d="M1142.56,527.37l-82.01-178.88c-4.23-9.22-15.5-12.76-24.24-7.62l-87.33,51.37l39.88,240.61
	c0.05,0.3,0.37,0.46,0.64,0.33l140.37-69.9C1143.11,556.7,1148.72,540.8,1142.56,527.37z"/>
<g>
	<g>
		<path class="st0" d="M1151.27,152.49c-1.02-9.57-2.52-18.14-4.69-23.99c-5.34-14.41-12.15-28.68-23.08-39.48
			c-9.51-9.39-21.7-15.7-34.35-20.04c-35.55-12.2-76.55-9.03-108.67,10.5c-32.12,19.53-54.12,55.62-54.56,93.2
			c-0.23,19.75,5.13,39.12,11.29,57.88c20.92,63.72,51.63,124.21,90.69,178.73c5.15,7.18,15.74,7.45,21.24,0.53
			c28.46-35.8,61.3-99.88,82.34-143.87C1148.35,230.65,1155.43,191.38,1151.27,152.49z M1037.02,239.56
			c-37.93,0-68.67-30.75-68.67-68.67s30.75-68.67,68.67-68.67s68.67,30.75,68.67,68.67S1074.95,239.56,1037.02,239.56z"/>
	</g>
</g>
</svg>
