<?xml version="1.0" encoding="utf-8"?>
<!-- Generator: Adobe Adobe Illustrator 24.2.0, SVG Export Plug-In . SVG Version: 6.00 Build 0)  -->
<svg version="1.1" id="Layer_1" xmlns="http://www.w3.org/2000/svg" xmlns:xlink="http://www.w3.org/1999/xlink" x="0px" y="0px"
	 width="1650px" height="1161.99px" viewBox="0 0 1650 1161.99" style="enable-background:new 0 0 1650 1161.99;"
	 xml:space="preserve">
<style type="text/css">
	.st0{fill:#F29200;}
	.st1{fill:none;stroke:#000000;stroke-width:3;stroke-miterlimit:10;}
	.st2{fill:#F0F0F0;stroke:#000000;stroke-width:3;stroke-miterlimit:10;}
	.st3{fill:#FFFFFF;}
	.st4{fill:#F0F0F0;stroke:#F0F0F0;stroke-miterlimit:10;}
	.st5{fill:none;stroke:#000000;stroke-width:4;stroke-miterlimit:10;}
	.st6{fill:#F0F0F0;}
	.st7{fill:none;stroke:#F29200;stroke-width:3;stroke-miterlimit:10;}
	.st8{fill:#F27500;}
	.st9{fill:#FFFFFF;stroke:#000000;stroke-width:3;stroke-miterlimit:10;}
	.st10{fill:none;stroke:#F29200;stroke-width:2;stroke-miterlimit:10;}
	.st11{fill:#F29200;stroke:#F29200;stroke-miterlimit:10;}
	.st12{fill:#851F82;}
	.st13{fill:#851F82;stroke:#F29200;stroke-miterlimit:10;}
	.st14{fill:#5C5C5C;}
	.st15{fill:#F0F0F0;stroke:#F0F0F0;stroke-width:3;stroke-miterlimit:10;}
	.st16{fill:#242424;}
	.st17{fill:#CCCCCC;}
	.st18{fill:#CFCFCF;}
	.st19{fill:none;stroke:#F29200;stroke-width:5;stroke-miterlimit:10;}
	.st20{fill:none;stroke:#000000;stroke-width:5;stroke-miterlimit:10;}
	.st21{fill:none;stroke:#851F82;stroke-width:5;stroke-miterlimit:10;}
	.st22{fill:#DE8110;}
	.st23{fill:none;stroke:#000000;stroke-miterlimit:10;stroke-dasharray:12,12,12,12,12,12;}
	.st24{fill:#9C4399;}
	.st25{fill:#FA9D2A;}
	.st26{fill:none;stroke:#851F82;stroke-width:24;stroke-miterlimit:10;}
	.st27{fill:none;}
	.st28{fill:none;stroke:#851F82;stroke-width:31;stroke-miterlimit:10;}
	.st29{fill:#00984A;}
</style>
<path class="st12" d="M577.62,369.18L577.62,369.18c0-4.42,3.58-8,8-8h160c4.42,0,8,3.58,8,8l0,0c0,4.42-3.58,8-8,8h-160
	C581.21,377.18,577.62,373.59,577.62,369.18z"/>
<path class="st12" d="M577.62,467.85L577.62,467.85c0-4.42,3.58-8,8-8h160c4.42,0,8,3.58,8,8v0c0,4.42-3.58,8-8,8h-160
	C581.21,475.85,577.62,472.27,577.62,467.85z"/>
<path class="st12" d="M577.62,577.99L577.62,577.99c0-4.42,3.58-8,8-8h160c4.42,0,8,3.58,8,8l0,0c0,4.42-3.58,8-8,8h-160
	C581.21,585.99,577.62,582.41,577.62,577.99z"/>
<path class="st12" d="M577.62,678.99L577.62,678.99c0-4.42,3.58-8,8-8h160c4.42,0,8,3.58,8,8l0,0c0,4.42-3.58,8-8,8h-160
	C581.21,686.99,577.62,683.41,577.62,678.99z"/>
<path class="st0" d="M822.26,390.2c-8.1-7.7-15.5-16.14-22.08-25.17c-3.03-4.16-5.49-10.89-1.14-13.65
	c2.23-1.42,5.16-0.81,7.63,0.12c4.98,1.88,9.52,4.88,13.2,8.73c1.99,2.08,4.06,4.58,6.93,4.81c2.46,0.19,4.67-1.38,6.56-2.97
	c16.93-14.22,27.15-35.49,45.13-48.37c2.2-1.58,4.8-3.08,7.45-2.57c3.32,0.63,5.35,4.3,5.27,7.67c-0.08,3.38-1.74,6.49-3.44,9.41
	c-12.44,21.5-28.53,40.65-45.08,59.18c-2.81,3.15-5.85,6.42-9.89,7.66S823.49,394.54,822.26,390.2z"/>
<path class="st0" d="M822.26,486.44c-8.1-7.7-15.5-16.14-22.08-25.17c-3.03-4.16-5.49-10.89-1.14-13.65
	c2.23-1.42,5.16-0.81,7.63,0.12c4.98,1.88,9.52,4.88,13.2,8.73c1.99,2.08,4.06,4.58,6.93,4.81c2.46,0.19,4.67-1.38,6.56-2.97
	c16.93-14.22,27.15-35.49,45.13-48.37c2.2-1.58,4.8-3.08,7.45-2.57c3.32,0.63,5.35,4.3,5.27,7.67c-0.08,3.38-1.74,6.49-3.44,9.41
	c-12.44,21.5-28.53,40.65-45.08,59.18c-2.81,3.15-5.85,6.42-9.89,7.66S823.49,490.78,822.26,486.44z"/>
<path class="st28" d="M514.21,728.64V279.43c0-33.35,27.04-60.39,60.39-60.39h315.22c33.35,0,60.39,27.04,60.39,60.39v449.22
	c0,33.35-27.04,60.39-60.39,60.39H574.61C541.25,789.04,514.21,762,514.21,728.64z"/>
<path class="st0" d="M822.26,593.44c-8.1-7.7-15.5-16.14-22.08-25.17c-3.03-4.16-5.49-10.89-1.14-13.65
	c2.23-1.42,5.16-0.81,7.63,0.12c4.98,1.88,9.52,4.88,13.2,8.73c1.99,2.08,4.06,4.58,6.93,4.81c2.46,0.19,4.67-1.38,6.56-2.97
	c16.93-14.22,27.15-35.49,45.13-48.37c2.2-1.58,4.8-3.08,7.45-2.57c3.32,0.63,5.35,4.3,5.27,7.67c-0.08,3.38-1.74,6.49-3.44,9.41
	c-12.44,21.5-28.53,40.65-45.08,59.18c-2.81,3.15-5.85,6.42-9.89,7.66C828.75,599.52,823.49,597.78,822.26,593.44z"/>
<path class="st0" d="M470.35,1044.56c28.99-35.67,57.99-71.35,86.98-107.02c2.9-3.57,5.85-7.23,7.32-11.58
	c2.47-7.3,0.4-15.29,0.98-22.97c0.76-10.04,5.96-19.12,11.12-27.77c11.54-19.32,23.47-38.41,35.79-57.24
	c8.69,6.51,5.88,20.22,0.77,29.8s-11.9,20.15-8.39,30.43c13.78,4.58,24.31,17.71,25.77,32.16s-6.22,29.43-18.81,36.67
	c-7.69,4.42-17.02,6.22-23.42,12.37c-4.26,4.09-6.71,9.66-9.17,15.02c-12.03,26.23-26.72,51.23-43.76,74.51
	c-12.43,16.98-26.64,33.48-45.38,43.05c-11.98,6.12-29.2,7.87-36.64-3.34c-6.21-9.34-1.59-22.24,5.63-30.82
	S476.01,1042.65,470.35,1044.56z"/>
<path class="st0" d="M279.4,1139.27c-38.15,42.02-50.46,101.53-83.12,147.95c-8.69,12.35-19.23,28.05-11.56,41.06
	c6.06,10.28,19.99,11.93,31.91,12.44c5.76-9.31,11.52-18.62,17.28-27.93c2.69-4.35,6.96-9.35,11.85-7.84
	c5.4,1.67,9.41,10.66,13.9,7.23c0.93-0.71,1.45-1.83,1.77-2.95c3.28-11.32-9.4-20.55-13.15-31.72
	c-5.82-17.35,10.42-33.31,22.59-46.98c20.57-23.1,32.71-52.29,44.49-80.89c2.25-5.45,4.54-11.25,3.65-17.08
	c-0.89-5.83-6.31-11.4-12.08-10.17c-2.7,0.57-4.91,2.45-6.92,4.35C292.28,1134.04,285.67,1142.53,279.4,1139.27z"/>
<path class="st29" d="M821.05,714.04c-13.1-12.45-25.07-26.1-35.72-40.71c-4.9-6.73-8.88-17.61-1.85-22.08
	c3.6-2.29,8.34-1.31,12.34,0.2c8.05,3.03,15.4,7.9,21.34,14.11c3.22,3.37,6.56,7.41,11.21,7.78c3.97,0.31,7.56-2.23,10.61-4.8
	c27.38-23,43.92-57.4,72.99-78.23c3.56-2.55,7.76-4.97,12.06-4.16c5.37,1.02,8.66,6.95,8.53,12.41c-0.13,5.46-2.82,10.5-5.56,15.22
	c-20.12,34.78-46.15,65.75-72.91,95.71c-4.55,5.1-9.46,10.39-16,12.38C831.56,723.88,823.04,721.06,821.05,714.04z"/>
<path class="st6" d="M333,1055.5c-21.27,18.06-42.54,36.11-63.81,54.17c-6.47,5.5-13.17,11.28-16.48,19.1
	c-5.44,12.83,0,28.41,10.22,37.89s24.25,13.77,38.07,15.65c-6.37,32.27-12.74,64.54-19.11,96.81c-1.05,5.3-2.07,10.91-0.26,16
	c4.19,11.73,19.74,13.58,32.19,13.42c38.69-0.5,77.39-1,116.08-1.5c10.88-0.14,22.56-0.54,31.29-7.03
	c15.24-11.34,13.71-34.2,10.63-52.94c-3.67-22.39-7.35-44.79-11.02-67.18c-2.15-13.1-4.24-26.93,0.45-39.35
	c7.09-18.8,28.18-30.25,33.19-49.7c4.75-18.47-9.7-39.45-28.66-41.58c-11.45-1.29-22.64,3.34-34.02,5.11
	c-18.01,2.8-36.25-1.6-54.41-3.08S338.28,1051.01,333,1055.5z"/>
<path d="M307.3,777.32c-17.39-8.29-32.17-21.96-41.78-38.65c5.07,11.33,16.43,19.6,28.77,20.94c-9.54-13.88-7.12-34.68,5.37-45.99
	c-1.46,16.73,6.59,33.97,20.35,43.59c-2.52-17.37,7.63-35.81,23.65-42.97c-3.73,13.33-7.46,26.67-11.2,40
	c21.45-13.97,44.64-28.46,70.23-27.85c50.05,1.19,89.1,59.27,138.37,50.36c-7.2,4.31-14.4,8.62-21.6,12.93
	c20.9,14,29.47,40.76,30.98,65.88s-2.54,50.38-0.15,75.43c1.61,16.79,5.87,34.87-2.16,49.71c-7.15,13.21-22.2,20.05-31.66,31.71
	c-7.62,9.39-11.52,21.78-20.81,29.53c-18.63,15.55-46.66,4.65-70.77,7.44c-26.44,3.07-50.05,23.46-76.48,20.34
	c-11.32-1.34-21.71-6.95-32.87-9.3c-11.16-2.35-24.83-0.19-30.39,9.76c-0.28-14.67-14.07-27.69-28.72-27.14
	c-4.54,0.17-9.14,1.45-13.55,0.34c-9.17-2.3-12.85-13.47-12.83-22.92s2.05-19.42-1.89-28.01c-11.68,1.84-21.4,12.39-22.29,24.18
	c-21.08-16.39-26.22-49.86-11.03-71.83c-6.1,2.22-12.21,4.45-18.31,6.67c-8.35-32.21,6.81-69.06,35.42-86.05
	c-9.09,7.26-23.15,7.43-32.41,0.39c-9.26-7.04-12.86-20.63-8.3-31.33c7.56,7.07,19.15,9.49,28.91,6.04
	c23.35-8.28,26-40.44,42.5-58.92C253.43,769.52,270.88,763.83,307.3,777.32z"/>
<path class="st0" d="M1317.91,736.75c-10.81,33.13-6.56,70.85,11.35,100.75c6.44,10.75,14.56,20.55,19.77,31.95
	c8.87,19.42,8.33,42.89-1.42,61.88c-1.02,1.98-2.16,3.95-3.88,5.36c-2.5,2.05-5.86,2.65-9.06,3.13
	c-23.46,3.53-47.25,4.85-70.96,3.93c-2.79-0.11-6.1,0-7.67,2.31c-1.64,2.42-0.32,5.67,1.05,8.25
	c16.08,30.23,36.95,57.91,61.58,81.69c16.43,15.86,34.81,30.16,55.88,38.98c21.07,8.82,45.12,11.82,66.96,5.1
	c22.63-6.96,41.24-23.81,54.34-43.53c13.1-19.71,21.24-42.27,28.36-64.85c1.6-5.08,3.1-10.84,0.53-15.5
	c-2.89-5.25-9.59-6.78-15.49-7.79c-16.75-2.86-34.59-6.35-46.66-18.3c-15.82-15.66-16.76-40.81-13.78-62.87s8.79-44.74,2.85-66.2
	c-6.93-25.02-28.28-42.93-48.51-59.2C1390.56,731.72,1375.48,720.97,1317.91,736.75z"/>
<path class="st0" d="M1022.46,955.43c-21.5,2.76-47.65,3.58-59.93-14.28c-3.98-5.78-5.77-12.75-7.47-19.55
	c-20.89-83.34-39.7-167.21-56.4-251.49c-1.51-7.62-3.35-15.87-9.31-20.86c-5.12-4.29-12.16-5.21-18.46-7.42
	c-28.96-10.13-38.45-53.64-16.76-75.35c11.67-11.68,29.86-16.36,45.71-11.76c-6.16-14.98-16.29-28.3-29.08-38.23
	c-3.96-3.08-8.47-6.25-9.68-11.12c-2.77-11.14,14.59-17.39,24.37-11.36s14.51,17.57,22.45,25.86c7.69,8.04,18.37,12.99,25.11,21.83
	c9.43,12.37,9.11,29.25,11.31,44.64c4.45,31.03,20.44,58.98,34.13,87.19c47.51,97.92,71.52,209.91,143.41,291.63"/>
<path class="st6" d="M1042.02,860.86c-28.51,22.97-51.95,52.22-68.17,85.05c-6.79,13.74-11.91,31.47-2.22,43.35
	c6.56,8.05,17.64,10.34,27.63,13.19c49.7,14.15,88.48,52.38,122.96,90.88c16.32,18.22,32.45,37.21,42.23,59.63
	c11.23,25.75,13.41,54.43,14.48,82.5c3.55,93.28-3.5,186.96-20.99,278.65c-6.22,32.63-12.67,70.12,8.18,95.99
	c10.86,13.47,27.24,20.96,42.11,29.82c32.45,19.34,59.63,46.82,92.85,64.8c28.75,15.57,60.94,23.43,92.71,31.14
	c10.47,2.54,21.22,5.1,31.9,3.69c29.51-3.89,46.68-35.01,72.13-50.44c9.65-5.85,20.75-9.56,29.05-17.2
	c17.13-15.77,17.04-42.36,15.59-65.6c-7.09-112.96-16.41-227.75,8.06-338.25c7.21,19.14,14.43,38.27,21.64,57.41
	c1.89,5,4.1,10.4,8.77,13.02c7.4,4.15,16.42-0.77,23.43-5.54c19.03-12.95,38.05-25.91,57.08-38.86c5.07-3.45,10.39-7.21,12.74-12.87
	c2.55-6.15,1.03-13.14-0.52-19.62c-15.38-64.07-30.76-128.15-46.14-192.22c-4.11-17.14-8.35-34.58-17.37-49.72
	c-20.21-33.92-65.22-50.73-102.72-38.36c-16.81,5.55-31.51,16.02-47.53,23.56c-50.64,23.83-114.92,15.07-157.34-21.43
	c-15.98-13.76-28.91-30.9-45.63-43.74c-21.12-16.22-47.03-24.65-72.38-32.79C1137.52,891.78,1090.53,876.69,1042.02,860.86z"/>
<path d="M1451.16,623.93c-36.05-7.06-74.57-0.71-106.45,17.54c-9.19,5.26-18.04,11.68-23.84,20.54
	c-9.22,14.11-9.38,32.02-12.74,48.53c-2.6,12.77-7.24,26.15-2.89,38.43c6.52,18.4,30.11,25.69,38.28,43.42
	c5.82,12.64,2.63,28.3,9.51,40.39c3.46,6.09,9.11,10.57,14.63,14.89c13.75,10.78,28.78,22.05,46.24,22.64
	c25.74,0.87,46.07-21.3,70.55-29.32c16.76,100.92-40.65,203.65-22.09,304.26c5.61,30.39,18.18,59.48,36.47,84.39
	c0.78,1.06,1.61,2.14,2.78,2.72c1.37,0.67,2.97,0.54,4.48,0.33c19.37-2.67,36.84-16.34,44.09-34.49
	c4.46-11.15,5.19-23.38,7.66-35.13c3.51-16.69,10.53-32.4,16.09-48.53c21.15-61.39,20.82-127.8,20.26-192.73
	c-0.24-27.43-0.48-55-5.02-82.06c-2.22-13.27-5.75-26.92-14.6-37.05c-3.83-4.39-8.53-7.95-12.63-12.08
	c-15.09-15.2-21.18-36.83-28.91-56.8C1517.12,692.67,1499.65,633.43,1451.16,623.93z"/>
<path class="st12" d="M784.37,216.05c6-16.93,4.61-36.59-4.77-51.9c-9.38-15.32-26.9-25.64-44.85-25.26
	c-7.74,0.16-15.34,2.19-22.64,4.77c-9.44,3.33-18.71,7.73-25.97,14.62c-7.26,6.89-12.32,16.59-11.85,26.59
	c0.62,13.19,10.24,23.98,10.02,38.84c-19.24,0.6-38.41,3.26-57.09,7.91c-13.04,3.25-27.57,9.12-31.66,21.92
	c-4.02,12.57,4.69,26.35,16.28,32.66c11.59,6.32,25.28,7.05,38.45,7.86c64.29,3.98,131.11,12.98,191.37-9.78
	c5.67-2.14,11.4-4.66,15.62-9c5.07-5.21,7.46-12.61,7.71-19.88c0.75-21.39-18.23-41.48-39.63-41.95
	C813.6,213.2,802.18,218.05,784.37,216.05z"/>
</svg>
