<?xml version="1.0" encoding="utf-8"?>
<!-- Generator: Adobe Adobe Illustrator 24.2.0, SVG Export Plug-In . SVG Version: 6.00 Build 0)  -->
<svg version="1.1" id="Layer_1" xmlns="http://www.w3.org/2000/svg" xmlns:xlink="http://www.w3.org/1999/xlink" x="0px" y="0px"
	 width="1721.94px" height="1161.99px" viewBox="0 0 1721.94 1161.99" style="enable-background:new 0 0 1721.94 1161.99;"
	 xml:space="preserve">
<style type="text/css">
	.st0{fill:#F29200;}
	.st1{fill:none;stroke:#000000;stroke-width:3;stroke-miterlimit:10;}
	.st2{fill:#F0F0F0;stroke:#000000;stroke-width:3;stroke-miterlimit:10;}
	.st3{fill:#FFFFFF;}
	.st4{fill:#F0F0F0;stroke:#F0F0F0;stroke-miterlimit:10;}
	.st5{fill:none;stroke:#000000;stroke-width:4;stroke-miterlimit:10;}
	.st6{fill:#F0F0F0;}
	.st7{fill:none;stroke:#F29200;stroke-width:3;stroke-miterlimit:10;}
	.st8{fill:#F27500;}
	.st9{fill:#FFFFFF;stroke:#000000;stroke-width:3;stroke-miterlimit:10;}
	.st10{fill:none;stroke:#F29200;stroke-width:2;stroke-miterlimit:10;}
	.st11{fill:#F29200;stroke:#F29200;stroke-miterlimit:10;}
	.st12{fill:#851F82;}
	.st13{fill:#5C5C5C;}
	.st14{fill:#F0F0F0;stroke:#F0F0F0;stroke-width:3;stroke-miterlimit:10;}
	.st15{fill:#242424;}
	.st16{fill:#CCCCCC;}
	.st17{fill:#CFCFCF;}
	.st18{fill:none;stroke:#F29200;stroke-width:5;stroke-miterlimit:10;}
	.st19{fill:none;stroke:#000000;stroke-width:5;stroke-miterlimit:10;}
	.st20{fill:none;stroke:#851F82;stroke-width:5;stroke-miterlimit:10;}
	.st21{fill:#DE8110;}
	.st22{fill:#61115E;}
</style>
<path class="st6" d="M477.36,864.47c20.27,2.44,41.14,1.93,61.78,1.5c93.98-1.96,188.07-2.05,282.06-0.28
	c-16.6,13.4-16.86,33.41-0.61,46.97c-101.15,0.88-202.3,1.76-303.46,2.64c-14.04,0.12-30.72-0.59-37.96-7.9
	c-4.62-4.67-3.66-10.52-3.13-15.95C476.9,882.68,469.52,873.88,477.36,864.47z"/>
<path class="st0" d="M288.46,859.88c94.04-0.35,485.68-1.83,536.99-2.32c4.28-0.04,7.71,3.79,6.9,7.99
	c-0.01,0.03-0.01,0.05-0.02,0.08c-0.56,2.74-3.24,5.25-5.95,4.54l-294.04-2.94l-10.25,0.31c-3.96,0.12-7.01,3.54-6.68,7.49
	l2.48,29.65c0.3,3.56,3.25,6.31,6.82,6.34c43.31,0.38,295.46,2.57,295.02,2.18c2.04-0.14,4.11,1.18,4.82,3.1
	c0.72,1.92,0.03,4.27-1.6,5.51c-1.55,1.17-3.63,1.29-5.57,1.23c0,0-511.66-0.02-538.51-0.25c-0.7-0.01-1.4-0.1-2.06-0.33
	c-10.97-3.73-19.34-14.26-20.4-25.81c-0.36-3.98,0.07-8.01,0.93-11.92c0.02-0.09,0.04-0.18,0.06-0.26
	C260.68,870.05,273.68,859.94,288.46,859.88z"/>
<path class="st6" d="M394.53,766.29c20.27,4.02,41.14,3.18,61.78,2.47c93.98-3.23,188.07-3.38,282.06-0.46
	c-16.6,22.07-16.86,55.02-0.61,77.35c-101.15,1.45-202.3,2.89-303.46,4.34c-14.04,0.2-30.72-0.98-37.96-13.01
	c-4.62-7.68-3.66-17.32-3.13-26.27C394.06,796.28,386.68,781.79,394.53,766.29z"/>
<path d="M382.08,746.41c117.43,4.86,223.75,0.78,352.73,6.12c3.72,0.15,6.6-0.78,10.17,1.89c1.78,1.33,2.29,3.89,1.54,5.99
	c-0.89,2.5-2.28,6.49-4.47,6.92c-13.51,2.63-27.43,1.43-41.17,0.56c-36.68-2.32-73.47-2.15-110.22-1.99
	c-59.28,0.26-118.61,0.53-177.75,4.6c-7.67,0.53-16.92,2.24-19.58,9.46c-1.37,3.72-0.47,7.84,0.47,11.69
	c3.24,13.32,6.71,26.58,10.42,39.78c1.18,4.2,2.61,8.71,6.17,11.23c3.25,2.3,7.51,2.38,11.49,2.38
	c98.43-0.07,196.86-0.13,295.29-0.2c10.81-0.01,21.45-3.16,29.93,3.97c1.77,1.48,2.88,3.68,2.68,5.98
	c-0.51,5.71-2.71,9.27-12.65,9.27c-104.19,0-208.15,1.92-312.33,0.54c-8.61-0.11-17.59-0.42-25.19-4.46
	c-8.74-4.65-14.3-13.5-19.46-21.95c-8.09-13.26-16.36-26.99-18.55-42.37C359.4,780.43,363.93,759.48,382.08,746.41z"/>
<path class="st6" d="M611.06,700.06c20.27,2.44,41.14,1.93,61.78,1.5c93.98-1.96,188.07-2.05,282.06-0.28
	c-16.6,13.4-16.86,33.41-0.61,46.97c-101.15,0.88-202.3,1.76-303.46,2.64c-14.04,0.12-30.72-0.59-37.96-7.9
	c-4.62-4.67-3.66-10.52-3.13-15.95C610.59,718.28,603.21,709.48,611.06,700.06z"/>
<path class="st0" d="M422.16,695.48c94.04-0.35,485.68-1.83,536.99-2.32c4.28-0.04,7.71,3.79,6.9,7.99
	c-0.01,0.03-0.01,0.05-0.02,0.08c-0.56,2.74-3.24,5.25-5.95,4.54l-294.04-2.94l-10.25,0.31c-3.96,0.12-7.01,3.54-6.68,7.49
	l2.48,29.65c0.3,3.56,3.25,6.31,6.82,6.34c43.31,0.38,295.46,2.57,295.02,2.18c2.04-0.14,4.11,1.18,4.82,3.1
	c0.72,1.92,0.03,4.27-1.6,5.51c-1.55,1.17-3.63,1.29-5.57,1.23c0,0-511.66-0.02-538.51-0.25c-0.7-0.01-1.4-0.1-2.06-0.33
	c-10.97-3.73-19.34-14.26-20.4-25.81c-0.36-3.98,0.07-8.01,0.93-11.92c0.02-0.09,0.04-0.18,0.06-0.26
	C394.38,705.65,407.38,695.54,422.16,695.48z"/>
<path class="st6" d="M528.22,601.88c20.27,4.02,41.14,3.18,61.78,2.47c93.98-3.23,188.07-3.38,282.06-0.46
	c-16.6,22.07-16.86,55.02-0.61,77.35c-101.15,1.45-202.3,2.89-303.46,4.34c-14.04,0.2-30.72-0.98-37.96-13.01
	c-4.62-7.68-3.66-17.32-3.13-26.27C527.76,631.88,520.38,617.39,528.22,601.88z"/>
<path d="M515.78,582c117.43,4.86,223.75,0.78,352.73,6.12c3.72,0.15,6.6-0.78,10.17,1.89c1.78,1.33,2.29,3.89,1.54,5.99
	c-0.89,2.5-2.28,6.49-4.47,6.92c-13.51,2.63-27.43,1.43-41.17,0.56c-36.68-2.32-73.47-2.15-110.22-1.99
	c-59.28,0.26-118.61,0.53-177.75,4.6c-7.67,0.53-16.92,2.24-19.58,9.46c-1.37,3.72-0.47,7.84,0.47,11.69
	c3.24,13.32,6.71,26.58,10.42,39.78c1.18,4.2,2.61,8.71,6.17,11.23c3.25,2.3,7.51,2.38,11.49,2.38
	c98.43-0.07,196.86-0.13,295.29-0.2c10.81-0.01,21.45-3.16,29.93,3.97c1.77,1.48,2.88,3.68,2.68,5.98
	c-0.51,5.71-2.71,9.27-12.65,9.27c-104.19,0-208.15,1.92-312.33,0.54c-8.61-0.11-17.59-0.42-25.19-4.46
	c-8.74-4.65-14.3-13.5-19.46-21.95c-8.09-13.26-16.36-26.99-18.55-42.37C493.1,616.03,497.62,595.08,515.78,582z"/>
<path class="st0" d="M1036.94,90.34l5.94-2.94c0.92-0.45,2.01-0.04,2.45,0.91l12.45,27.5c0.43,0.96,0.04,2.1-0.87,2.56l-5.94,2.94
	c-0.92,0.45-2.01,0.04-2.45-0.91l-12.45-27.5C1035.63,91.93,1036.02,90.79,1036.94,90.34z"/>
<path class="st0" d="M1153.26,97.65l5.74,3.34c0.89,0.52,1.2,1.69,0.71,2.61l-14.17,26.57c-0.49,0.93-1.61,1.26-2.5,0.74l-5.74-3.34
	c-0.89-0.52-1.2-1.69-0.71-2.61l14.17-26.57C1151.26,97.46,1152.37,97.13,1153.26,97.65z"/>
<path class="st0" d="M964.85,154.51l3.2-6c0.49-0.93,1.61-1.26,2.5-0.74l25.43,14.81c0.89,0.52,1.2,1.69,0.71,2.61l-3.2,6
	c-0.49,0.93-1.61,1.26-2.5,0.74l-25.43-14.81C964.68,156.61,964.36,155.44,964.85,154.51z"/>
<path class="st0" d="M1217.24,206.38l-0.73-6.82c-0.11-1.05-1.02-1.81-2.03-1.69l-28.93,3.4c-1.01,0.12-1.73,1.07-1.62,2.12
	l0.73,6.82c0.11,1.05,1.02,1.81,2.03,1.69l28.93-3.4C1216.63,208.38,1217.36,207.43,1217.24,206.38z"/>
<path class="st0" d="M1202.94,304.21l3.2-6c0.49-0.93,0.18-2.1-0.71-2.61L1180,280.79c-0.89-0.52-2.01-0.18-2.5,0.74l-3.2,6
	c-0.49,0.93-0.18,2.1,0.71,2.61l25.43,14.81C1201.33,305.47,1202.45,305.14,1202.94,304.21z"/>
<g>
	<g>
		<path class="st0" d="M1122.65,153.25c-42.9-24.99-97.06-8.9-120.97,35.94c-17.51,32.84-13.94,71.98,6.08,100.4l-18.32,34.36
			c-2.05,3.84-0.73,8.69,2.95,10.83l49.33,28.73c3.67,2.14,8.31,0.76,10.36-3.08l17.89-33.55c34.37,3.8,69.19-13.66,87.07-47.2
			C1180.95,234.84,1165.56,178.24,1122.65,153.25z"/>
	</g>
</g>
<path d="M528.85,1007.48c15.7,5.32,31.4,10.64,47.1,15.96c6.44,2.18,13.87,5.46,15.12,12.14c0.73,3.91-1.03,7.89-3.37,11.11
	c-11.13,15.31-32.89,17.22-51.82,17.13c-15.78-0.08-31.55-0.57-47.31-1.49c-7.23-0.42-15.65-1.65-19.19-7.97
	c-2.46-4.4-1.63-9.84-0.73-14.8c1.92-10.53,3.83-21.05,5.75-31.58c0.3-1.67,0.66-3.44,1.85-4.64c1.85-1.86,4.88-1.61,7.48-1.23
	C500.04,1004.53,516.98,1003.45,528.85,1007.48z"/>
<path d="M345.35,1045.05c11.79,9.83,23.58,19.66,35.36,29.49c9.6,8,20.22,19.86,15.19,31.3c-1.93,4.38-5.95,7.57-10.33,9.5
	c-15.87,6.99-33.98-1.15-49.37-9.14c-8.26-4.29-16.52-8.58-24.78-12.87c-10.35-5.38-21-10.99-28.44-19.97
	c-8.49-10.25-11.92-24.52-9-37.51c2.92-12.99,12.11-24.42,24.18-30.06C311.03,1018.71,326.24,1029.12,345.35,1045.05z"/>
<path class="st21" d="M397.37,305.42c0.77-3.3-3.3-6.15-6.59-5.35s-5.51,3.91-6.79,7.05c-3.99,9.77-1.19,21.92,6.69,28.95
	c4.49,4.01-0.78,18.92,3.19,23.45c5.13,5.85,15.45,5.45,21.6,10.21c6.85,5.31,19.49,0,26.21-5.47c6.73-5.47,10.64-13.57,14.34-21.41
	c3.12-6.6,6.3-13.43,6.54-20.73c0.16-4.93-1.03-9.79-2.27-14.56c-1.84-7.1-1.55-18.63-3.6-25.67c-2.18-7.52-7.55-11.5-14.86-14.33
	c-9.22-3.56-18.93,4.07-24.64,12.14S406.53,297.5,397.37,305.42z"/>
<path d="M350.28,252.84c-12.04,6.4-16.34,21.7-16.1,35.32c0.24,13.63,3.78,27.21,2.24,40.76c-2.44,21.5-17.34,40.1-19.57,61.63
	c-1.19,11.47,1.56,23.56,8.74,32.58c7.19,9.02,19.04,14.51,30.45,12.84c16-2.34,27.14-17.13,33.85-31.85
	c7.17-15.71,11.42-32.75,12.46-49.99c0.22-3.55,0.26-7.28-1.3-10.48c-1.44-2.93-4.05-5.07-6.35-7.38
	c-4.42-4.45-7.88-9.84-10.07-15.72c-1.46-3.93-2.36-8.27-1.25-12.32c1.11-4.05,4.7-7.63,8.89-7.62s8.02,4.69,6.33,8.53
	c7.46-4.96,11.11-13.79,15.41-21.65c4.3-7.86,10.78-15.87,19.71-16.56c7.36-0.57,14.29,4.28,18.31,10.47
	c4.03,6.19,5.71,13.56,7.32,20.77c5.08-15.91,4.86-33.76-2.15-48.92c-7.01-15.16-21.13-27.23-37.55-30.26
	c-13.41-2.48-27.37,0.99-39.54,7.13C367.94,236.24,359.61,247.89,350.28,252.84z"/>
<path class="st12" d="M837.65,443.54c117.78-24.39,241.77-19.21,358.34,13.21c4.17,1.16,8.45,1.86,12.78,1.95
	c109.9,2.49,222.7-24.34,329.47-8.03c31.48,4.81,51.16,36.71,41.79,67.14l-136.41,442.74c-6.62,21.5-26.24,36.37-48.73,36.94
	l-663.09,16.78c-34.66,0.88-60.59-31.55-52.11-65.17L797.56,482C802.46,462.57,818.02,447.6,837.65,443.54z"/>
<path d="M604.04,496.58c65.42-70.92,130.84-141.83,196.26-212.75c2.94-3.19,6.07-6.5,10.2-7.82c4.13-1.32,9.51,0.21,10.92,4.31
	c-65.58,70.62-131.17,141.24-196.75,211.87c-7.19,7.74-15.38,16-25.91,16.92C601.35,499.97,607.49,491.88,604.04,496.58z"/>
<path class="st12" d="M375.39,612.9c18.94,78.45,37.49,163.12,6.96,237.83c-22.35,54.68-68.82,97.29-88.54,152.97
	c-1.46,4.13-2.78,8.59-1.7,12.83c1.3,5.08,5.72,8.67,9.95,11.78c9.92,7.3,20.23,14.07,30.87,20.27c4.28,2.49,8.96,4.98,13.89,4.48
	c7.43-0.75,12.39-7.79,16.25-14.19c39.96-66.22,73.24-136.48,99.16-209.35c2.39,59.18,4.79,118.37,7.18,177.55
	c20.38,0.02,40.75,0.05,61.13,0.07c-29.08-128.48-8.63-262.78-21.07-393.92c-0.4-4.24-1.03-8.88-4.17-11.76
	c-3.56-3.26-8.98-3.07-13.8-2.67C453.83,601.85,416.16,604.92,375.39,612.9z"/>
<path class="st6" d="M416.92,373.7c-15.85-4.08-32.35,7.5-39.48,22.23c-7.13,14.73-7.16,31.76-7.05,48.13
	c0.35,51.59,0.69,103.18,1.04,154.77c0.04,6.16,0.34,12.99,4.64,17.4c4.43,4.54,11.49,4.9,17.84,4.96
	c35.41,0.35,70.82,0.7,106.23,1.04c3.25,0.03,6.95-0.14,9.03-2.63c1.79-2.14,1.69-5.23,1.5-8.02
	c-4.5-65.23-12.99-130.19-25.38-194.39c-3.05-15.81-7.34-33.14-20.6-42.28c-18.42-12.69-45.49-3.59-64.49-15.4
	C396.14,370.15,392.07,380.79,416.92,373.7z"/>
<path class="st21" d="M462.33,480.16c1.49-7.67,2.97-15.34,4.46-23c10.06,0,18.48,7.11,26.58,13.08
	c30.49,22.46,67.97,32.82,104.52,42.73c1.64,7.77,0.9,16.03-2.08,23.39c-41.85-6.47-85.73-13.79-119.08-39.88
	C468.94,490.36,461.84,482.71,462.33,480.16z"/>
<path class="st21" d="M570.41,521.54c6.25,5.43,12.5,10.85,18.75,16.28c1.36,1.18,2.8,2.4,4.55,2.82c2.85,0.68,5.69-0.91,8.18-2.45
	c4.91-3.03,9.84-6.13,14-10.13c12.59-12.14,16.24-30.58,19.28-47.81C610.69,487.51,590.49,504.5,570.41,521.54z"/>
<path class="st6" d="M738.44,915.94c0,0,141.63-443.52,142.74-449.72c18.36-24.16,50.32-33.51,80.5-36.62
	c75.14-7.76,153.01,15.31,211.8,62.74c97.56-54.22,220.3-60.61,322.96-16.81c0.58,61.18-20.84,120.18-41.97,177.6
	c-33.84,91.97-67.68,183.94-101.53,275.92c-93.82-10.84-188.27-20.4-282.56-15.03C959.78,920.3,846.09,946.76,738.44,915.94z"/>
<path class="st17" d="M1166.14,505.71c-28.49,122.64-56.98,245.28-85.47,367.92c-0.85,3.66-0.27,9.19,3.48,9
	c36.39-123.69,66.34-249.27,89.7-376.06c0.42-2.28,0.72-4.98-0.93-6.61C1171.27,498.32,1167.42,500.18,1166.14,505.71z"/>
<path class="st17" d="M1488.21,482.77c-58.98,131.64-117.96,263.28-176.95,394.91c4.68,3.48,9.36,6.96,14.05,10.44
	c47.7-131.76,101.77-261.21,161.94-387.76c-50.86,126.45-101.71,252.9-152.57,379.35c-2.18,5.42-4.4,11.27-3.05,16.95
	c1.34,5.68,7.97,10.42,13.08,7.59c36.2-102.07,72.4-204.15,108.6-306.22c9.45-26.64,19.63-54.41,40.49-73.48
	c-52.39,129.5-102.44,259.94-150.12,391.25"/>
<path class="st22" d="M1044.49,906.25c-32.46,9.17-65.86,14.99-99.51,17.35c2.94,21.05,24.62,37.61,45.71,34.9
	c18.29-2.35,32.6-16.41,49.25-24.35c29.07-13.85,63.69-8.2,94.03,2.59c14.35,5.11,30.41,11.27,44.18,4.76
	c2.03-7.54-5-14.26-11.46-18.63c-21.15-14.3-44.65-25.12-69.27-31.89c-11.3-3.11-23.41-5.36-34.64-1.99
	c-7.53,2.26-14.08,6.87-20.82,10.9C1020.84,912.5,996.61,919.84,1044.49,906.25z"/>
</svg>
