<?xml version="1.0" encoding="utf-8"?>
<!-- Generator: Adobe Adobe Illustrator 24.2.0, SVG Export Plug-In . SVG Version: 6.00 Build 0)  -->
<svg version="1.1" id="Layer_1" xmlns="http://www.w3.org/2000/svg" xmlns:xlink="http://www.w3.org/1999/xlink" x="0px" y="0px"
	 width="1650px" height="1161.99px" viewBox="0 0 1650 1161.99" style="enable-background:new 0 0 1650 1161.99;"
	 xml:space="preserve">
<style type="text/css">
	.st0{fill:#F29200;}
	.st1{fill:none;stroke:#000000;stroke-width:3;stroke-miterlimit:10;}
	.st2{fill:#F0F0F0;stroke:#000000;stroke-width:3;stroke-miterlimit:10;}
	.st3{fill:#FFFFFF;}
	.st4{fill:#F0F0F0;stroke:#F0F0F0;stroke-miterlimit:10;}
	.st5{fill:none;stroke:#000000;stroke-width:4;stroke-miterlimit:10;}
	.st6{fill:#F0F0F0;}
	.st7{fill:none;stroke:#F29200;stroke-width:3;stroke-miterlimit:10;}
	.st8{fill:#F27500;}
	.st9{fill:#FFFFFF;stroke:#000000;stroke-width:3;stroke-miterlimit:10;}
	.st10{fill:none;stroke:#F29200;stroke-width:2;stroke-miterlimit:10;}
	.st11{fill:#F29200;stroke:#F29200;stroke-miterlimit:10;}
	.st12{fill:#851F82;}
	.st13{fill:#851F82;stroke:#F29200;stroke-miterlimit:10;}
	.st14{fill:#5C5C5C;}
	.st15{fill:#F0F0F0;stroke:#F0F0F0;stroke-width:3;stroke-miterlimit:10;}
	.st16{fill:#242424;}
	.st17{fill:#CCCCCC;}
	.st18{fill:#CFCFCF;}
	.st19{fill:none;stroke:#F29200;stroke-width:5;stroke-miterlimit:10;}
	.st20{fill:none;stroke:#000000;stroke-width:5;stroke-miterlimit:10;}
	.st21{fill:none;stroke:#851F82;stroke-width:5;stroke-miterlimit:10;}
	.st22{fill:#DE8110;}
	.st23{fill:none;stroke:#000000;stroke-miterlimit:10;stroke-dasharray:12,12,12,12,12,12;}
	.st24{fill:#9C4399;}
	.st25{fill:#FA9D2A;}
	.st26{fill:none;stroke:#851F82;stroke-width:24;stroke-miterlimit:10;}
	.st27{fill:none;}
	.st28{fill:none;stroke:#851F82;stroke-width:31;stroke-miterlimit:10;}
	.st29{fill:#00984A;}
</style>
<path class="st23" d="M177.16,649.67c16.51-148.08,92.15-286.62,202.27-370.49c16.93-12.89,36.77-25.02,56.85-20.55
	c32.47,7.23,45.54,53.92,37.98,90.04c-6.9,32.98-33.65,66.09-62.89,57.59c-22.88-6.66-35.2-37.06-31.61-63.25
	s19.12-48.3,35.98-66.88c34.9-38.47,77.31-67.15,120.04-93.91c52.8-33.07,113.96-64.66,171.74-44.58
	c57.26,19.91,91.35,83.33,126.77,137.55c25.82,39.52,54.88,76.38,86.69,109.96c24.9,26.28,53.07,51.41,86.69,58.45
	c33.62,7.03,73.46-10.01,84.55-46.28"/>
<path d="M321.29,1015.6c12.85,4.56,25.71,9.13,38.56,13.69c5.27,1.87,11.36,4.68,12.38,10.42c0.6,3.36-0.84,6.77-2.76,9.53
	c-9.11,13.14-26.93,14.77-42.42,14.7c-12.92-0.06-25.83-0.49-38.73-1.28c-5.92-0.36-12.81-1.41-15.71-6.84
	c-2.02-3.78-1.33-8.44-0.59-12.7c1.57-9.03,3.14-18.06,4.7-27.09c0.25-1.43,0.54-2.95,1.52-3.98c1.52-1.6,4-1.38,6.12-1.05
	C297.7,1013.06,311.57,1012.14,321.29,1015.6z"/>
<path d="M171.06,1047.84c9.65,8.44,19.3,16.87,28.95,25.31c7.86,6.87,16.56,17.04,12.44,26.85c-1.58,3.76-4.87,6.5-8.46,8.15
	c-12.99,6-27.82-0.99-40.42-7.84c-6.76-3.68-13.52-7.36-20.29-11.04c-8.48-4.61-17.19-9.43-23.29-17.13
	c-6.95-8.8-9.76-21.04-7.37-32.18c2.39-11.15,9.92-20.95,19.8-25.79C142.95,1025.24,155.41,1034.16,171.06,1047.84z"/>
<path class="st22" d="M213.65,413.22c0.63-2.83-2.7-5.28-5.4-4.59c-2.7,0.69-4.51,3.36-5.56,6.05c-3.27,8.39-0.97,18.81,5.47,24.84
	c3.68,3.44-0.64,16.23,2.61,20.12c4.2,5.02,12.65,4.68,17.69,8.76c5.61,4.55,15.96,0,21.46-4.69c5.51-4.69,8.71-11.65,11.74-18.37
	c2.55-5.66,5.16-11.53,5.35-17.79c0.13-4.23-0.85-8.4-1.86-12.49c-1.5-6.09-1.27-15.98-2.95-22.03c-1.79-6.45-6.18-9.87-12.17-12.29
	c-7.55-3.06-15.5,3.49-20.18,10.42C225.2,398.08,221.15,406.42,213.65,413.22z"/>
<path class="st12" d="M195.65,677.04c15.5,67.31,30.7,139.96,5.7,204.06c-18.3,46.92-56.34,83.47-72.49,131.25
	c-1.2,3.54-2.28,7.37-1.39,11.01c1.07,4.36,4.68,7.44,8.14,10.11c8.12,6.26,16.56,12.07,25.27,17.4c3.5,2.14,7.34,4.27,11.37,3.84
	c6.09-0.65,10.14-6.69,13.3-12.18c32.72-56.82,59.96-117.1,81.18-179.63c1.96,50.78,3.92,101.56,5.88,152.34
	c16.68,0.02,33.37,0.04,50.05,0.06c-23.81-110.24-7.07-225.47-17.25-337.99c-0.33-3.64-0.84-7.62-3.42-10.09
	c-2.91-2.8-7.36-2.63-11.3-2.29C259.87,667.56,229.03,670.2,195.65,677.04z"/>
<path class="st6" d="M229.65,471.8c-12.98-3.5-26.49,6.43-32.32,19.07s-5.86,27.25-5.77,41.29c0.28,44.26,0.57,88.53,0.85,132.79
	c0.03,5.29,0.28,11.14,3.8,14.93c3.63,3.9,9.41,4.2,14.6,4.26c28.99,0.3,57.98,0.6,86.97,0.89c2.66,0.03,5.69-0.12,7.4-2.26
	c1.46-1.84,1.39-4.49,1.23-6.88c-3.69-55.97-10.63-111.7-20.78-166.79c-2.5-13.56-6.01-28.44-16.86-36.27
	c-15.08-10.89-37.25-3.08-52.8-13.21C212.64,468.76,209.31,477.88,229.65,471.8z"/>
<path class="st22" d="M250.05,543.21c5.3-3.75,10.6-7.5,15.9-11.25c5.82,6.11,6.58,15.53,7.82,24.06
	c4.65,32.13,20.35,61.15,35.78,89.34c-3.55,5.71-8.76,10.27-14.75,12.92c-20.48-29.32-41.65-60.38-45.85-96.45
	C247.97,553.41,248.29,544.46,250.05,543.21z"/>
<path class="st22" d="M288.66,633.89c0.48,7.09,0.96,14.17,1.43,21.26c0.1,1.54,0.23,3.15,1,4.47c1.26,2.14,3.82,2.9,6.15,3.48
	c4.6,1.14,9.24,2.26,13.97,2.35c14.31,0.27,27.11-8.7,38.83-17.31C331.68,637.68,310.15,635.73,288.66,633.89z"/>
<path class="st12" d="M730.5,546.11l413.61-85.59l-1.54,156.62l-422.16,58.13l-1.39-114.33C718.93,553.74,723.76,547.5,730.5,546.11
	z"/>
<path class="st24" d="M1530.96,591.55l-3.18,83.5l-388.36-57.91l2.25-156.62l383.92,123.1
	C1528.89,584.67,1531.1,587.93,1530.96,591.55z"/>
<path class="st22" d="M667.7,672.96l509.79-68.9l-9.89,363.25l-509.29-91.72l-8.88-179.68C648.86,684.43,656.82,674.43,667.7,672.96
	z"/>
<path class="st25" d="M1576.07,686.54l-4.04,136.86l-404.43,143.9l9.89-363.25l391.94,73.9
	C1573.37,678.69,1576.2,682.35,1576.07,686.54z"/>
<polyline class="st25" points="865.91,802.53 865.08,817.46 866.79,907.79 980.96,930.52 985.52,789.94 "/>
<path d="M440.12,487.5c0.7,2.1,1.4,4.2,2.11,6.3"/>
<path d="M211.52,437.24c2.08,11.25,4.02,22.53,5.81,33.83c0.2,1.23,0.35,2.64-0.4,3.61c-0.55,0.71-1.45,1-2.29,1.24
	c-5.18,1.51-10.36,3.02-15.54,4.54c-2.26,0.66-4.78,1.3-6.88,0.18c-3.88-2.08-3.25-7.97-2.36-12.44c2.38-11.99,2.35-24.5-0.09-36.47
	c-1.29-6.32-3.25-12.62-2.87-19.07c0.39-6.64,3.22-12.82,6.18-18.7c7.04-13.99,17.28-28.92,32.32-30.22c7.59-0.66,15,2.4,21.93,5.71
	c4.96,2.36,9.94,4.94,13.89,8.88s6.79,9.46,6.42,15.16c-0.25,3.79-2.24,7.74-5.68,8.96c-2.17,0.77-4.54,0.35-6.8-0.02
	c-9.19-1.49-18.52-2.04-27.82-1.64c-0.99,0.04-2.03,0.12-2.83,0.73c-0.69,0.53-1.07,1.38-1.42,2.2c-2.09,4.81-4.17,9.62-6.26,14.44
	c-2.03-3.49-7.13-4.18-10.28-1.76c-3.14,2.42-4.17,7.2-2.83,11.05c1.05,3.02,3.27,5.4,4.89,8.13
	C211.8,440.92,212.51,447.81,211.52,437.24z"/>
<polygon class="st22" points="536.37,256.02 565.3,363.64 762.43,248.92 "/>
<polygon class="st22" points="527.75,227.18 764.17,249.88 504.84,145.94 "/>
<polygon class="st25" points="493.08,298.03 539.19,254.21 548.68,299.26 "/>
<polyline class="st25" points="528.68,226.22 493.88,298.38 539.02,257.01 762.65,249.2 "/>
</svg>
