<?xml version="1.0" encoding="utf-8"?>
<!-- Generator: Adobe Adobe Illustrator 24.2.0, SVG Export Plug-In . SVG Version: 6.00 Build 0)  -->
<svg version="1.1" id="Layer_1" xmlns="http://www.w3.org/2000/svg" xmlns:xlink="http://www.w3.org/1999/xlink" x="0px" y="0px"
	 width="1650px" height="1161.99px" viewBox="0 0 1650 1161.99" style="enable-background:new 0 0 1650 1161.99;"
	 xml:space="preserve">
<style type="text/css">
	.st0{fill:#F29200;}
	.st1{fill:none;stroke:#000000;stroke-width:3;stroke-miterlimit:10;}
	.st2{fill:#F0F0F0;stroke:#000000;stroke-width:3;stroke-miterlimit:10;}
	.st3{fill:#FFFFFF;}
	.st4{fill:#F0F0F0;stroke:#F0F0F0;stroke-miterlimit:10;}
	.st5{fill:none;stroke:#000000;stroke-width:4;stroke-miterlimit:10;}
	.st6{fill:#F0F0F0;}
	.st7{fill:none;stroke:#F29200;stroke-width:3;stroke-miterlimit:10;}
	.st8{fill:#F27500;}
	.st9{fill:#FFFFFF;stroke:#000000;stroke-width:3;stroke-miterlimit:10;}
	.st10{fill:none;stroke:#F29200;stroke-width:2;stroke-miterlimit:10;}
	.st11{fill:#F29200;stroke:#F29200;stroke-miterlimit:10;}
	.st12{fill:#851F82;}
	.st13{fill:#851F82;stroke:#F29200;stroke-miterlimit:10;}
	.st14{fill:#5C5C5C;}
	.st15{fill:#F0F0F0;stroke:#F0F0F0;stroke-width:3;stroke-miterlimit:10;}
	.st16{fill:#242424;}
	.st17{fill:#CCCCCC;}
	.st18{fill:#CFCFCF;}
	.st19{fill:none;stroke:#F29200;stroke-width:5;stroke-miterlimit:10;}
	.st20{fill:none;stroke:#000000;stroke-width:5;stroke-miterlimit:10;}
	.st21{fill:none;stroke:#851F82;stroke-width:5;stroke-miterlimit:10;}
	.st22{fill:#DE8110;}
	.st23{fill:none;stroke:#000000;stroke-miterlimit:10;stroke-dasharray:12,12,12,12,12,12;}
	.st24{fill:#9C4399;}
	.st25{fill:#FA9D2A;}
	.st26{fill:none;stroke:#851F82;stroke-width:24;stroke-miterlimit:10;}
	.st27{fill:none;}
	.st28{fill:none;stroke:#851F82;stroke-width:31;stroke-miterlimit:10;}
	.st29{fill:#00984A;}
</style>
<path d="M1124.13,1008.55c-18.5,8.14-36.15,18.21-52.58,29.98c-5.55,3.98-11.14,8.37-14.14,14.51c-1.22,2.5-1.97,5.38-1.24,8.07
	c1.6,5.89,8.88,7.77,14.93,8.61c20.76,2.9,41.55,5.81,62.46,7.26c7.73,0.54,16.72,0.35,21.59-5.67c3.59-4.44,3.71-10.67,3.56-16.37
	c-0.26-9.66-0.85-19.3-1.75-28.92c-0.33-3.58-0.77-7.31-2.74-10.31c-2.35-3.57-6.47-5.5-10.45-7.03
	C1130.2,1003.44,1115.66,1000.76,1124.13,1008.55z"/>
<path d="M1221.02,996.58c-5.48,13.96-10.96,27.93-16.44,41.89c-1.94,4.93-3.79,10.84-0.81,15.23c1.19,1.76,3.02,2.98,4.88,3.99
	c9.84,5.3,21.53,5.52,32.7,5.51c12.26-0.01,24.51-0.16,36.76-0.43c9.48-0.21,21.12-1.95,24.37-10.86c3.38-9.25-5.12-18.27-12.9-24.3
	C1278.73,1019.17,1267.56,1011.11,1221.02,996.58z"/>
<path class="st24" d="M1103.9,799.64c-1.06,57.24-2.12,114.48-3.19,171.73c-0.33,17.84-0.28,37,9.91,51.64
	c17.07,0.75,34.13,1.49,51.2,2.24c9.08-55.29,5.86-111.78,2.61-167.72c5.37-7.55,18.04-5.55,24.07,1.49
	c6.03,7.04,7.24,16.88,8.19,26.1c4.27,41.23,8.53,82.47,12.8,123.7c0.3,2.87,0.76,6.06,3.02,7.86c2.17,1.73,5.23,1.57,8,1.32
	c9.14-0.82,18.28-1.64,27.42-2.46c3.26-0.29,6.85-0.74,9.06-3.15c2.38-2.6,2.33-6.53,2.13-10.05
	c-3.34-60.33-7.38-120.62-12.13-180.86c-0.96-12.2-2.41-25.46-10.95-34.23c-11.88-12.22-32.03-10.32-48.12-4.67
	C1166.73,790.02,1147.28,802.44,1103.9,799.64z"/>
<path class="st6" d="M1139.91,591.25c-36.66-0.29-72.22,24.44-84.7,58.92c-1.11,3.06-2.06,6.3-1.63,9.52
	c1.5,11.18,16.36,13.61,25.33,20.44c9.72,7.4,12.5,20.59,14.6,32.62c3.66,20.93,7.32,41.87,10.98,62.8
	c0.89,5.08,2.03,10.61,6.04,13.86c3.07,2.49,7.22,3.11,11.15,3.6c32.79,4.12,65.81,6.39,98.86,6.8c3.28,0.04,6.79,0,9.51-1.84
	c4.11-2.78,4.82-8.44,5.14-13.39c1.82-27.81,3.63-55.62,5.45-83.43c4.82-0.82,9.99,0.71,13.59,4.02
	c17.63-15.4,37.06-36.97,29.25-59.04c-2.47-6.98-7.47-12.76-12.8-17.89c-18.82-18.07-43.41-30.05-69.24-33.73
	C1181.26,591.63,1160.88,591.41,1139.91,591.25z"/>
<path class="st24" d="M991.08,666.87c2.5-4.67,8.71-6.29,13.88-5.11c5.17,1.18,9.54,4.5,13.74,7.74
	c6.17,4.76,12.34,9.53,18.51,14.29c10.23,7.9,21.42,16.16,34.34,16.5c14.14,0.37,26.53-8.79,37.66-17.52c15.31-12,30.62-24,45.93-36
	c3.08-2.41,6.82-4.97,10.58-3.91c2.16,0.61,3.81,2.3,5.27,4c8.86,10.35,14.24,23.18,19,35.95c10.27,27.54,18.35,55.9,24.12,84.72
	c-23.07,10.35-44.77,24.12-69.06,31.11c-24.3,7-52.94,5.95-71.83-10.86c-6.99-6.22-12.18-14.16-17.28-22.01
	C1040,741.27,1024.05,716.76,991.08,666.87z"/>
<path class="st24" d="M593.59,865.59c35.72,17.65,75.79,26.41,115.62,25.27c37.75-1.08,76.08-10.8,112.78-1.88
	c13.29,3.23,26.77,9.56,33.79,21.29c12.44,20.78-1.35,48.66-21.38,62.28c-20.03,13.62-44.74,18.01-67.1,27.33
	c-18.43,7.68-35.29,18.75-53.68,26.51c-21,8.85-43.56,13.21-65.94,17.52c-29.71,5.71-59.42,11.43-89.13,17.14
	c-4.71,0.91-10.01,1.71-13.97-1c-2.42-1.65-3.89-4.34-5.27-6.93c-9.96-18.69-19.17-43.91-4.25-58.93
	c8.05-8.11,20.36-9.71,31.68-11.25c36.14-4.9,71.78-13.52,106.17-25.66c11.33-4,23.47-9.2,29-19.87
	c-38.54,3.26-77.08,6.53-115.62,9.79c-14.18,1.2-28.69,2.38-42.46-1.23c-13.77-3.6-26.89-12.98-31-26.6
	C508.73,905.74,516.83,888.53,593.59,865.59z"/>
<polygon class="st24" points="570.49,542.73 585.82,532.03 697.77,569.34 729.3,569.63 776.81,548.88 739.42,690.84 687.35,663.64 
	"/>
<path class="st12" d="M988.1,666.16c18.96,10.89,38.75,20.34,59.15,28.24c12.46,4.83,25.93,9.13,38.98,6.27
	c9.14-2,17.15-7.35,24.91-12.58c21.31-14.38,42.62-28.75,63.93-43.13c12.32,48.35,28.27,95.77,47.66,141.74
	c-24.99,15.91-51.61,29.28-79.29,39.83c-7.71,2.94-15.64,5.68-23.87,6.19c-14.05,0.87-27.59-4.8-40.52-10.36
	c-14.33-6.16-28.65-12.31-42.98-18.47c-3.93-1.69-7.99-3.48-10.78-6.71c-2.92-3.39-4.05-7.91-5.1-12.25
	C1010.83,746.22,1001.49,707.51,988.1,666.16z"/>
<path d="M736.83,954.73c-4.25,24.56-8.07,49.19-11.44,73.89c-0.43,3.16-0.81,6.59,0.78,9.35c1.14,1.98,3.12,3.31,5.04,4.56
	c21.95,14.35,43.89,28.7,65.84,43.05c6.48,4.24,14.88,8.55,21.46,4.48c5.19-3.21,6.45-10.14,6.64-16.24
	c0.68-21.68-5.72-42.97-13.73-63.12c-6.89-17.34-15.44-34.74-29.7-46.77C767.46,951.88,746.21,946.45,736.83,954.73z"/>
<path d="M580.61,1018.42c-21.44-12.71-43.11-25.04-64.99-36.98c-2.8-1.53-5.87-3.1-9.02-2.6c-2.26,0.36-4.2,1.74-6.05,3.09
	c-21.22,15.41-42.43,30.81-63.65,46.22c-6.26,4.55-13.28,10.87-11.82,18.47c1.16,5.99,7.18,9.64,12.81,11.98
	c20.02,8.35,42.19,9.94,63.88,9.62c18.66-0.27,37.95-2.07,54.28-11.12S585.01,1030.12,580.61,1018.42z"/>
<path d="M551.9,241.41c-22.4-13.39-48.5-19.52-74.45-16.68c-20.63,2.26-40.48,7.45-57.51,19.04
	c-38.62,26.29-51.06,78.07-49.33,124.76s14.4,92.72,12.87,139.41c-0.76,23.3-4.92,47.6,3.72,69.25c9.57,23.97,33.52,39.82,58.5,46.3
	s51.25,5,77.01,3.49c8.79-0.52,17.78-1.08,25.91-4.46c21.97-9.12,31.09-35.69,31.81-59.46s-4.34-47.89,0.46-71.19
	c2.1-10.2,6.03-19.91,9.46-29.74c14.94-42.89,20.32-89.08,15.64-134.25c-2.75-26.59-10.17-54.85-30.9-71.73
	C568.55,250.84,560.82,246.75,551.9,241.41z"/>
<path class="st12" d="M365.47,848.51c-15.29,21.44-27.21,47.06-24.59,73.27c2.77,27.68,21.71,51.8,45.08,66.88
	c23.37,15.08,50.86,22.35,78.12,27.9c81.9,16.67,165.94,19.73,249.52,19.72c4.87,0,10.32-0.25,13.68-3.77
	c2.79-2.91,3.32-7.25,3.7-11.27c1.34-13.93,2.68-27.85,4.02-41.78c0.61-6.28,1.12-13.03-2-18.52c-5.29-9.3-17.96-10.54-28.66-10.69
	c-33.02-0.45-66.04-0.91-99.05-1.36c-14.16-0.19-28.7-0.46-41.86-5.7c-13.16-5.24-24.85-16.62-26.23-30.72
	c15.38,0.78,31.14,1.51,45.84-3.1c14.69-4.61,28.33-15.76,31.43-30.84c3.43-16.71-7.03-33.81-21.16-43.37
	c-14.14-9.56-31.34-13.17-48.06-16.58c-26.11-5.33-52.21-10.66-78.32-15.99c-22.71-4.64-48.71-8.58-67.05,5.59
	C381.45,822.44,378.3,849.53,365.47,848.51z"/>
<path class="st6" d="M428.37,522.18c-19.87-7.56-42.94-0.19-59.43,13.23s-27.72,32.07-38.62,50.32
	c-21.75,36.42-43.5,72.84-65.25,109.26c-12.43,20.81-25.34,44.08-20.86,67.9c3.95,21,20.5,37,36.18,51.51
	c9.81,9.07,20.1,18.43,32.92,22.22c12.81,3.79,28.88,0.16,35.08-11.68c5.89-11.24,1.03-25.15-5.88-35.79
	c-6.91-10.64-15.98-20.33-19.32-32.57c-3.85-14.09,0.6-29.06,6.16-42.57c14.37-34.87,36.56-66.5,64.47-91.87
	c5.66,34.76,11.32,69.51,16.99,104.27c2.11,12.96,4.04,27.06-2.31,38.55c-7.16,12.95-23.99,20.85-25.22,35.6
	c-1.43,17.11,18.67,27,35.28,31.36c52,13.63,105.53,21.39,159.26,23.06c4.64,0.14,9.48,0.2,13.65-1.84
	c11.92-5.84,10.47-23.04,7.19-35.9c-7.02-27.52-14.05-55.03-21.07-82.55c-3.85,7.6,1.53,17.25,9.13,21.08
	c7.6,3.83,16.56,3.44,25.06,2.95c19.65-1.12,43.66-5.37,49.95-24.02c3.91-11.59-1.15-24.27-7.56-34.69
	c-21.66-35.19-60.08-61.23-69.17-101.54c-2-8.87-2.46-18.14-5.76-26.61c-8.16-20.95-30.94-31.63-51.69-40.29"/>
<path class="st0" d="M417.93,374.79c-7.39,30.43,0.23,64.13,20,88.41c6.32,7.77,14.03,15.02,16.73,24.66
	c4.64,16.54-10.6,35.33-27.73,34.21c-2.67,26.54,19.06,53.11,45.6,55.76c26.54,2.65,53.09-19.1,55.73-45.64
	c-5.73-7.73-14.39-13.23-23.81-15.16c-8.35-7.43-5.51-21.99,2.61-29.67c8.11-7.68,19.54-10.45,30.28-13.52
	c8.14-2.33,16.41-5.13,22.84-10.65c14.11-12.1,15.37-33.1,15.57-51.68c0.19-17.77,0.38-35.54,0.57-53.32
	c0.26-24.56-0.01-50.95-14.16-71.03c-15.87-22.52-47.11-31.29-73.76-24.3c-26.64,7-48.36,27.68-60.92,52.2
	C414.91,339.59,410.68,367.64,417.93,374.79z"/>
<polygon class="st12" points="701.01,576.76 569.97,537.3 523.47,713.43 625.62,740.9 648.87,735.27 732.71,693.7 773.57,547.87 "/>
<path d="M404.22,372.46c16.4,5.82,34.92,2.97,50.74-4.29c15.82-7.25,29.38-18.57,42.37-30.16c12.68-11.31,25.01-23,36.98-35.06
	c8.24-8.31,16.51-17.1,20.7-28.02c1-2.62,1.7-5.75,0.13-8.07c-1.13-1.66-3.13-2.45-5.01-3.14c-8.83-3.25-17.65-6.5-26.48-9.76
	c-6.65-2.45-13.33-4.91-20.3-6.16c-6.69-1.2-13.56-1.27-20.33-0.65c-30.27,2.78-58.87,20.11-75.35,45.65
	C391.19,318.34,387.19,351.55,404.22,372.46z"/>
<path d="M503.42,282.46c-1.58,18.34,5,37.24,17.62,50.63c12.63,13.39,31.11,21.07,49.51,20.56c3.28-0.09,6.66-0.46,9.51-2.09
	c6.24-3.56,7.88-11.65,8.89-18.76c2.29-16.13,4.25-33.88-4.59-47.56c-3.89-6.02-9.55-10.65-15.2-15.05
	C556.08,260.03,542.46,250.53,503.42,282.46z"/>
<path class="st0" d="M664.66,761.58c-6.6-1.41-12.92-4.15-18.46-8.01c5.16-14.61-0.42-31.57,5.57-45.87
	c4.64-11.08,16.08-18.67,28.05-19.71c11.97-1.04,24.08,4.06,32.54,12.58c3.8,3.83,7.07,8.79,6.71,14.17
	c-0.31,4.66-3.26,8.66-6.1,12.36c-6.53,8.54-13.14,17.17-21.45,24C683.21,757.93,672.83,763.33,664.66,761.58z"/>
<path class="st0" d="M330.34,845.88c-0.98-7.55-1.96-15.1-2.94-22.65c19.73-20.92,56.06-23.12,78.18-4.74
	c4.66,3.87,8.81,8.7,10.45,14.53c2.85,10.18-2.79,21.23-11.08,27.8c-8.29,6.56-18.78,9.57-29,12.27c-4.16,1.1-8.4,2.19-12.71,2.08
	c-8.8-0.23-16.68-5.39-23.4-11.07c-7.63-6.46-14.73-14.33-16.99-24.06C320.58,830.3,324.72,818.52,330.34,845.88z"/>
<path class="st0" d="M1083.16,405.2c4.68,25.4-16.8,48.07-20.86,73.58c-3.02,18.98,4.05,38.52,15.51,53.96
	c11.46,15.43,26.98,27.32,42.78,38.27c12.31,8.52,26.26,16.95,41.14,15.34c10.3-1.11,19.46-6.95,27.59-13.37
	c12.73-10.06,24-21.95,33.35-35.21c3.78-5.36,7.55-11.2,13.48-13.98c2.75-1.29,5.8-1.83,8.58-3.06c11.64-5.17,14.66-20,16.15-32.65
	c0.82-6.95,1.62-14.14-0.43-20.83c-2.05-6.69-7.75-12.79-14.74-13c-3.72-0.11-7.36,1.41-11.07,1.1c-7.24-0.61-12.1-7.93-13.78-14.99
	c-1.68-7.07-1.34-14.58-3.79-21.42c-5.59-15.6-23.61-22.81-40.03-25.02C1160.68,391.73,1143.9,392.66,1083.16,405.2z"/>
<path class="st0" d="M1142.39,577.65c6.1,9.4,1.51,24.6,10.72,30.99c3.25,2.26,7.42,2.64,11.38,2.65c6.53,0.01,13.79-1.18,17.8-6.33
	c5.09-6.52,2.6-16.04-1.01-23.48s-8.29-15.23-6.84-23.37C1166.23,557.64,1157.91,559.32,1142.39,577.65z"/>
<path class="st0" d="M1252.17,676.78c3.03,13.23,6.05,26.46,9.08,39.69c0.76,3.33,1.53,6.77,0.9,10.12
	c-0.69,3.69-2.98,6.87-5.46,9.68c-13.37,15.19-34.24,23.45-54.38,21.52c-4.91-0.47-9.87-1.5-14.71-0.58
	c-4.84,0.92-9.65,4.51-9.99,9.43c-0.32,4.58,3.14,8.44,6.37,11.7c6.18,6.23,12.59,12.59,20.66,16.05c8.07,3.46,18.28,3.39,24.8-2.49
	c4.61-4.16,6.81-10.61,11.79-14.31c2.95-2.2,6.59-3.2,10.08-4.36c22.57-7.48,43.42-25.06,47.6-48.47
	c1.89-10.6,0.28-21.53-2.31-31.98c-3.34-13.49-8.34-26.63-15.51-38.53c-1.27-2.1-2.68-4.24-4.83-5.43
	C1269.34,644.98,1262.08,653.12,1252.17,676.78z"/>
<path class="st0" d="M1015.13,710.8c-7.8-1.91-16.6-3.68-23.4,0.59c-4.42,2.78-7.07,7.63-8.99,12.48
	c-3.7,9.35-5.35,19.88-2.39,29.48s11.24,17.93,21.25,18.92c3.63,0.36,7.29-0.23,10.82-1.13c4.02-1.02,8-2.49,11.27-5.04
	c5.63-4.39,8.57-11.74,8.39-18.89c-0.18-7.14-3.24-14.03-7.74-19.58C1020.92,723.44,1016.66,719.84,1015.13,710.8z"/>
<path d="M1079.56,392c-9.85-1.83-18.4-9.45-21.35-19.03c-2.95-9.58-0.17-20.69,6.95-27.74c-5.63,11.12,2.45,26.64,14.79,28.4
	c-0.67-6.81,1.67-13.76,5.89-19.15c12.71-16.23,36.98-15.61,57.52-13.84c20.54,1.77,45.12,1.35,56.65-15.74
	c2.12,4.88,0.18,11.16-4.32,13.99c11.32-4.79,24.36,2.15,32.79,11.09c8.43,8.95,14.61,20.13,24.47,27.47
	c4.54,3.38,9.92,6.01,12.91,10.81c2.26,3.63,2.84,8.02,3.28,12.27c2.1,20.42,2.15,41.04,0.15,61.47
	c-0.75,7.61-2.67,16.46-9.65,19.58c-5.85,2.62-14.61,0.95-17.18,6.82c-0.9,2.06-0.6,4.41-0.59,6.65c0,7.16-3.48,14.23-9.14,18.6
	c-2.1-14.47-7-28.54-14.35-41.18c-6.79,5.06-16.63,4.52-24.03,0.41s-12.7-11.21-16.73-18.66c5.74,1.41,11.7-2.61,14.49-7.83
	c2.79-5.21,3.15-11.34,3.45-17.25c0.12-2.38,0.21-4.9-0.91-7c-1.06-1.99-3.06-3.3-5.07-4.33c-9.46-4.86-21.6-5.18-30.36,0.85
	s-12.7,18.88-7.31,28.04c-6.66-4.41-13.32-8.82-19.98-13.23c-1.18,6.46-7.67,10.87-14.18,11.78c-6.51,0.91-13.05-0.92-19.36-2.73
	c-5.06,22.67-32.64,37.23-54.22,28.63c2.53,4.87,10.08,1.35,13.36-3.05c7.44-10,11.01-22.8,9.81-35.21
	c-0.74-7.74-3.26-15.3-3.23-23.08C1064.13,402.07,1067.62,393.47,1079.56,392z"/>
</svg>
