<?xml version="1.0" encoding="utf-8"?>
<!-- Generator: Adobe Adobe Illustrator 24.2.0, SVG Export Plug-In . SVG Version: 6.00 Build 0)  -->
<svg version="1.1" id="Layer_1" xmlns="http://www.w3.org/2000/svg" xmlns:xlink="http://www.w3.org/1999/xlink" x="0px" y="0px"
	 width="1240.7px" height="1059.78px" viewBox="0 0 1240.7 1059.78" style="enable-background:new 0 0 1240.7 1059.78;"
	 xml:space="preserve">
<style type="text/css">
	.st0{fill:#F29200;}
	.st1{fill:none;stroke:#000000;stroke-width:3;stroke-miterlimit:10;}
	.st2{fill:#F0F0F0;stroke:#000000;stroke-width:3;stroke-miterlimit:10;}
	.st3{fill:#FFFFFF;}
	.st4{fill:#F0F0F0;stroke:#F0F0F0;stroke-miterlimit:10;}
	.st5{fill:none;stroke:#000000;stroke-width:4;stroke-miterlimit:10;}
	.st6{fill:#F0F0F0;}
	.st7{fill:none;stroke:#F29200;stroke-width:3;stroke-miterlimit:10;}
	.st8{fill:#F27500;}
	.st9{fill:#FFFFFF;stroke:#000000;stroke-width:3;stroke-miterlimit:10;}
	.st10{fill:none;stroke:#F29200;stroke-width:2;stroke-miterlimit:10;}
	.st11{fill:#F29200;stroke:#F29200;stroke-miterlimit:10;}
	.st12{fill:#851F82;}
	.st13{fill:#5C5C5C;}
	.st14{fill:#F0F0F0;stroke:#F0F0F0;stroke-width:3;stroke-miterlimit:10;}
	.st15{fill:#242424;}
	.st16{fill:#CCCCCC;}
	.st17{fill:#CFCFCF;}
	.st18{fill:none;stroke:#F29200;stroke-width:5;stroke-miterlimit:10;}
	.st19{fill:none;stroke:#000000;stroke-width:5;stroke-miterlimit:10;}
	.st20{fill:none;stroke:#851F82;stroke-width:5;stroke-miterlimit:10;}
	.st21{fill:#DE8110;}
</style>
<circle class="st6" cx="311.83" cy="379.86" r="236"/>
<circle class="st6" cx="928.87" cy="540.56" r="236"/>
<circle class="st17" cx="572.04" cy="650.65" r="289.15"/>
<circle class="st12" cx="567.29" cy="635.09" r="114.08"/>
<circle class="st12" cx="329.01" cy="379.86" r="114.08"/>
<circle class="st12" cx="928.87" cy="540.56" r="114.08"/>
<path class="st0" d="M529.87,597.12c4.78,28.04,0.78,57.51-11.29,83.27c-0.56,1.19-1.15,2.46-1.03,3.77
	c0.25,2.81,3.41,4.28,6.11,5.1c15.92,4.83,32.63,7.06,49.26,6.57c1.69-0.05,3.46-0.15,4.89-1.04c2.45-1.53,3.07-4.77,3.46-7.64
	c2.65-19.57,5.29-39.15,7.94-58.72c0.24-1.77,0.47-3.62-0.17-5.29c-0.97-2.55-3.64-3.94-6.04-5.23c-9.6-5.15-18.2-12.16-25.18-20.53
	c-3.66-4.39-6.94-9.2-11.47-12.68c-4.53-3.48-10.77-5.45-16.03-3.21C528.87,586.36,528.98,591.85,529.87,597.12z"/>
<path d="M572.04,529.15c-22.19,8.21-18.09,22.58-41.12,28.03c-5.26,1.25-11.76,0.66-14.98,5.01c-3.04,4.09-0.89,10.18,2.8,13.69
	c3.69,3.51,8.59,5.46,12.64,8.55c8.62,6.58,12.59,17.88,12.83,28.73c0.24,10.85-2.75,21.47-5.71,31.91
	c-2.62,9.22-5.23,18.43-7.85,27.65c-0.67,2.35-1.36,4.76-2.83,6.72c-2.18,2.92-5.74,4.4-9.12,5.76
	c-8.87,3.56-17.74,7.13-26.62,10.69c-12.77-41.68-13.72-86.92-2.72-129.1c5.53-21.21,14.29-42.07,29.05-58.28
	c14.76-16.21,36.2-27.26,58.08-25.87c9.15,0.58,18.11,3.27,27.27,3.37c4.32,0.05,8.77-0.46,12.87,0.91
	c4.46,1.49,7.93,5.03,10.81,8.75c10.57,13.63,15.53,31.48,13.51,48.61c-1.41,11.94-6.04,23.53-5.64,35.54
	c0.45,13.57,7.23,26.01,13.76,37.91c6.53,11.9,13.14,24.48,13.22,38.05c0.07,13.57-8.77,28.22-22.25,29.78
	c-10.85,1.25-20.84-5.99-28.3-13.97c-7.46-7.98-13.97-17.32-23.59-22.49"/>
<path class="st0" d="M520.22,561.22c-5.37,1.56-9.44,6.8-9.63,12.39c-0.18,5.59,3.54,11.09,8.8,12.99c1.88,0.68,3.92,0.94,5.67,1.9
	c3.03,1.65,4.64,5,6.28,8.04c10.82,20.04,31.54,34.41,54.1,37.5c3.59,0.49,7.35,0.7,10.72-0.65c4.64-1.85,7.67-6.27,10.37-10.48
	c3.71-5.78,7.32-11.62,10.84-17.52c2.19-3.67,4.38-7.45,5.32-11.62c1.49-6.57-0.24-13.37-1-20.06c-1.21-10.61,0.03-21.35-0.57-32.01
	c-0.6-10.66-3.42-21.84-11.12-29.24c-11.02-10.59-28.98-10.29-43.07-4.36C545.33,517.21,529.24,538.31,520.22,561.22z"/>
<path class="st0" d="M975.38,503.83c-5.42,30.33-0.89,62.22,12.8,90.08c0.64,1.29,1.31,2.66,1.17,4.08
	c-0.28,3.04-3.87,4.63-6.93,5.51c-18.05,5.22-36.98,7.64-55.83,7.11c-1.91-0.05-3.92-0.16-5.54-1.13c-2.78-1.66-3.48-5.16-3.92-8.26
	c-3-21.18-6-42.35-9-63.53c-0.27-1.91-0.53-3.92,0.19-5.72c1.1-2.76,4.13-4.26,6.85-5.66c10.88-5.57,20.63-13.16,28.54-22.21
	c4.15-4.75,7.87-9.95,13-13.72c5.13-3.77,12.21-5.9,18.17-3.47C976.52,492.19,976.39,498.13,975.38,503.83z"/>
<path d="M927.58,430.3c25.15,8.88,20.51,24.43,46.6,30.33c5.97,1.35,13.33,0.71,16.98,5.41c3.44,4.43,1.01,11.01-3.18,14.81
	s-9.74,5.9-14.33,9.25c-9.77,7.12-14.27,19.34-14.54,31.08c-0.27,11.73,3.11,23.23,6.47,34.52c2.96,9.97,5.93,19.94,8.89,29.91
	c0.76,2.54,1.55,5.15,3.21,7.27c2.48,3.15,6.5,4.76,10.33,6.23c10.06,3.86,20.11,7.71,30.17,11.57
	c14.47-45.1,15.55-94.03,3.09-139.67c-6.27-22.95-16.2-45.51-32.93-63.05c-16.73-17.53-41.04-29.49-65.83-27.98
	c-10.37,0.63-20.52,3.54-30.91,3.65c-4.9,0.05-9.94-0.5-14.58,0.98c-5.06,1.61-8.99,5.44-12.26,9.46
	c-11.98,14.75-17.6,34.06-15.31,52.59c1.59,12.92,6.84,25.45,6.39,38.45c-0.51,14.68-8.2,28.13-15.6,41.01
	c-7.4,12.88-14.9,26.48-14.98,41.17c-0.08,14.69,9.94,30.53,25.22,32.22c12.3,1.36,23.62-6.48,32.08-15.12s15.84-18.73,26.74-24.33"
	/>
<path class="st0" d="M986.32,465c6.09,1.69,10.7,7.36,10.91,13.41c0.21,6.04-4.02,11.99-9.97,14.05c-2.13,0.74-4.44,1.02-6.43,2.05
	c-3.44,1.79-5.26,5.41-7.12,8.7c-12.26,21.68-35.75,37.22-61.32,40.57c-4.07,0.53-8.34,0.75-12.15-0.7c-5.26-2-8.7-6.78-11.76-11.34
	c-4.2-6.25-8.3-12.57-12.28-18.95c-2.49-3.98-4.96-8.05-6.03-12.57c-1.69-7.11,0.27-14.46,1.13-21.7
	c1.37-11.48-0.04-23.1,0.65-34.63s3.87-23.63,12.6-31.63c12.49-11.46,32.85-11.13,48.82-4.72
	C957.85,417.38,976.09,440.21,986.32,465z"/>
<path class="st0" d="M277.63,298.69c-11,45.62,3.16,96.49,36.14,129.87c9.46,9.57,24.24,18.08,35.61,10.9
	c-3.87,13.3,2.13,28.84,13.93,36.09s15.85,10.66,25.96,1.18c-19.74,3.13-0.39,17.03,40.74-43.81c2.65-3.92,9.71-21.1,9.79-25.83
	c0.13-7.51-23.86-14.13-26.63-21.11c-4.94-12.43,0.79-26.2,2.9-39.41c2.11-13.21-2.96-30.61-16.29-31.68
	c-9.39-25.09-22.95-53.85-49.3-58.68c-13.83-2.54-27.87,2.52-40.63,8.45C293.32,272.33,280.96,284.84,277.63,298.69z"/>
<path d="M276.4,361.86c-16.88-16.17-20.77-43.36-11.73-64.92c9.04-21.56,29.38-37.27,51.86-43.69c7.7-2.2,15.65-3.41,23.38-5.52
	c10.63-2.9,22.22-7.44,32.17-2.69c10.41,4.97,13.96,17.66,20.2,27.37c7.18,11.16,18.66,19,25.99,30.06
	c7.33,11.06,8.63,28.54-2.64,35.54c0.98-9.12-4.96-18.53-13.61-21.57c-2.45-0.86-5.08-1.26-7.37-2.5
	c-6.43-3.47-7.85-11.81-10.49-18.62c-8.47-21.87-36.3-32.42-58.63-25.27c-22.34,7.15-38.16,28.68-42.78,51.68
	C280.12,334.86,280.63,348.56,276.4,361.86z"/>
<path d="M876.82,409.44c-8.24,14.4-10.9,31.89-7.31,48.09c1.9-8.11,11.13-12.47,19.46-12.56c8.33-0.1,16.38,2.83,24.65,3.83
	c10.04,1.21,20.42-0.5,29.55-4.87c2.82-1.35,5.77-3,8.86-2.57c3.8,0.53,6.45,3.97,8.42,7.26c6.04,10.08,9.93,21.43,11.34,33.09
	c1.39-9.12,9.04-16.93,18.13-18.51c2.24-0.39,4.89-0.66,6.01-2.64c0.7-1.25,0.52-2.79,0.24-4.19
	c-2.41-12.04-10.26-22.15-17.88-31.78c-10.12-12.78-21.65-26.45-37.69-29.36c-6.04-1.1-12.25-0.54-18.37,0.03
	C906.45,396.72,885.58,394.14,876.82,409.44z"/>
<path class="st18" d="M516.62,100.21l6.39,5.29c1.68,1.39,4.01,1.65,5.96,0.68l1.01-0.51c1.54-0.77,2.63-2.22,2.95-3.92l1.39-7.52
	c0.46-2.48,2.54-4.33,5.06-4.49l8.7-0.54c2.74-0.17,5.18,1.7,5.73,4.39l1.85,9.11c0.34,1.66,1.42,3.07,2.93,3.82l0.54,0.27
	c1.76,0.88,3.85,0.75,5.49-0.33l7.57-5c2.09-1.38,4.85-1.17,6.71,0.5l5.06,4.56c1.83,1.65,2.34,4.33,1.23,6.54l-4.65,9.3
	c-0.66,1.32-0.76,2.85-0.28,4.24l0.72,2.1c0.6,1.76,2.06,3.09,3.86,3.54l11.24,2.81c2.6,0.65,4.36,3.09,4.14,5.77l-0.65,8.13
	c-0.19,2.32-1.82,4.28-4.07,4.87l-9.15,2.42c-1.4,0.37-2.6,1.28-3.33,2.53l-1.35,2.29c-1.17,1.99-0.97,4.5,0.49,6.28l3.78,4.6
	c1.77,2.15,1.65,5.27-0.27,7.28l-7.53,7.89c-1.8,1.89-4.68,2.25-6.89,0.86l-6.58-4.13c-1.68-1.05-3.79-1.12-5.53-0.18l-0.76,0.41
	c-1.13,0.61-2.01,1.6-2.48,2.79l-3.23,8.07c-0.82,2.06-2.81,3.43-5.03,3.45l-9.9,0.12c-2.58,0.03-4.83-1.73-5.42-4.24l-1.49-6.4
	c-0.39-1.65-1.52-3.04-3.06-3.75l0,0c-1.78-0.82-3.86-0.62-5.46,0.51l-4.79,3.39c-1.96,1.38-4.58,1.34-6.49-0.1l-7.88-5.97
	c-2.08-1.57-2.76-4.39-1.64-6.74l3.63-7.63c0.7-1.47,0.71-3.18,0.03-4.65l-1.67-3.63c-0.66-1.43-1.89-2.51-3.4-2.96l-8.49-2.57
	c-2.26-0.69-3.83-2.74-3.9-5.11l-0.22-8.18c-0.07-2.52,1.59-4.76,4.02-5.44l10.35-2.88c1.89-0.53,3.36-2.02,3.85-3.93l0.79-3.09
	c0.41-1.58,0.09-3.26-0.87-4.58l-4.32-5.98c-1.62-2.24-1.32-5.33,0.69-7.22l7.38-6.92C511.38,98.54,514.49,98.45,516.62,100.21z"/>
<circle class="st18" cx="543.85" cy="144.45" r="19.02"/>
<path class="st19" d="M483.36,218.84l6.39,5.29c1.68,1.39,4.01,1.65,5.96,0.68l1.01-0.51c1.54-0.77,2.63-2.22,2.95-3.92l1.39-7.52
	c0.46-2.48,2.54-4.33,5.06-4.49l8.7-0.54c2.74-0.17,5.18,1.7,5.73,4.39l1.85,9.11c0.34,1.66,1.42,3.07,2.93,3.82l0.54,0.27
	c1.76,0.88,3.85,0.75,5.49-0.33l7.57-5c2.09-1.38,4.85-1.17,6.71,0.5l5.06,4.56c1.83,1.65,2.34,4.33,1.23,6.54l-4.65,9.3
	c-0.66,1.32-0.76,2.85-0.28,4.24l0.72,2.1c0.6,1.76,2.06,3.09,3.86,3.54l11.24,2.81c2.6,0.65,4.36,3.09,4.14,5.77l-0.65,8.13
	c-0.19,2.32-1.82,4.28-4.07,4.87l-9.15,2.42c-1.4,0.37-2.6,1.28-3.33,2.53l-1.35,2.29c-1.17,1.99-0.97,4.5,0.49,6.28l3.78,4.6
	c1.77,2.15,1.65,5.27-0.27,7.28l-7.53,7.89c-1.8,1.89-4.68,2.25-6.89,0.86l-6.58-4.13c-1.68-1.05-3.79-1.12-5.53-0.18l-0.76,0.41
	c-1.13,0.61-2.01,1.6-2.48,2.79l-3.23,8.07c-0.83,2.06-2.81,3.43-5.03,3.45l-9.9,0.12c-2.58,0.03-4.83-1.73-5.42-4.24l-1.49-6.4
	c-0.39-1.65-1.52-3.04-3.06-3.75l0,0c-1.78-0.82-3.86-0.62-5.46,0.51l-4.79,3.39c-1.96,1.38-4.58,1.34-6.49-0.1l-7.88-5.97
	c-2.08-1.57-2.76-4.39-1.64-6.74l3.63-7.63c0.7-1.47,0.71-3.18,0.03-4.65l-1.67-3.63c-0.66-1.43-1.89-2.51-3.4-2.96l-8.49-2.57
	c-2.26-0.69-3.83-2.74-3.9-5.11l-0.22-8.18c-0.07-2.52,1.59-4.76,4.02-5.44l10.35-2.88c1.89-0.53,3.36-2.02,3.85-3.93l0.79-3.09
	c0.41-1.58,0.09-3.26-0.87-4.58l-4.32-5.98c-1.62-2.24-1.32-5.33,0.69-7.22l7.38-6.92C478.12,217.17,481.23,217.07,483.36,218.84z"
	/>
<circle class="st19" cx="510.59" cy="263.08" r="19.02"/>
<path class="st19" d="M773.84,783.52l6.39,5.29c1.68,1.39,4.01,1.65,5.96,0.68l1.01-0.51c1.54-0.77,2.63-2.22,2.95-3.92l1.39-7.52
	c0.46-2.48,2.54-4.33,5.06-4.49l8.7-0.54c2.74-0.17,5.18,1.7,5.73,4.39l1.85,9.11c0.34,1.66,1.42,3.07,2.93,3.82l0.54,0.27
	c1.76,0.88,3.85,0.75,5.49-0.33l7.57-5c2.09-1.38,4.85-1.17,6.71,0.5l5.06,4.56c1.83,1.65,2.34,4.33,1.23,6.54l-4.65,9.3
	c-0.66,1.32-0.76,2.85-0.28,4.24l0.72,2.1c0.6,1.76,2.06,3.09,3.86,3.54l11.24,2.81c2.6,0.65,4.36,3.09,4.14,5.77l-0.65,8.13
	c-0.19,2.32-1.82,4.28-4.07,4.87l-9.15,2.42c-1.4,0.37-2.6,1.28-3.33,2.53l-1.35,2.29c-1.17,1.99-0.97,4.5,0.49,6.28l3.78,4.6
	c1.77,2.15,1.65,5.27-0.27,7.28l-7.53,7.89c-1.8,1.89-4.68,2.25-6.89,0.86l-6.58-4.13c-1.68-1.05-3.79-1.12-5.53-0.18l-0.76,0.41
	c-1.13,0.61-2.01,1.6-2.48,2.79l-3.23,8.07c-0.83,2.06-2.81,3.43-5.03,3.45l-9.9,0.12c-2.58,0.03-4.83-1.73-5.42-4.24l-1.49-6.4
	c-0.39-1.65-1.52-3.04-3.06-3.75l0,0c-1.78-0.82-3.86-0.62-5.46,0.51l-4.79,3.39c-1.96,1.38-4.58,1.34-6.49-0.1l-7.88-5.97
	c-2.08-1.57-2.76-4.39-1.64-6.74l3.63-7.63c0.7-1.47,0.71-3.18,0.03-4.65l-1.67-3.63c-0.66-1.43-1.89-2.51-3.4-2.96l-8.49-2.57
	c-2.26-0.69-3.83-2.74-3.9-5.11l-0.22-8.18c-0.07-2.52,1.59-4.76,4.02-5.44l10.35-2.88c1.89-0.53,3.36-2.02,3.85-3.93l0.79-3.09
	c0.41-1.58,0.09-3.26-0.87-4.58l-4.32-5.98c-1.62-2.24-1.32-5.33,0.69-7.22l7.38-6.92C768.6,781.85,771.71,781.75,773.84,783.52z"/>
<circle class="st19" cx="801.07" cy="827.76" r="19.02"/>
<path class="st20" d="M664.46,872.27l6.39,5.29c1.68,1.39,4.01,1.65,5.96,0.68l1.01-0.51c1.54-0.77,2.63-2.22,2.95-3.92l1.39-7.52
	c0.46-2.48,2.54-4.33,5.06-4.49l8.7-0.54c2.74-0.17,5.18,1.7,5.73,4.39l1.85,9.11c0.34,1.66,1.42,3.07,2.93,3.82l0.54,0.27
	c1.76,0.88,3.85,0.75,5.49-0.33l7.57-5c2.09-1.38,4.85-1.17,6.71,0.5l5.06,4.56c1.83,1.65,2.34,4.33,1.23,6.54l-4.65,9.3
	c-0.66,1.32-0.76,2.85-0.28,4.24l0.72,2.1c0.6,1.76,2.06,3.09,3.86,3.54l11.24,2.81c2.6,0.65,4.36,3.09,4.14,5.77l-0.65,8.13
	c-0.19,2.32-1.82,4.28-4.07,4.87l-9.15,2.42c-1.4,0.37-2.6,1.28-3.33,2.53l-1.35,2.29c-1.17,1.99-0.97,4.5,0.49,6.28l3.78,4.6
	c1.77,2.15,1.65,5.27-0.27,7.28l-7.53,7.89c-1.8,1.89-4.68,2.25-6.89,0.86l-6.58-4.13c-1.68-1.05-3.79-1.12-5.53-0.18l-0.76,0.41
	c-1.13,0.61-2.01,1.6-2.48,2.79l-3.23,8.07c-0.82,2.06-2.81,3.43-5.03,3.45l-9.9,0.12c-2.58,0.03-4.83-1.73-5.42-4.24l-1.49-6.4
	c-0.39-1.65-1.52-3.04-3.06-3.75l0,0c-1.78-0.82-3.86-0.62-5.46,0.51l-4.79,3.39c-1.96,1.38-4.58,1.34-6.49-0.1l-7.88-5.97
	c-2.08-1.57-2.76-4.39-1.64-6.74l3.63-7.63c0.7-1.47,0.71-3.18,0.03-4.65l-1.67-3.63c-0.66-1.43-1.89-2.51-3.4-2.96l-8.49-2.57
	c-2.26-0.69-3.83-2.74-3.9-5.11l-0.22-8.18c-0.07-2.52,1.59-4.76,4.02-5.44l10.35-2.88c1.89-0.53,3.36-2.02,3.85-3.93l0.79-3.09
	c0.41-1.58,0.09-3.26-0.87-4.58l-4.32-5.98c-1.62-2.24-1.32-5.33,0.69-7.22l7.38-6.92C659.22,870.61,662.33,870.51,664.46,872.27z"
	/>
<circle class="st20" cx="691.69" cy="916.51" r="19.02"/>
</svg>
