<?xml version="1.0" encoding="utf-8"?>
<!-- Generator: Adobe Adobe Illustrator 24.2.0, SVG Export Plug-In . SVG Version: 6.00 Build 0)  -->
<svg version="1.1" id="Layer_1" xmlns="http://www.w3.org/2000/svg" xmlns:xlink="http://www.w3.org/1999/xlink" x="0px" y="0px"
	 width="1240.7px" height="1059.78px" viewBox="0 0 1240.7 1059.78" style="enable-background:new 0 0 1240.7 1059.78;"
	 xml:space="preserve">
<style type="text/css">
	.st0{fill:#F29200;}
	.st1{fill:none;stroke:#000000;stroke-width:3;stroke-miterlimit:10;}
	.st2{fill:#F0F0F0;stroke:#000000;stroke-width:3;stroke-miterlimit:10;}
	.st3{fill:#FFFFFF;}
	.st4{fill:#F0F0F0;stroke:#F0F0F0;stroke-miterlimit:10;}
	.st5{fill:none;stroke:#000000;stroke-width:4;stroke-miterlimit:10;}
	.st6{fill:#F0F0F0;}
	.st7{fill:none;stroke:#F29200;stroke-width:3;stroke-miterlimit:10;}
	.st8{fill:#F27500;}
	.st9{fill:#FFFFFF;stroke:#000000;stroke-width:3;stroke-miterlimit:10;}
	.st10{fill:none;stroke:#F29200;stroke-width:2;stroke-miterlimit:10;}
	.st11{fill:#F29200;stroke:#F29200;stroke-miterlimit:10;}
	.st12{fill:#851F82;}
	.st13{fill:#5C5C5C;}
	.st14{fill:#F0F0F0;stroke:#F0F0F0;stroke-width:3;stroke-miterlimit:10;}
	.st15{fill:#242424;}
	.st16{fill:#CCCCCC;}
	.st17{fill:#CFCFCF;}
	.st18{fill:none;stroke:#F29200;stroke-width:5;stroke-miterlimit:10;}
	.st19{fill:none;stroke:#000000;stroke-width:5;stroke-miterlimit:10;}
	.st20{fill:none;stroke:#851F82;stroke-width:5;stroke-miterlimit:10;}
	.st21{fill:#DE8110;}
	.st22{fill:none;}
	.st23{font-family:'OpenSans-CondensedBold';}
	.st24{font-size:127.625px;}
</style>
<path d="M456.55,733.2c-16.24-27.39-17.16-63.23-2.35-91.42c12.59-23.95,35.2-41.9,45.58-66.88c14.22-34.2,2.64-73.68,9.68-110.04
	c5.02-25.93,19.9-49.84,40.96-65.79c21.23-16.09,51.7-23.55,74.64-10.02c8.05,4.75,14.64,11.72,22.85,16.17
	c19,10.29,42.67,5.3,63.4,11.4c25.34,7.45,43.49,31.27,50.04,56.86c6.55,25.59,3.13,52.71-3.17,78.37
	c-2.38,9.67-5.17,19.47-4.56,29.41c1.7,27.52,28.16,47.11,36.13,73.51c5.98,19.83,0.91,41.11-4.18,61.18
	c-0.79,3.1-1.71,6.42-4.17,8.45c-3.23,2.67-7.93,2.23-12.08,1.65c-20.54-2.86-41.08-5.72-61.76-7.84c-0.45-0.23-0.9-0.45-1.35-0.68"
	/>
<path class="st6" d="M566.63,674.05c-32.99-7.21-69.38,3.85-92.78,28.21c-16.84,17.53-26.62,40.49-35.62,63.07
	c-13.36,33.51-25.81,67.38-37.31,101.57c-13.12,39-25.17,79.87-20.11,120.71c0.47,3.78,1.13,7.67,3.24,10.85
	c2.74,4.13,7.48,6.41,12.06,8.3c26.57,10.92,55.97,14.85,84.47,11.29c2.21-0.28,4.73-0.51,6.42,0.94c1.55,1.33,1.82,3.58,1.98,5.61
	c0.86,11.54,1.19,23.12,0.97,34.68c-0.06,2.89-0.07,6.03,1.64,8.36c2.22,3.03,6.46,3.57,10.21,3.84
	c65.71,4.78,131.59,7.24,197.47,7.37c12.34,0.02,24.89-0.06,36.68-3.73c1.76-0.55,3.62-1.27,4.64-2.8c1.49-2.24,0.64-5.21-0.12-7.79
	c-12.71-42.79,11.94-89.53,1.3-132.88c15.74-7.09,35.07-4.39,49.65-13.63c10.6-6.72,16.85-18.86,19.08-31.21
	c2.23-12.35,0.92-25.05-0.69-37.49c-5.55-42.82-14.61-85.19-27.07-126.54c-2.77-9.18-6.49-19.27-15.12-23.45
	c-4.09-1.98-8.74-2.33-13.25-2.86c-14.39-1.69-28.51-5.62-41.71-11.59c-11.11-5.03-22.16-11.65-34.35-11.65
	c-10.67,0-20.57,5.08-30.64,8.6C621.4,690.99,595.34,680.32,566.63,674.05z"/>
<path class="st0" d="M542.66,485.94c-1.81,28.38-1.6,56.89,0.62,85.24c0.74,9.52,1.81,19.33,6.43,27.68
	c5.15,9.29,14.09,15.72,21.83,22.99c7.74,7.27,14.84,16.72,14.3,27.33c-0.57,11.2-9.34,20.02-17.54,27.68
	c13.35,8.65,29.79,12.41,46.62,10.3c45.96,61.55,62.12,140.8,104.64,204.78c3.42,5.15,7.16,10.33,12.46,13.51
	c10.49,6.3,24.05,3.14,35.25-1.78c7.61-3.34,15.32-7.83,19.1-15.23c4.08-8,2.71-17.64,0.39-26.31
	c-9.02-33.76-30.2-62.69-49.32-91.94c-25.29-38.67-47.62-79.28-66.74-121.34c-2.49-5.47-4.93-10.99-6.48-16.8
	c-4.11-15.43-1.68-31.76,0.79-47.54c16.07-6.61,27.14-23.84,26.47-41.2c-0.13-3.26-0.76-6.78-3.13-9.02
	c-6.54-6.2-16.81,2.77-25.81,2.13c-3.83-9.53-0.89-21.17-6.27-29.93c-6.93-11.31-23.51-11.71-33.49-20.46
	c-8.74-7.67-11.13-20.6-19.45-28.72c-10.13-9.88-27.26-9.88-39.34-2.51C551.94,462.17,543.34,475.27,542.66,485.94z"/>
<path class="st0" d="M406.77,1016.48c10.84,27.09,21.87,54.09,33.1,81.02c15.44,0.12,31.77,0,44.98-8c1.87-1.13,3.71-2.47,4.79-4.37
	c1.26-2.2,1.34-4.86,1.35-7.4c0.03-25.19-4.88-50.38-14.39-73.71c-11.04,7.81-25.17,10.26-38.66,9.37
	c-13.49-0.89-26.57-4.88-39.45-8.97C403.79,1012.89,408.68,1021.62,406.77,1016.48z"/>
<path d="M482.41,999.29c-14.51-15.81-15.14-39.51-14.93-60.97c0.32-31.87,0.81-64.33,10.8-94.59
	C473.51,894.72,468.83,947.02,482.41,999.29z"/>
<path class="st21" d="M622.47,585.08c-2.99,1.67-4.39,5.36-4.29,8.79c0.1,3.43,1.44,6.68,2.76,9.85
	c3.57,8.58,7.14,17.17,10.71,25.75c-6.73-1.07-13.46,1.44-19.81,3.9c-5.56,2.16-11.54,4.66-14.54,9.81
	c-3.43,5.88-1.9,13.28-0.28,19.89c0.42,1.72,0.85,3.46,1.72,5c0.69,1.22,1.64,2.28,2.22,3.55c1.17,2.58,0.65,5.62,1.41,8.36
	c0.76,2.73,4.17,5.18,6.3,3.3c-4.8-9.37-8.45-19.32-10.86-29.57c-0.31-1.34-0.61-2.76-0.21-4.08c0.33-1.07,1.08-1.96,1.84-2.78
	c9.64-10.44,24.11-16.23,38.29-15.31c-4.57-9.04-9.14-18.08-13.7-27.12c-1.89-3.75-3.83-8.02-2.47-11.99
	c1.37-3.97,7.92-5.67,9.6-1.83c0.2-2.64-1.48-5.32-3.95-6.27C624.74,583.38,621.7,584.22,622.47,585.08z"/>
<path class="st12" d="M496.73,232.27v-55.07c0-42.23,34.23-76.46,76.46-76.46h129.07c42.23,0,76.46,34.23,76.46,76.46v55.07
	c0,42.23-34.23,76.46-76.46,76.46H573.2C530.97,308.73,496.73,274.49,496.73,232.27z"/>
<polyline class="st12" points="675.24,299.3 748.32,373.18 748.32,275.47 "/>
<path class="st12" d="M479.8,222.93c2.03-2.27,2.99-5.29,2.63-8.32c-1.76-15.09-5.82-62.82,9.52-87.48
	c18.38-29.53,28.97-38.66,49.55-45.59c6.89-2.32,33.47-2.85,55.56-3.14c13.19-0.18,14.35-19.45,1.28-21.2
	c-0.25-0.03-0.5-0.06-0.75-0.09c-20.99-2.52-114.33-1.5-143.69-1.1c-7.16,0.1-14.21,1.69-20.69,4.73
	c-12.63,5.93-30.96,17.85-31.79,37.42c-1.27,29.98-1.16,71.05-1.16,71.05s-0.75,28.86,25.62,43.8c3.24,1.84,5.25,5.27,5.33,8.99
	l0.57,27.04c0.21,9.67,12.15,14.08,18.59,6.86L479.8,222.93z"/>
<rect x="608.52" y="158.35" class="st22" width="93.45" height="108.27"/>
<text transform="matrix(1 0 0 1 608.5206 255.346)" class="st3 st23 st24">?</text>
</svg>
