<?xml version="1.0" encoding="utf-8"?>
<!-- Generator: Adobe Adobe Illustrator 24.2.0, SVG Export Plug-In . SVG Version: 6.00 Build 0)  -->
<svg version="1.1" id="Layer_1" xmlns="http://www.w3.org/2000/svg" xmlns:xlink="http://www.w3.org/1999/xlink" x="0px" y="0px"
	 width="1240.7px" height="1059.78px" viewBox="0 0 1240.7 1059.78" style="enable-background:new 0 0 1240.7 1059.78;"
	 xml:space="preserve">
<style type="text/css">
	.st0{fill:#F29200;}
	.st1{fill:none;stroke:#000000;stroke-width:3;stroke-miterlimit:10;}
	.st2{fill:#F0F0F0;stroke:#000000;stroke-width:3;stroke-miterlimit:10;}
	.st3{fill:#FFFFFF;}
	.st4{fill:#F0F0F0;stroke:#F0F0F0;stroke-miterlimit:10;}
	.st5{fill:none;stroke:#000000;stroke-width:4;stroke-miterlimit:10;}
	.st6{fill:#F0F0F0;}
	.st7{fill:none;stroke:#F29200;stroke-width:3;stroke-miterlimit:10;}
	.st8{fill:#F27500;}
	.st9{fill:#FFFFFF;stroke:#000000;stroke-width:3;stroke-miterlimit:10;}
	.st10{fill:none;stroke:#F29200;stroke-width:2;stroke-miterlimit:10;}
	.st11{fill:#F29200;stroke:#F29200;stroke-miterlimit:10;}
	.st12{fill:#851F82;}
	.st13{fill:#5C5C5C;}
	.st14{fill:#F0F0F0;stroke:#F0F0F0;stroke-width:3;stroke-miterlimit:10;}
	.st15{fill:#242424;}
	.st16{fill:#CCCCCC;}
	.st17{fill:#CFCFCF;}
	.st18{fill:none;stroke:#F29200;stroke-width:5;stroke-miterlimit:10;}
	.st19{fill:none;stroke:#000000;stroke-width:5;stroke-miterlimit:10;}
	.st20{fill:none;stroke:#851F82;stroke-width:5;stroke-miterlimit:10;}
	.st21{fill:#DE8110;}
</style>
<path d="M646.09,687.54c-6.65,149.74-6.54,299.77,0.32,449.5c21.58,3.2,43.3,5.52,65.07,6.97c4.66,0.31,9.92,0.38,13.29-2.82
	c2.85-2.7,3.43-6.92,3.86-10.8c12.65-116.12,20.65-232.74,23.98-349.49c9.4,14.11,11.14,31.71,12.62,48.54
	c9.42,107.22,18.84,214.43,28.27,321.65c34.75-2.17,69.5-4.33,104.25-6.5c-13.11-157.08-22.83-314.44-29.15-471.93
	C793.42,674.87,718.33,679.84,646.09,687.54z"/>
<path class="st6" d="M818.84,301.12c-1.97,9.52-3.95,19.05-5.92,28.57c2.27-9.95,4.54-19.9,6.81-29.85
	c7.89,20.21,31.66,28.47,52.37,35.56c13.68,4.68,27.18,9.87,40.47,15.55c8.5,3.63,17.17,7.66,23.29,14.52
	c5.74,6.43,8.72,14.77,11.31,22.96c18.25,57.74,23.44,118.6,28.51,178.89c0.55,6.54,0.97,13.65-2.7,19.13
	c-2.27,3.4-5.85,5.71-9.47,7.66c-32.24,17.37-71.54,12.07-107.95,7.42c-58.76-7.51-118.69-12.05-177.05-1.93
	c-2.98,0.52-6.85,0.66-8.18-2.03c-0.52-1.05-0.47-2.28-0.4-3.45c0.71-12.73,1.42-25.45,2.13-38.18"/>
<path class="st6" d="M626.18,586.27c3.06,30.72,6.12,61.44,9.18,92.15c0.28,2.82,0.62,5.78,2.3,8.08c3.28,4.48,9.92,4.43,15.5,4.03
	c77.15-5.51,155.17,7.56,231.79-2.88c2.65-40.48,1.71-81.19-2.81-121.5l-237.43-36.11L626.18,586.27z"/>
<path class="st0" d="M831.3,133.1c-1.88,15.1-0.21,30.63,4.86,45c2.47,7.01,5.77,13.86,6.61,21.24c1.1,9.69-2.15,19.32-5.7,28.42
	c-4.43,11.35-9.42,22.49-15.26,33.21c-7.44,4.16-11.71,12.95-19.7,15.98c-6.63,2.52-14.16,0.36-20.42-2.97
	c-6.25-3.33-11.89-7.81-18.5-10.39c3.75,18.17,4.7,36.91,2.8,55.36c-16,4.57-34.02,1.64-47.7-7.76c-2.13-1.47-4.24-3.17-5.31-5.51
	c-1.24-2.69-0.93-5.8-0.62-8.74c3.16-30.9,2.56-62.17-1.8-92.92c-8.95-7.44-16.39-18.18-15.35-29.7s13.98-21.78,24.58-16.9
	c-1.72-11.17-1.7-22.6,0.06-33.76c27.87,0.93,55.97,17.5,82.2,8.14c5.33-1.9,10.38-4.85,16.01-5.46S831.88,128.51,831.3,133.1z"/>
<path class="st0" d="M757.31,315.7c0.88-12.42,1.75-24.84,2.63-37.26c0.35-5,0.86-10.39,4.19-14.17c1.46-1.66,3.36-2.87,5.23-4.06
	c3.78-2.39,7.55-4.79,11.33-7.18c3.08-1.95,6.28-3.95,9.9-4.53c5.95-0.95,11.73,2.1,16.98,5.05c4.81,2.7,9.91,5.7,12.29,10.64
	c1.75,3.63,1.77,7.81,1.61,11.82c-0.61,15.44-3.4,30.79-8.27,45.47c-0.75,2.26-1.68,4.68-3.72,5.96c-2.48,1.55-5.69,0.88-8.54,0.17
	C786.37,323.94,771.8,320.27,757.31,315.7z"/>
<path class="st12" d="M609.3,325.04h2c4.33,0,7.85,3.51,7.85,7.85v63.47c0,4.33-3.51,7.85-7.85,7.85h-2c-4.33,0-7.85-3.51-7.85-7.85
	v-63.47C601.45,328.56,604.97,325.04,609.3,325.04z"/>
<path class="st21" d="M757.68,314.51c-3.29-0.1-6.58-0.19-9.86-0.29c-2.02-6.36-0.89-13.24,0.26-19.81
	c1.36-7.73,2.71-15.45,4.07-23.18c1.14-6.5,2.36-13.21,6.04-18.73c3.67-5.51,10.49-9.55,16.97-7.96
	c-5.98,8.91-11.77,18.13-14.89,28.37C756.31,285.92,756.87,299.8,757.68,314.51z"/>
<path d="M712.47,204.09c0.25,9.83,0.49,19.67,0.74,29.5c-13.74-7.93-28.73-17.45-32.45-32.75c-1.51-6.24-0.92-12.76-1.12-19.17
	c-0.59-19-8.22-37.8-5.18-56.57c4.32-26.67,31.24-46.55,58.56-47.19c11.32-0.27,22.61,2.23,33.91,1.49
	c7.24-0.47,14.38-2.27,21.64-2.33c14.82-0.12,29.48,7.55,37.7,19.73c8.23,12.18,9.78,28.5,3.98,41.98
	c-0.42,0.97-0.91,1.98-1.79,2.58c-0.91,0.62-2.07,0.69-3.18,0.74c-15.56,0.77-31.12,1.53-46.68,2.3
	c-14.75,0.73-30.88,1.06-42.63-7.79c-2.65-1.99-5.24-4.52-8.55-4.78c-5.87-0.47-8.36,11.75-8.57,17.57
	c-0.21,5.82,6.56,9.6,3.28,15.91c-3.4-5.6-17.18-7.44-21.58-2.56c-4.4,4.88-6.59,11.41-5.07,17.76
	C697.94,190.73,704.76,199.87,712.47,204.09z"/>
<path class="st21" d="M767.84,255.01c-1.79-6.49-2.59,2.7-4.38-3.79c3.46-0.94,8.82-7.07,12.48-6.87c5.99,0.33,11.98,0.67,17.97,1
	c5.04,0.28,10.25,0.62,14.98,3.49c4.73,2.87,8.9,9,8.83,15.51c-7.66-4.69-15.52-9.15-23.68-10.88
	C785.35,251.64,776.76,252.97,767.84,255.01z"/>
<path class="st12" d="M264.65,364.87c0,0-1.15-36.52,42.73-38.81c37.89-1.97,198.83-0.54,242.16-0.11c6,0.06,10.85,4.84,10.94,10.77
	l4.33,285.88c0.07,4.58,1.74,19.7-2.89,19.94l-233,0.44c-18.63,0.96-33.89,15.65-34.5,34.08c-0.34,10.33,4.32,19.1,21.13,19.1
	l12.26-0.32c2.38-0.06,4.42,1.69,4.68,4.03l0.88,7.85c0.47,4.18-2.66,7.9-6.9,8.22c-14.73,1.11-46.24,0.01-55.89-27.88
	c-1.58-4.57-2.29-9.4-2.35-14.23L264.65,364.87z"/>
<path class="st12" d="M350.45,665.29l-1.36,64.96c-0.06,2.86,3.2,4.57,5.56,2.92l14.29-10c2.97-2.08,6.94-2.12,9.96-0.1l16.8,11.27
	c2.92,1.96,6.87-0.14,6.81-3.63l-1.01-63.55c-0.07-4.53-3.68-8.24-8.26-8.49l-33.57-1.82C354.74,656.58,350.56,660.41,350.45,665.29
	z"/>
<path class="st6" d="M749.82,310.71c-23.33-7.79-25.98-9.78-36.23-18.89c-12.87,16.13-31.46,26.87-50.6,34.86
	c-19.15,7.99-39.24,13.62-58.33,21.74c-7.92,3.37-15.93,7.38-21.26,14.08c-4.73,5.95-6.9,13.47-8.5,20.87
	c-4.06,18.81-5.08,38.12-5.56,57.35c-0.93,37.85,0.22,75.84,5.9,113.28c1.16,7.63,2.57,15.42,6.53,22.06
	c9.93,16.68,32.9,21.12,52.15,17.56c22.68-4.19,43.05-16.87,59.76-32.6c16.71-15.73,30.14-34.48,43.31-53.2
	c36.1-51.28,71.86-104.87,85.58-165.85c0.78-3.48,1.46-7.25-0.03-10.5c-1.8-3.93-6.21-5.91-10.3-7.43
	c-19.61-7.31-40.28-11.82-61.18-13.35c-24.12,47.76-52.62,93.36-85.03,136.06c1.42-0.46,2.36-2.05,1.97-3.63
	c0.55-0.54,1.09-1.08,1.64-1.62"/>
<path class="st12" d="M414.91,708.37v-1.79c0-4.33,3.51-7.85,7.85-7.85H611.3c4.33,0,7.85,3.51,7.85,7.85v1.79
	c0,4.33-3.51,7.85-7.85,7.85H422.76C418.43,716.22,414.91,712.7,414.91,708.37z"/>
<path d="M650.51,421.34c-4.05,29.02-8.11,58.05-12.16,87.07c37.32-64.39,74.64-128.79,111.96-193.18c0.91-1.57,1.26-4.42-0.49-4.51
	c-32.45,59.93-67.28,118.43-104.38,175.3C649.58,464.88,652.16,443.41,650.51,421.34z"/>
<path d="M816.53,342.09c-21.73,68-55.73,132.16-99.94,188.52c-22.68,28.92-50.31,57.17-86.36,65.47c17.57-2,34.15-9.65,48.45-19.94
	c14.3-10.3,26.47-23.19,37.78-36.64c48.14-57.24,81.71-125.47,104.57-196.39c0.69-2.13,0.48-5.52-1.79-5.38
	C818.58,339.61,817.92,341.48,816.53,342.09z"/>
<path d="M730.79,530.77c49.63-3.81,99.47-5.06,149.24-3.76c1.66,0.04,3.55-0.01,4.62-1.26c0.79-0.92,0.88-2.22,0.93-3.42
	c1.28-28.67,2.56-57.33,3.84-86c6.19,29.75,7.65,60.45,4.33,90.65c-0.16,1.44-0.36,2.96-1.3,4.07c-1.38,1.63-3.81,1.79-5.96,1.82
	c-54.43,0.84-108.85,1.68-163.28,2.52C724.56,532.96,727.35,531.04,730.79,530.77z"/>
<path d="M677.49,597.79c68.22-1.8,136.49-1.62,204.7,0.52c-10.52,2.37-21.43,2.25-32.22,2.12
	C791.72,599.72,733.46,599,677.49,597.79z"/>
<path class="st12" d="M609.3,596.99h2c4.33,0,7.85,3.51,7.85,7.85v100.01c0,4.33-3.51,7.85-7.85,7.85h-2
	c-4.33,0-7.85-3.51-7.85-7.85V604.84C601.45,600.5,604.97,596.99,609.3,596.99z"/>
</svg>
