<?xml version="1.0" encoding="utf-8"?>
<!-- Generator: Adobe Adobe Illustrator 24.2.0, SVG Export Plug-In . SVG Version: 6.00 Build 0)  -->
<svg version="1.1" id="Layer_1" xmlns="http://www.w3.org/2000/svg" xmlns:xlink="http://www.w3.org/1999/xlink" x="0px" y="0px"
	 width="1721.94px" height="1161.99px" viewBox="0 0 1721.94 1161.99" style="enable-background:new 0 0 1721.94 1161.99;"
	 xml:space="preserve">
<style type="text/css">
	.st0{fill:#F29200;}
	.st1{fill:none;stroke:#000000;stroke-width:3;stroke-miterlimit:10;}
	.st2{fill:#F0F0F0;stroke:#000000;stroke-width:3;stroke-miterlimit:10;}
	.st3{fill:#FFFFFF;}
	.st4{fill:#F0F0F0;stroke:#F0F0F0;stroke-miterlimit:10;}
	.st5{fill:none;stroke:#000000;stroke-width:4;stroke-miterlimit:10;}
	.st6{fill:#F0F0F0;}
	.st7{fill:none;stroke:#F29200;stroke-width:3;stroke-miterlimit:10;}
	.st8{fill:#F27500;}
	.st9{fill:#FFFFFF;stroke:#000000;stroke-width:3;stroke-miterlimit:10;}
	.st10{fill:none;stroke:#F29200;stroke-width:2;stroke-miterlimit:10;}
	.st11{fill:#F29200;stroke:#F29200;stroke-miterlimit:10;}
	.st12{fill:#851F82;}
	.st13{fill:#851F82;stroke:#F29200;stroke-miterlimit:10;}
	.st14{fill:#5C5C5C;}
	.st15{fill:#F0F0F0;stroke:#F0F0F0;stroke-width:3;stroke-miterlimit:10;}
	.st16{fill:#242424;}
	.st17{fill:#CCCCCC;}
	.st18{fill:#CFCFCF;}
	.st19{fill:none;stroke:#F29200;stroke-width:5;stroke-miterlimit:10;}
	.st20{fill:none;stroke:#000000;stroke-width:5;stroke-miterlimit:10;}
	.st21{fill:none;stroke:#851F82;stroke-width:5;stroke-miterlimit:10;}
	.st22{fill:#DE8110;}
	.st23{fill:#61115E;}
</style>
<path class="st6" d="M798.56,425.66c17.43,2.02,35.37,1.49,53.11,1.04c80.77-2.06,161.65-2.52,242.45-1.38
	c-14.21,11.58-14.36,28.79-0.34,40.38c-86.94,1.16-173.89,2.32-260.83,3.49c-12.07,0.16-26.41-0.39-32.66-6.64
	c-3.99-3.99-3.18-9.03-2.75-13.7C798.23,441.32,791.85,433.78,798.56,425.66z"/>
<path class="st13" d="M636.16,422.48c80.84-0.68,417.47-3.53,461.57-4.16c3.68-0.05,6.64,3.23,5.96,6.84c0,0.02-0.01,0.05-0.01,0.07
	c-0.47,2.36-2.77,4.52-5.09,3.93l-252.76-1.34l-8.81,0.31c-3.4,0.12-6.01,3.07-5.71,6.46l2.25,25.47c0.27,3.06,2.82,5.41,5.89,5.42
	c37.23,0.15,253.98,1.02,253.6,0.68c1.76-0.13,3.53,1,4.16,2.65c0.62,1.65,0.04,3.67-1.36,4.74c-1.33,1.01-3.11,1.12-4.78,1.08
	c0,0-439.8,2.04-462.89,1.95c-0.6,0-1.2-0.08-1.77-0.28c-9.44-3.16-16.69-12.18-17.64-22.1c-0.33-3.42,0.03-6.89,0.75-10.25
	c0.02-0.08,0.03-0.15,0.05-0.23C612.32,431.33,623.46,422.59,636.16,422.48z"/>
<path class="st0" d="M303.11,243.21l0.28-4.79c0.04-0.74,0.69-1.28,1.45-1.21l21.75,2.02c0.76,0.07,1.34,0.73,1.29,1.47l-0.28,4.79
	c-0.04,0.74-0.69,1.28-1.45,1.21l-21.75-2.02C303.64,244.61,303.06,243.95,303.11,243.21z"/>
<path class="st0" d="M349.35,172.69l4.16-2.41c0.64-0.37,1.49-0.15,1.9,0.49l11.64,18.42c0.41,0.64,0.21,1.46-0.43,1.84l-4.16,2.41
	c-0.64,0.37-1.49,0.15-1.9-0.49l-11.64-18.42C348.52,173.88,348.71,173.06,349.35,172.69z"/>
<path class="st0" d="M317.65,311.52l-2.63-4.16c-0.41-0.64-0.21-1.46,0.43-1.84l18.42-10.69c0.64-0.37,1.49-0.15,1.9,0.49l2.63,4.16
	c0.41,0.64,0.21,1.46-0.43,1.84l-18.42,10.69C318.91,312.38,318.06,312.16,317.65,311.52z"/>
<path class="st0" d="M440.63,171.38l-4.55-1.98c-0.7-0.31-1.51-0.01-1.79,0.67l-8.22,19.41c-0.29,0.68,0.05,1.47,0.75,1.78
	l4.55,1.98c0.7,0.31,1.51,0.01,1.79-0.67l8.22-19.41C441.67,172.49,441.33,171.69,440.63,171.38z"/>
<path class="st0" d="M497.03,215.41l-2.63-4.16c-0.41-0.64-1.25-0.86-1.9-0.49l-18.42,10.69c-0.64,0.37-0.83,1.2-0.43,1.84
	l2.63,4.16c0.41,0.64,1.25,0.86,1.9,0.49l18.42-10.69C497.24,216.87,497.43,216.05,497.03,215.41z"/>
<g>
	<g>
		<path class="st0" d="M478.36,330.39l-14.69-23.26c14.69-20.25,16.19-48.39,1.5-71.65c-19.63-31.09-60.74-41.67-91.81-23.64
			c-31.07,18.03-40.35,57.85-20.71,88.94c14.38,22.76,40.26,34.51,65.3,32.11l15.05,23.84c1.68,2.66,5.2,3.57,7.86,2.03l35.73-20.73
			C479.25,336.47,480.04,333.06,478.36,330.39z"/>
	</g>
</g>
<path class="st0" d="M950.27,195.89c1.72,6.82,2.01,13.99,0.83,20.92c-0.31,1.86-0.73,3.74-0.48,5.6c0.73,5.38,6.49,8.39,11.6,10.21
	c6.43,2.28,13.02,4.1,19.7,5.45c3.46,0.7,7.23,1.23,10.38-0.38c3.72-1.9,5.47-6.23,6.34-10.31c2.02-9.43,0.99-19.21-0.04-28.79
	c-0.15-1.44-0.31-2.89-0.84-4.24c-1.29-3.3-4.53-5.39-7.75-6.86c-6.64-3.04-14.14-4.41-21.34-3.22
	C961.47,185.45,954.62,189.31,950.27,195.89z"/>
<path class="st0" d="M661.79,348.5c0.27,18.41,0.08,36.82-0.57,55.21c6,1.11,12.09,1.7,18.19,1.76c1.04,0.01,2.19-0.04,2.95-0.74
	c0.85-0.78,0.92-2.07,0.93-3.22c0.19-15.97,0.38-31.94,0.57-47.91c0.09-7.37,0.22-14.96,3.13-21.74c2.91-6.77,9.32-12.6,16.69-12.48
	c4.13,0.07,8.39,2.28,10.03,6.07c0.93,2.16,0.96,4.58,0.98,6.93c0.17,24.55,0.35,49.09,0.52,73.64c5.59,1.11,11.3,1.64,17,1.59
	c1.2-0.01,2.53-0.11,3.35-0.98c0.81-0.86,0.84-2.17,0.81-3.36c-0.43-21.45-1.42-42.88-2.97-64.28c-0.18-2.55-0.41-5.2-1.69-7.41
	c-1.31-2.28-3.58-3.81-5.77-5.26c-5.77-3.84-11.81-7.78-18.68-8.71c-4.43-0.6-8.92,0.1-13.34,0.8c-7.36,1.16-14.99,2.43-21.15,6.62
	C666.62,329.21,661.62,337.2,661.79,348.5z"/>
<path class="st0" d="M942.81,351.1c0.27,18.41,0.08,36.82-0.57,55.21c6,1.11,12.09,1.7,18.19,1.76c1.04,0.01,2.19-0.04,2.95-0.74
	c0.85-0.78,0.92-2.07,0.93-3.22c0.19-15.97,0.38-31.94,0.57-47.91c0.09-7.37,0.22-14.96,3.13-21.74c2.91-6.77,9.32-12.6,16.69-12.48
	c4.13,0.07,8.39,2.28,10.03,6.07c0.93,2.16,0.96,4.58,0.98,6.93c0.17,24.55,0.35,49.09,0.52,73.64c5.59,1.11,11.3,1.64,17,1.59
	c1.2-0.01,2.53-0.11,3.35-0.98c0.81-0.86,0.84-2.17,0.81-3.36c-0.43-21.45-1.42-42.88-2.97-64.28c-0.18-2.55-0.41-5.2-1.69-7.41
	c-1.31-2.28-3.58-3.81-5.77-5.26c-5.77-3.84-11.81-7.78-18.68-8.71c-4.43-0.6-8.92,0.1-13.34,0.8c-7.36,1.16-14.99,2.43-21.15,6.62
	C947.64,331.82,942.64,339.81,942.81,351.1z"/>
<path d="M680.21,402.71c-6.74,1.03-13.73-2.62-20.29-0.78c-2.7,0.76-5.06,2.39-7.36,3.99c-7.61,5.3-15.21,10.61-22.82,15.91
	c3.07,3.84,8.53,4.59,13.44,4.88c9.61,0.56,19.27,0.42,28.86-0.41c4.43-0.38,9.28-1.13,12.18-4.49c2.81-3.25,2.95-7.95,2.89-12.24
	c-0.03-1.96-0.11-4.06-1.28-5.64C683.51,400.77,678.66,401.61,680.21,402.71z"/>
<path d="M711.3,407.67c5.27-4.47,12.77-4.86,19.68-5.04c3.24-0.08,6.71-0.1,9.41,1.69c1.87,1.24,3.12,3.21,4.71,4.8
	c4.98,4.98,12.84,5.92,18.24,10.44c1.22,1.03,2.37,2.41,2.28,4.01c-0.18,3.02-4.17,3.92-7.19,3.9c-13.35-0.08-26.65-1.42-39.93-2.8
	c-1.85-0.19-3.78-0.42-5.32-1.46c-3.49-2.38-3.23-7.52-2.58-11.7C710.9,409.52,711.48,407.17,711.3,407.67z"/>
<path d="M964.26,408.76c-3.69-4.83-10.89-4.66-16.93-4.03c-1.83,0.19-3.7,0.39-5.4,1.1c-1.86,0.78-3.42,2.12-4.95,3.44
	c-6.28,5.43-12.55,10.86-18.83,16.29c3.22,3.43,8.42,3.93,13.12,4.01c7.99,0.14,15.99-0.33,23.91-1.39c4.49-0.6,9.47-1.71,11.97-5.5
	c1.86-2.81,1.84-6.56,0.65-9.71C966.61,409.83,964.37,407.19,964.26,408.76z"/>
<path d="M1017.77,408.65c-6.31-0.4-12.61-0.8-18.92-1.2c-1.69-0.11-3.47-0.2-5.01,0.53c-3.18,1.51-3.88,5.65-4.16,9.16
	c-0.27,3.36-0.24,7.41,2.58,9.27c1.27,0.84,2.86,1.02,4.38,1.18c10.65,1.1,21.3,2.2,31.95,3.31c3.43,0.35,7.71,0.27,9.27-2.8
	c0.95-1.87,0.39-4.22-0.84-5.91c-1.23-1.69-3.03-2.87-4.78-4.02C1027.11,414.84,1021.98,411.5,1017.77,408.65z"/>
<path class="st12" d="M660,305.58c-0.94,15.8-1.88,31.6-2.82,47.4c10.14,2.12,20.62,2.62,30.91,1.48
	c0.82-6.94,1.64-13.88,2.46-20.82c0.45-3.78,1.35-8.22,4.83-9.76c4.69-2.08,9.63,3.18,10.47,8.24c0.84,5.06-0.49,10.39,0.94,15.32
	c0.51,1.74,1.43,3.47,2.99,4.39c1.28,0.75,2.82,0.87,4.31,0.94c8.1,0.36,16.24-0.32,24.16-2.02c0.11-19.49-2.73-38.99-8.38-57.63
	c-0.51-1.68-1.08-3.42-2.29-4.69c-1.48-1.55-3.67-2.15-5.76-2.63c-11.14-2.6-22.86-3.82-33.97-1.12
	C676.73,287.39,660.76,292.86,660,305.58z"/>
<path class="st12" d="M943.16,298.38c-6.49,14-12.99,28-19.49,42c36.28,12.15,76.92,10.75,112.28-3.87
	c-5.11-14.19-11.57-27.9-19.25-40.88c-0.8-1.35-1.7-2.77-3.13-3.42c-1.35-0.61-2.9-0.4-4.37-0.21c-13.61,1.79-27.48,1.59-41.03-0.61
	"/>
<path class="st0" d="M680.22,196.8c2.29,7.18-5,15.26-1.75,22.07c1.74,3.65,5.95,5.39,9.9,6.24c7.6,1.63,17.04,0.25,20.61-6.65
	c2.87-5.55,0.76-12.26-1.38-18.12c-1-2.73-1.99-5.46-2.99-8.18c-0.38-1.03-0.78-2.1-1.57-2.87c-0.95-0.92-2.31-1.27-3.6-1.53
	C695.38,186.92,691.23,186.54,680.22,196.8z"/>
<path d="M983.76,73.31c-18.15-4.3-38.58-0.61-53.24,9.61c-14.65,10.22-23.16,26.72-22.17,42.98c0.4,6.48,2.15,13.24-0.6,19.27
	c-2.59,5.66-8.65,9.51-12.69,14.5c-8.73,10.77-7.05,25.22-5,38.26c1.7,10.82,3.4,21.65,5.1,32.48c0.72,4.57,1.73,9.61,5.91,12.47
	c5.66,3.87,13.88,1.78,20.6-0.47c7.44-2.49,14.88-4.99,22.32-7.48c4.16-1.39,8.5-2.9,11.4-5.83c5.37-5.45,3.86-13.95-0.35-20.12
	c-4.2-6.17-10.59-11.02-15.15-17c-12.71-16.69-9.05-38.97-1.31-57.8c1.79-4.35,3.82-8.73,7.26-12.26c3.78-3.89,9.05-6.52,14.58-8.21
	c17.79-5.44,39.07-0.96,51.97,10.96c12.9,11.91,16.71,30.58,9.29,45.6c-4.2,8.49-11.44,15.52-17.72,22.99
	c-6.28,7.47-11.84,16.02-11.78,25.25c0.06,9.24,7.62,18.96,18.27,19.61c16.62,1.01,29.1-18.85,45.23-15.23
	c-4.47-14.96,3.2-30.33,8.13-45.18s6.01-33.3-7.65-43.25c-3.89-2.83-8.7-4.72-12.03-8.04c-4.74-4.72-5.58-11.38-7.64-17.37
	C1029.85,89.76,1006.7,78.74,983.76,73.31z"/>
<path class="st0" d="M645.56,134.11c0.4,12.63,1.8,25.22,4.2,37.63c0.75,3.89,1.61,7.8,3.28,11.39c2.19,4.71,5.69,8.7,9.6,12.11
	c12.4,10.82,29.67,16.15,45.86,13.23c16.19-2.92,30.82-14.38,36.65-29.76c3.61-9.53,3.89-19.96,3.74-30.15
	c-0.24-16.76-2.85-35.93-16.79-45.23c-9.01-6.01-20.56-6.25-31.39-5.93c-11.73,0.35-23.83,1.22-34.29,6.52
	C655.96,109.23,645.11,119.94,645.56,134.11z"/>
<path class="st0" d="M736.58,750.32c4.75,16.56,9.58,33.31,18.14,48.26c8.57,14.95,21.38,28.16,37.69,33.71
	c13.13,4.46,27.38,3.68,41.21,2.85c28.95-1.74,57.9-3.48,86.85-5.22c6.59-0.4,13.42-0.86,19.23-4c9.19-4.97,13.72-15.35,19.79-23.86
	c6.59-9.23,15.67-17.01,19.52-27.68c5.63-15.6-1.91-33.65-14.47-44.48c-12.56-10.83-29.14-15.7-45.44-18.78
	c-41.74-7.87-85.34-5.67-126.08,6.36C778.67,721.72,764.19,727.23,736.58,750.32z"/>
<path d="M657.43,81.81c-9.26,1.71-15.19,10.67-19.34,19.12s-8.18,17.87-16.45,22.36c2.81,1.1,5.62,2.21,8.43,3.31
	c-7.67,4.79-8.6,17.39-1.71,23.25c0.68-2.04,1.36-4.07,2.03-6.11c-1.34,7.64-3.77,15.09-7.19,22.05c7.47-8.56,20.44-11.8,31.05-7.75
	c-5.89-10.58-4.56-24.72,3.2-34.01c-1.4,4.07,2.32,8.44,6.51,9.39c4.2,0.95,8.52-0.49,12.58-1.91c-6.3-2.42-9.34-10.92-6.01-16.79
	c6.46,2.26,13.78,1.23,20.12,3.83c6.33,2.6,10.54,12.16,4.89,16.04c8.37-4.44,13.38-14.46,11.92-23.81
	c2.83,10.92,14.55,18.73,25.72,17.16c-2.25-2.4-4.51-4.79-6.76-7.19c10.71,3.1,17.33,16.13,13.5,26.61
	c1.86-2.62,3.72-5.24,5.58-7.87c4.12,6.39,12.22,9.95,19.72,8.68c-3.15-2.81-4.59-7.4-3.62-11.5c0.27-1.15,1.03-2.47,2.21-2.36
	c1.17,0.1,0.76,2.53-0.2,1.84c-8.12-9.18-5.79-23.19-8.26-35.2c-4-19.48-23.34-34.6-43.22-33.77c-11.08,0.46-23.19,5.03-32.57-0.89
	c0.74,3.49,3.38,6.51,6.74,7.72C674.78,73.33,663.05,76.71,657.43,81.81z"/>
<path class="st6" d="M682.42,214.62c-6.41-3.63-14.64-2.67-21.2,0.7s-11.76,8.82-16.71,14.28c-5.33,5.89-10.84,12.75-10.5,20.69
	c5.68,2.32,11.36,4.63,17.04,6.95c1.19,0.49,2.46,1.04,3.12,2.14c0.86,1.43,0.4,3.25-0.04,4.85c-3.7,13.53-4.54,27.84-2.44,41.72
	c22.37,13.61,50.54,11.41,76.59,8.76c3.29-0.33,6.67-0.69,9.6-2.21c8.16-4.22,9.61-15.06,10.05-24.23
	c0.69-14.44,1.39-28.88,2.08-43.32c0.5-10.35,0.24-22.42-7.97-28.72c-4.61-3.54-10.72-4.33-16.52-4.68
	C715.76,210.94,705.94,211.23,682.42,214.62z"/>
<path class="st0" d="M1027.41,205.38c7.8-5.63,15.6-11.26,23.4-16.89c-0.51-2.44-1.02-4.95-0.56-7.39c0.46-2.44,2.16-4.83,4.6-5.33
	c1.48-0.3,3.08,0.11,4.5-0.42c0.99-0.37,1.77-1.16,2.5-1.93c4.37-4.55,8.74-9.1,13.1-13.65c2.28-0.08,3.75,2.73,3.23,4.95
	c-0.52,2.22-2.31,3.88-4.01,5.4c-1.7,1.52-3.48,3.19-3.99,5.41c0.66-1.72,3.34,0.07,3.47,1.9c0.12,1.83-0.32,4.17,1.26,5.1
	c0.71,0.42,1.68,0.38,2.26,0.96c1.13,1.13-0.26,3.12,0.25,4.64c0.37,1.12,1.66,1.64,2.31,2.62c1.41,2.11-0.64,4.78-2.53,6.47
	c-4.4,3.94-9.82,8.16-15.58,6.85c-0.98-0.23-1.98-0.61-2.97-0.44c-0.78,0.13-1.46,0.59-2.11,1.04c-7.83,5.41-15.67,10.81-23.5,16.22
	c-2.3,1.59-5.1,3.25-7.71,2.25c-2.02-0.77-3.18-2.95-3.56-5.08C1020.9,213.18,1023.7,208.06,1027.41,205.38z"/>
<path class="st0" d="M926.13,243.94c-8.68,4.09-18.72,4.74-28.16,3.04c-9.44-1.69-18.36-5.61-26.73-10.3
	c-0.85-0.47-1.85-0.97-2.74-0.59c-1.85,0.79-0.68,3.59,0.72,5.04c2.33,2.41,4.71,4.78,7.13,7.1c-7.51,1.66-15.02,3.32-22.53,4.98
	c-1.32,0.29-2.92,0.89-3.04,2.23c-0.16,1.86,2.58,2.41,4.32,1.75c1.74-0.66,3.74-1.78,5.3-0.77c-3.75,1.07-7.15,3.33-9.58,6.38
	c3.61,2.92,8.68,3.28,13.27,2.55c4.58-0.73,8.97-2.42,13.56-3.13c11.04-1.72,22.05,2.24,32.77,5.4c3.31,0.97,6.75,1.88,10.17,1.49
	c6.93-0.8,12.07-6.58,16.51-11.96c1.5-1.82,3.07-3.78,3.34-6.13C941.08,245.68,934.42,240.03,926.13,243.94z"/>
<path class="st6" d="M797.08,581.96c-12.92,1.17-23.99,10.41-30.72,21.49c-6.73,11.09-9.83,23.93-12.84,36.55
	c-7.73,32.39-15.45,64.79-23.18,97.18c-2.28,9.57-3.72,21.64,4.25,27.42c11.13,8.07,30.31-4.33,39.28,6.09
	c5.21,6.05,2.51,15.25,3.42,23.17c1.39,12.07,11.86,21.51,23.36,25.41s23.97,3.34,36.11,2.74c25.39-1.26,50.78-2.51,76.18-3.77
	c4.99-0.25,10.34-0.63,14.23-3.76c3.96-3.19,5.45-8.46,6.63-13.41c5.99-25.07,9.64-50.7,10.86-76.44
	c2.62,10.01,3.62,20.45,2.95,30.78c9.09-1.52,18.17-3.04,27.26-4.56c3.6-0.6,7.5-1.37,9.88-4.14c2.54-2.96,2.55-7.27,2.34-11.17
	c-2.12-39.66-12.32-78.86-29.8-114.52c-5.72-11.67-12.55-23.35-23.19-30.82c-6.59-4.63-14.31-7.38-22.06-9.58
	C874.06,569.86,834.08,578.61,797.08,581.96z"/>
<rect x="682.65" y="206.55" class="st12" width="152.4" height="124.47"/>
<rect x="686.99" y="213.58" class="st6" width="143.17" height="111.73"/>
<path class="st0" d="M640.04,248.66c-3.04,5.37-6.17,11.54-4.34,17.43c1.47,4.73,5.83,7.95,10.25,10.19
	c8.99,4.55,19.08,6.35,29.01,8.1c4.68,0.82,9.36,1.65,14.04,2.47c3.83,0.67,8.99,0.6,10.18-3.1c-3.01-0.72-6.02-1.45-9.03-2.17
	c2.84,0.13,5.67,0.25,8.51,0.38c1.55,0.07,3.82-0.89,3.06-2.25c-0.26-0.47-0.82-0.68-1.34-0.85c-3.29-1.1-6.58-2.2-9.87-3.31
	c4.4-0.91,9.12-0.1,12.97,2.22c2.38-1.06,0.99-4.95-1.38-6.04c-2.37-1.09-5.28-0.94-7.35-2.52c4.19,2.02,9.07,2.58,13.61,1.56
	c0.92-1.44-0.05-3.48-1.55-4.3s-3.31-0.75-5.02-0.67c-0.03-0.89-0.06-1.78-0.09-2.67c-4.71-0.84-9.71-1.66-14.15,0.12
	c-2.17,0.87-4.06,2.3-6.14,3.38c-10.04,5.18-23.82,0.02-28.53-10.25c-0.71-1.55-1.25-3.2-2.24-4.59
	C648.46,248.74,644.58,247.51,640.04,248.66z"/>
<path class="st0" d="M651.39,157.36c-2.28-0.8-3.89-2.78-5.72-4.35c-1.83-1.58-4.38-2.85-6.59-1.87c-3.23,1.43-2.99,6.05-2.13,9.48
	c1.49,5.99,3.34,12.19,7.63,16.62C648.87,181.68,656.31,183.66,651.39,157.36z"/>
<path class="st0" d="M413.23,487.63c16.63,17.75,22.49,44.86,14.69,67.89c-3.36,9.92-9.04,19.13-10.71,29.48
	c-1.96,12.17,1.85,24.45,5.62,36.19c16.36,51,33.67,103.69,69.66,143.35c5.62,6.19,11.97,12.64,13.01,20.94
	c1.28,10.13-6.49,19.91-16.12,23.3s-20.45,1.45-29.79-2.7c-9.53-4.24-17.92-10.62-26.15-17.02c-28.48-22.14-57.07-46.21-72.97-78.58
	c-25.62-52.16-13.34-114.12-0.53-170.8C364.35,520.24,373.18,496.66,413.23,487.63z"/>
<path d="M516.24,1068.08c-8.71,5.97-17.42,11.94-26.14,17.91c-3.99,7.7,2.02,17.32,9.78,21.19c7.76,3.87,16.77,4,25.23,5.93
	c14.04,3.19,26.38,11.27,39.17,17.89c12.79,6.62,27.26,11.97,41.37,9.07c-7.61-14.58-16.84-28.32-27.46-40.88
	C567.31,1086.34,553.05,1073.93,516.24,1068.08z"/>
<path d="M458.79,1080.14c-6.62,5.67-12.17,12.58-16.28,20.26c-1.3,2.43-2.48,5.08-2.25,7.83c0.58,7.01,9.15,9.89,16.1,11.02
	c27.49,4.46,55.17,7.72,82.94,9.77c5.91,0.44,13.13,0.15,16-5.04c2.85-5.15-0.69-11.41-4.28-16.09
	c-8.99-11.74-19.42-22.96-32.83-29.19C504.98,1072.59,483.36,1059.11,458.79,1080.14z"/>
<path d="M768.29,1087.36c-17.66,8.18-34.42,18.32-49.85,30.19c-1.62,1.25-3.36,2.74-3.54,4.78c-0.16,1.84,1.02,3.52,2.3,4.85
	c8.65,9.01,22.55,9.8,35.04,10.01c9.25,0.15,18.5,0.3,27.75,0.46c5.42,0.09,11.38-0.01,15.48-3.55c3.97-3.43,5.02-9.1,5.46-14.33
	c0.96-11.36-0.17-23.85-7.84-32.28C785.44,1079.05,769.48,1077.96,768.29,1087.36z"/>
<path d="M924.7,1060.72c-3.08,13.7-5.45,27.57-7.1,41.52c-0.75,6.38-1.12,13.57,3.05,18.45c2.7,3.16,6.81,4.7,10.79,5.89
	c21.03,6.28,43.93,6.19,64.91-0.26c2.54-0.78,5.36-1.96,6.2-4.47c0.91-2.72-0.97-5.51-2.76-7.76
	C985.66,1096.24,971.09,1078.75,924.7,1060.72z"/>
<path class="st12" d="M786.76,792.29c-20.68,14.07-39.89,30.29-57.24,48.31c-5.67,5.89-11.22,12.1-14.58,19.55
	c-4.04,8.97-4.62,19.1-4.24,28.93c1.83,47.47,24.2,91.81,30.67,138.88c2.34,17.07,2.74,34.97,10.69,50.26
	c7.95,15.28,26.86,26.79,42.5,19.56c0.17-63.55,0.34-127.09,0.52-190.64c0.01-3.38,0.03-6.84,1.21-10.01
	c4.5-12.17,21.31-12.63,34.17-10.88c23.21,3.14,46.42,6.29,69.62,9.43c4.62,0.63,9.51,1.37,13.08,4.36c5.5,4.6,6,12.74,6.03,19.91
	c0.27,56.15-1.5,112.31-5.3,168.33c14.93-0.52,29.85-1.53,44.72-3.02c4.19-0.42,8.77-1.07,11.61-4.18c2.28-2.49,2.92-6.03,3.46-9.37
	c8.4-51.48,16.8-102.96,25.2-154.44c2.24-13.7,4.47-27.76,1.66-41.36c-4.32-20.93-19.79-37.51-34.61-52.9
	c-12.65-13.14-25.74-26.6-42.45-33.92c-11.06-4.85-23.2-6.75-35.25-7.57C853.85,779.15,813.95,773.79,786.76,792.29z"/>
<path d="M847.65,472.44c-19.01,3.83-34.43,21.24-35.95,40.58c-1.3,16.6,6.62,32.96,4.96,49.53c-1.27,12.67-8.05,24.29-9.27,36.97
	c-1.79,18.68,8.65,36.38,10.27,55.08c1.16,13.35-1.62,28.72,7.46,38.57c7.35,7.97,19.71,8.73,30.39,6.83
	c10.67-1.91,21.13-5.92,31.96-5.45c5.98,0.26,12.27,1.83,17.76-0.56c9.93-4.32,10.68-17.89,9.87-28.69
	c-1.5-20-2.99-39.99-4.49-59.99c-0.59-7.86-1.2-15.82-3.83-23.24c-1.78-5.02-4.47-9.71-6.04-14.8
	c-8.16-26.39,14.13-58.79-2.51-80.84C887.94,472.81,867.92,468.35,847.65,472.44z"/>
<path class="st0" d="M742.76,151.51c2.57-2.67,5.25-5.24,8.02-7.69c0.79-0.7,1.65-1.42,2.68-1.63c2.3-0.47,4.29,1.69,5.24,3.83
	c2.71,6.09,1.28,13.28-1.58,19.3C753.45,173.05,745.73,180.29,742.76,151.51z"/>
<path class="st0" d="M938.69,120.35c-7.91,14.22-10.7,31.21-7.75,47.21c-0.54-5.59-9.05-7.45-13.02-3.47
	c-3.96,3.98-3.48,10.85-0.44,15.57c3.04,4.72,8,7.8,12.8,10.71c5.66,3.44,11.32,6.88,16.98,10.32
	c11.72,7.13,24.69,14.53,38.26,12.58c9.52-1.37,17.72-7.18,25.51-12.82c10.76-7.79,21.99-16.14,27.4-28.27
	c1.85-4.15,2.91-9.08,0.9-13.16c-2.01-4.08-8.11-6.13-11.28-2.87c5.77-14.32-0.6-31.68-12.66-41.32
	c-12.06-9.64-28.56-12.35-43.86-10.3C961.07,105.94,946.5,106.3,938.69,120.35z"/>
<path class="st6" d="M959.98,213.63c-14.22,5.23-27.51,12.98-39.07,22.78c-1.9,1.61-3.93,3.78-3.4,6.2c0.24,1.12,1,2.04,1.74,2.92
	c3.27,3.9,6.54,7.8,9.8,11.7c1.77,2.11,3.68,4.31,6.3,5.13c2.62,0.82,6.1-0.47,6.53-3.19c-1.56,11.35-3.12,22.71-4.68,34.06
	c-0.28,2.05-0.56,4.18,0.1,6.14c1.42,4.26,6.45,5.97,10.85,6.88c23.47,4.88,48.16,3.83,71.13-3.04c1.17-0.35,2.4-0.76,3.2-1.69
	c1.06-1.25,1.04-3.07,0.95-4.7c-1.09-18.69-4.18-37.27-9.21-55.31c7.81-3.54,15.61-7.08,23.42-10.63
	c-2.14-9.99-6.05-19.6-11.49-28.25C1006.43,215.4,981.41,219.66,959.98,213.63z"/>
<path d="M352.98,563.81c-10.21-16.13-20.87-34.55-16.67-53.18c3.22-14.29,14.77-25.37,27.46-32.67
	c13.48-7.76,29.59-12.27,44.71-8.63c15.12,3.63,28.45,16.95,28.65,32.5c0.06,4.93-1.43,10.29-5.48,13.1
	c-4.05,2.81-10.9,1.41-12.17-3.35c-2.82,9.44,2.82,21.82-4.56,28.35c-4.59,4.06-11.59,3.05-17.59,1.79
	c5.22,12.21-2.22,28.15-14.93,32C370.88,577.19,358.11,571.92,352.98,563.81z"/>
<path class="st6" d="M417.72,585.76c-28.82,9.41-61.88-10.85-89.85,0.84c-9.01,3.77-16.51,10.62-22.19,18.57
	c-18.34,25.69-17.51,59.91-15.93,91.43c1.43,28.48,2.85,56.97,4.28,85.45c0.32,6.35,0.78,13.12,4.61,18.19
	c4.47,5.92,12.32,7.99,19.61,9.39c25.02,4.82,50.66,6.34,76.07,4.52c18.67-1.34,41.14-7.93,45.18-26.2
	c2.23-10.09-2.24-20.84,0.39-30.83c2.46,3.4,4.23,7.3,5.18,11.39c12.38,6.19,28.05-3.2,33.38-15.97
	c5.33-12.77,3.13-27.32,0.27-40.87c-7.63-36.1-19.39-71.32-34.98-104.75C438.85,596.44,429.36,581.97,417.72,585.76z"/>
<path class="st12" d="M427.31,895.16c6.11,65.63,12.23,131.25,18.34,196.88c21.54,5.36,50.54,7.41,59.68-12.82
	c3.44-7.62,2.68-16.39,1.85-24.7c-5.31-53.28-10.61-106.56-15.92-159.84c10.31-1.7,20.63-3.4,30.94-5.1
	c-11.73,56.13-18.87,113.23-21.31,170.52c-0.23,5.38-0.34,11.08,2.36,15.74c8.74,15.11,32.65,4.16,49.08,10.04
	c26.45-62.82,43.64-129.52,50.85-197.3c2.08-19.58,2.72-41.36-9.65-56.69c-10.21-12.66-26.88-17.79-42.53-22.22
	c-75.16-21.27-153.08-41.7-230.5-31.35c-5.06,0.68-10.21,1.52-14.75,3.86c-14.9,7.69-17.67,28.31-13.35,44.52
	c7.53,28.25,30.48,50.79,57.24,62.56C376.39,901.03,406.58,903.06,427.31,895.16z"/>
<path class="st0" d="M261.04,777.35c-1.61-22.4-2.38-44.86-2.32-67.32c0.02-5.96,0.15-12.18,2.86-17.44
	c5.9-11.45,20.72-13.51,33.31-13.92c37.07-1.2,74.21-0.1,111.15,3.28c3.61,0.33,7.43,0.76,10.31,3.03c2.82,2.22,4.24,5.8,5.41,9.25
	c8.7,25.56,10.82,53.46,6.07,80.1c-0.88,4.96-2.09,10.07-5.19,13.98c-5.5,6.95-15.21,8.17-23.91,8.61
	c-41.07,2.07-82.18-1.83-123.13-5.73c-3.57-0.34-7.29-0.73-10.3-2.73C257.87,783.51,258.64,772.27,261.04,777.35z"/>
<path class="st0" d="M305.96,869.66c-6.81,3.08-13.63,6.16-20.44,9.23c-2.18,0.98-4.52,2.13-5.81,4.72
	c-2.05,4.12-0.35,10.13,2.64,12.99c2.98,2.86,6.79,3.41,10.41,3.87c31,3.93,62,7.86,93,11.79c11.69,1.48,23.45,2.96,35.15,1.7
	c10.76-1.16,21.31-4.62,31.81-8.07c16.35-5.37,32.7-10.74,49.05-16.11c2.88-0.95,6.23-2.46,7.1-6.33c1.4-6.18-4.55-10.41-9.22-11.34
	c-32.42-6.44-64.76,11.39-97.51,12.59c-12.6,0.46-25.17-1.55-37.69-3.56C344.49,877.95,324.54,874.75,305.96,869.66z"/>
<path class="st6" d="M389.45,912.74V788.88c0-1.66,1.34-3,3-3h2.51c1.66,0,3,1.34,3,3v123.86c0,1.66-1.34,3-3,3h-2.51
	C390.79,915.74,389.45,914.39,389.45,912.74z"/>
<path class="st6" d="M278.68,1008.94l22.56-109.57c0.27-1.29,1.5-2.11,2.75-1.84l3.79,0.83c1.25,0.27,2.05,1.54,1.79,2.83
	l-22.56,109.57c-0.27,1.29-1.5,2.11-2.75,1.84l-3.79-0.83C279.22,1011.5,278.42,1010.23,278.68,1008.94z"/>
<path class="st6" d="M400.22,1014.44l22.56-109.57c0.27-1.29,1.5-2.11,2.75-1.84l3.79,0.83c1.25,0.27,2.05,1.54,1.79,2.83
	l-22.56,109.57c-0.27,1.29-1.5,2.11-2.75,1.84l-3.79-0.83C400.76,1016.99,399.96,1015.73,400.22,1014.44z"/>
<path class="st6" d="M525.42,997.41l-26.41-108.66c-0.31-1.28,0.45-2.57,1.69-2.89l3.75-0.97c1.24-0.32,2.51,0.46,2.82,1.74
	l26.41,108.66c0.31,1.28-0.45,2.57-1.69,2.89l-3.75,0.97C527,999.47,525.74,998.69,525.42,997.41z"/>
<path class="st6" d="M399,910.11l105.87-27.26c1.24-0.32,2.51,0.46,2.82,1.74l0.94,3.87c0.31,1.28-0.45,2.57-1.69,2.89
	l-105.87,27.26c-1.24,0.32-2.51-0.46-2.82-1.74l-0.94-3.87C397,911.72,397.76,910.43,399,910.11z"/>
<path class="st6" d="M283.73,893.28l108.19,14.71c1.27,0.17,2.16,1.37,2,2.68l-0.51,3.96c-0.17,1.31-1.33,2.23-2.61,2.05
	l-108.19-14.71c-1.27-0.17-2.16-1.37-2-2.68l0.51-3.96C281.3,894.03,282.46,893.11,283.73,893.28z"/>
<path class="st6" d="M274.66,901.98V778.12c0-1.66,1.34-3,3-3h2.51c1.66,0,3,1.34,3,3v123.86c0,1.66-1.34,3-3,3h-2.51
	C276,904.98,274.66,903.64,274.66,901.98z"/>
<path class="st6" d="M780.5,875.02V767.6c0-1.66,1.34-3,3-3h3.17c1.66,0,3,1.34,3,3v107.42c0,1.66-1.34,3-3,3h-3.17
	C781.85,878.02,780.5,876.68,780.5,875.02z"/>
<path class="st6" d="M936.42,875.02V767.6c0-1.66,1.34-3,3-3h3.17c1.66,0,3,1.34,3,3v107.42c0,1.66-1.34,3-3,3h-3.17
	C937.77,878.02,936.42,876.68,936.42,875.02z"/>
<path class="st6" d="M771.33,1000.37V892.95c0-1.66,1.34-3,3-3h3.17c1.66,0,3,1.34,3,3v107.42c0,1.66-1.34,3-3,3h-3.17
	C772.67,1003.37,771.33,1002.03,771.33,1000.37z"/>
<path class="st6" d="M797.46,972.85V865.44c0-1.66,1.34-3,3-3h3.17c1.66,0,3,1.34,3,3v107.42c0,1.66-1.34,3-3,3h-3.17
	C798.81,975.85,797.46,974.51,797.46,972.85z"/>
<path class="st6" d="M922.81,972.85V865.44c0-1.66,1.34-3,3-3h3.17c1.66,0,3,1.34,3,3v107.42c0,1.66-1.34,3-3,3h-3.17
	C924.16,975.85,922.81,974.51,922.81,972.85z"/>
<path class="st6" d="M945.6,1007.32V899.9c0-1.66,1.34-3,3-3h3.17c1.66,0,3,1.34,3,3v107.42c0,1.66-1.34,3-3,3h-3.17
	C946.94,1010.32,945.6,1008.98,945.6,1007.32z"/>
<path class="st0" d="M760.36,767.73v-94.4c0-8.55,6.93-15.48,15.48-15.48h170.83c8.55,0,15.48,6.93,15.48,15.48v94.4
	c0,8.55-6.93,15.48-15.48,15.48H775.84C767.29,783.2,760.36,776.28,760.36,767.73z"/>
<path class="st0" d="M760.36,893.88v-31.72c0-8.55,6.93-15.48,15.48-15.48h170.83c8.55,0,15.48,6.93,15.48,15.48v31.72
	c0,8.55-6.93,15.48-15.48,15.48H775.84C767.29,909.36,760.36,902.43,760.36,893.88z"/>
</svg>
